<?xml version="1.0" encoding="utf-8"?><svg version="1.1" id="Layer_1" xmlns="http://www.w3.org/2000/svg" xmlns:xlink="http://www.w3.org/1999/xlink" x="0px" y="0px" viewBox="0 0 984 874.6" style="enable-background:new 0 0 984 874.6;" xml:space="preserve"><style type="text/css">.st0{fill:#6FBE44;}.st1{fill:#FFFFFF;}.st2{fill:#E2E2E2;}.st3{fill:#3D3D3D;}.st4{fill:#F4F2F1;}.st5{opacity:0.41;}.st6{fill:#BFBFC1;}.st7{opacity:0.17;}.st8{fill:none;stroke:#FFFFFF;stroke-width:2;}.st9{fill:#E5E5E5;}.st10{fill:#DEDDDD;}.st11{fill:#BFBFC0;}</style><g><path class="st0" d="M323.8,403.4H59.5c-1.8,0-3.2-1.4-3.2-3.2V15.1c0-1.8,1.4-3.2,3.2-3.2h264.3c1.8,0,3.2,1.4,3.2,3.2v385.1C327,402,325.6,403.4,323.8,403.4z"/></g><g><path class="st1" d="M162,52.4h-2v-4.1h-3.7v4.1h-2v-9.5h2v3.7h3.7v-3.7h2V52.4z"/><path class="st1" d="M168,52.4h-2v-7.8h-2.6v-1.7h7.1v1.7H168V52.4z"/><path class="st1" d="M176,52.4l-2.3-7.4h-0.1c0.1,1.5,0.1,2.5,0.1,3v4.4H172v-9.5h2.7l2.2,7.2h0l2.4-7.2h2.7v9.5h-1.9v-4.5c0-0.2,0-0.5,0-0.7c0-0.3,0-1,0.1-2.2h-0.1l-2.4,7.4H176z"/><path class="st1" d="M184.5,52.4v-9.5h2v7.8h3.8v1.7H184.5z"/><path class="st1" d="M200.9,52.4h-5.4v-9.5h5.4v1.6h-3.4v2.1h3.2v1.6h-3.2v2.4h3.4V52.4z"/><path class="st1" d="M209.2,52.4h-2v-4.2c0-0.5-0.1-0.9-0.3-1.2c-0.2-0.3-0.4-0.4-0.8-0.4c-0.5,0-0.9,0.2-1.1,0.6c-0.2,0.4-0.3,1-0.3,1.8v3.4h-2v-7.2h1.5l0.3,0.9h0.1c0.2-0.3,0.5-0.6,0.8-0.8s0.8-0.3,1.3-0.3c1.1,0,1.8,0.4,2.2,1.1h0.2c0.2-0.3,0.5-0.6,0.9-0.8c0.4-0.2,0.8-0.3,1.3-0.3c0.8,0,1.4,0.2,1.9,0.6c0.4,0.4,0.6,1.1,0.6,2v4.7h-2v-4.2c0-0.5-0.1-0.9-0.3-1.2c-0.2-0.3-0.4-0.4-0.8-0.4c-0.5,0-0.8,0.2-1.1,0.5c-0.2,0.3-0.4,0.9-0.4,1.6V52.4z"/><path class="st1" d="M220.3,52.4l-0.4-1h-0.1c-0.3,0.4-0.7,0.7-1,0.9c-0.4,0.2-0.8,0.2-1.4,0.2c-0.7,0-1.2-0.2-1.6-0.6c-0.4-0.4-0.6-1-0.6-1.7c0-0.8,0.3-1.3,0.8-1.7c0.5-0.4,1.3-0.6,2.4-0.6l1.3,0v-0.3c0-0.7-0.4-1.1-1.1-1.1c-0.6,0-1.3,0.2-2,0.5l-0.7-1.3c0.8-0.4,1.8-0.7,2.8-0.7c1,0,1.7,0.2,2.2,0.6c0.5,0.4,0.8,1.1,0.8,1.9v4.8H220.3z M219.7,49l-0.8,0c-0.6,0-1,0.1-1.3,0.3c-0.3,0.2-0.4,0.5-0.4,0.9c0,0.6,0.3,0.8,1,0.8c0.5,0,0.8-0.1,1.1-0.4c0.3-0.3,0.4-0.6,0.4-1V49z"/><path class="st1" d="M223.6,43.3c0-0.6,0.4-1,1.1-1s1.1,0.3,1.1,1c0,0.3-0.1,0.5-0.3,0.7c-0.2,0.2-0.4,0.3-0.8,0.3C224,44.2,223.6,43.9,223.6,43.3z M225.7,52.4h-2v-7.2h2V52.4z"/><path class="st1" d="M229.7,52.4h-2V42.3h2V52.4z"/></g><g><path class="st2" d="M139.4,132.8H95.4c-1.8,0-3.2-1.4-3.2-3.2V96.9c0-1.8,1.4-3.2,3.2-3.2h43.9c1.8,0,3.2,1.4,3.2,3.2v32.8C142.5,131.4,141.1,132.8,139.4,132.8z"/></g><g><rect x="56" y="76.5" class="st3" width="272.4" height="117.5"/></g><g><rect x="56" y="194.1" class="st4" width="272.4" height="209.3"/></g><g class="st5"><rect x="112.2" y="225.1" class="st6" width="75.3" height="6.5"/></g><g class="st7"><rect x="112.2" y="238.9" class="st6" width="75.3" height="6.5"/></g><g><circle class="st1" cx="90.1" cy="236.6" r="13.8"/></g><g class="st5"><rect x="241.3" y="225.1" class="st6" width="75.3" height="6.5"/></g><g class="st7"><rect x="241.3" y="238.9" class="st6" width="75.3" height="6.5"/></g><g><circle class="st1" cx="219.1" cy="236.6" r="13.8"/></g><g><path class="st3" d="M214.7,305.7H155c-4.1,0-7.3-3.3-7.3-7.3v-1.5c0-4.1,3.3-7.3,7.3-7.3h59.6c4.1,0,7.3,3.3,7.3,7.3v1.5C222,302.4,218.7,305.7,214.7,305.7z"/></g><g><path class="st8" d="M134.9,122.4c-1.2,1.1-2.8,3.2-4.8,6.1c-2.1,2.9-3.8,5.9-5.2,9c-1.1,2.4-2.1,5.4-3,9c-0.9,3.5-1.3,6.4-1.3,8.7h-8c0.2-7.1,2.6-14.4,7-22c2.8-4.7,5.2-8,7.1-9.9H107l0.1-6.9h27.8V122.4z"/><path class="st8" d="M140.1,147.4c1.1-2.6,3.7-5.4,7.8-8.3c3.6-2.6,5.9-4.4,6.9-5.5c1.6-1.7,2.4-3.6,2.4-5.6c0-1.7-0.5-3-1.4-4.2s-2.2-1.7-4-1.7c-2.4,0-4,0.9-4.8,2.6c-0.5,1-0.8,2.6-0.9,4.8h-7.5c0.1-3.3,0.7-6.1,1.8-8.1c2.1-3.9,5.7-5.9,11-5.9c4.2,0,7.5,1.2,9.9,3.5c2.5,2.3,3.7,5.4,3.7,9.2c0,2.9-0.9,5.5-2.6,7.8c-1.1,1.5-3,3.2-5.6,5l-3.1,2.2c-1.9,1.4-3.3,2.4-4,3c-0.7,0.6-1.3,1.3-1.8,2.1h17.2v6.8h-26.9C138.3,152.3,138.9,149.8,140.1,147.4z"/><path class="st8" d="M170.6,161.6c1.6-0.4,2.7-1.2,3.4-2.2c0.7-1,1.2-2.4,1.3-4.3h-4.7V147h8.4v7c0,1.2-0.2,2.5-0.5,3.9c-0.3,1.3-0.9,2.5-1.8,3.5c-1,1-2.1,1.8-3.4,2.4c-1.3,0.5-2.2,0.8-2.7,0.8V161.6z"/><path class="st8" d="M208.7,120.8c2,3.5,3,8.5,3,15c0,6.5-1,11.5-3,15c-2,3.5-5.5,5.3-10.5,5.3c-5,0-8.5-1.8-10.5-5.3c-2-3.5-3-8.5-3-15c0-6.5,1-11.5,3-15c2-3.5,5.5-5.3,10.5-5.3C203.2,115.5,206.7,117.3,208.7,120.8z M193.6,146.2c0.7,2.4,2.3,3.6,4.6,3.6c2.3,0,3.8-1.2,4.5-3.6c0.7-2.4,1.1-5.9,1.1-10.4c0-4.7-0.4-8.2-1.1-10.5c-0.7-2.3-2.2-3.4-4.5-3.4c-2.3,0-3.8,1.1-4.6,3.4c-0.7,2.3-1.1,5.8-1.1,10.5C192.5,140.4,192.9,143.9,193.6,146.2z"/><path class="st8" d="M239.6,120.8c2,3.5,3,8.5,3,15c0,6.5-1,11.5-3,15c-2,3.5-5.5,5.3-10.5,5.3c-5,0-8.5-1.8-10.5-5.3c-2-3.5-3-8.5-3-15c0-6.5,1-11.5,3-15c2-3.5,5.5-5.3,10.5-5.3C234.1,115.5,237.6,117.3,239.6,120.8z M224.5,146.2c0.7,2.4,2.3,3.6,4.6,3.6c2.3,0,3.8-1.2,4.5-3.6c0.7-2.4,1.1-5.9,1.1-10.4c0-4.7-0.4-8.2-1.1-10.5c-0.7-2.3-2.2-3.4-4.5-3.4c-2.3,0-3.8,1.1-4.6,3.4c-0.7,2.3-1.1,5.8-1.1,10.5C223.4,140.4,223.8,143.9,224.5,146.2z"/><path class="st8" d="M248.5,128v-5.3c2.4-0.1,4.1-0.3,5.1-0.5c1.6-0.3,2.8-1,3.8-2.1c0.7-0.7,1.2-1.6,1.5-2.8c0.2-0.7,0.3-1.2,0.3-1.6h6.5v39.3h-7.9V128H248.5z"/></g><g><path class="st9" d="M806.3,637.5h-60.9c-0.7,0-1.3-0.6-1.3-1.3c0-0.7,0.6-1.3,1.3-1.3H805V370.1c0-0.7,0.6-1.3,1.3-1.3s1.3,0.6,1.3,1.3v266.1C807.6,636.9,807,637.5,806.3,637.5z"/></g><g><path class="st9" d="M642,130.8H355.4c-0.7,0-1.3-0.6-1.3-1.3c0-0.7,0.6-1.3,1.3-1.3H642c0.7,0,1.3,0.6,1.3,1.3C643.3,130.2,642.8,130.8,642,130.8z"/></g><g><path class="st10" d="M642,113.2c0-0.5,0.3-0.6,0.7-0.3l19.7,16.1c0.4,0.3,0.4,0.8,0,1.1l-19.7,16.1c-0.4,0.3-0.7,0.2-0.7-0.3L642,113.2z"/></g><g><path class="st10" d="M789.9,375.6c-0.5,0-0.6-0.3-0.3-0.7l16.1-19.7c0.3-0.4,0.8-0.4,1.1,0l16.1,19.7c0.3,0.4,0.2,0.7-0.3,0.7L789.9,375.6z"/></g><g><circle class="st10" cx="745.4" cy="636.2" r="5.5"/></g><g></g><g><path class="st0" d="M949.1,328.6H684.8c-1.8,0-3.2-1.4-3.2-3.2V67.7c0-1.8,1.4-3.2,3.2-3.2h264.3c1.8,0,3.2,1.4,3.2,3.2v257.7C952.2,327.1,950.8,328.6,949.1,328.6z"/></g><g><path class="st1" d="M785.1,96.5c0,0.9-0.3,1.5-0.9,2c-0.6,0.5-1.5,0.7-2.6,0.7c-1,0-1.9-0.2-2.7-0.6v-1.9c0.6,0.3,1.2,0.5,1.6,0.6s0.8,0.2,1.2,0.2c0.4,0,0.8-0.1,1-0.3c0.2-0.2,0.4-0.4,0.4-0.7c0-0.2-0.1-0.4-0.2-0.5c-0.1-0.1-0.3-0.3-0.5-0.4c-0.2-0.1-0.6-0.3-1.2-0.6c-0.6-0.3-1-0.5-1.3-0.8c-0.3-0.2-0.5-0.5-0.7-0.9c-0.2-0.3-0.3-0.7-0.3-1.2c0-0.8,0.3-1.5,0.9-2c0.6-0.5,1.4-0.7,2.4-0.7c0.5,0,1,0.1,1.4,0.2c0.4,0.1,0.9,0.3,1.4,0.5l-0.6,1.6c-0.5-0.2-0.9-0.4-1.3-0.4c-0.3-0.1-0.7-0.1-1-0.1c-0.4,0-0.7,0.1-0.9,0.3c-0.2,0.2-0.3,0.4-0.3,0.7c0,0.2,0,0.3,0.1,0.5c0.1,0.1,0.2,0.3,0.4,0.4c0.2,0.1,0.6,0.3,1.3,0.7c0.9,0.4,1.5,0.8,1.8,1.3C784.9,95.4,785.1,95.9,785.1,96.5z"/><path class="st1" d="M789.7,97.7c0.3,0,0.8-0.1,1.2-0.2V99c-0.5,0.2-1.1,0.3-1.8,0.3c-0.8,0-1.4-0.2-1.7-0.6c-0.4-0.4-0.5-1-0.5-1.8v-3.5h-0.9v-0.8l1.1-0.7l0.6-1.5h1.3v1.5h2v1.5h-2v3.5c0,0.3,0.1,0.5,0.2,0.6S789.4,97.7,789.7,97.7z"/><path class="st1" d="M797,99.2l-0.4-1h-0.1c-0.3,0.4-0.7,0.7-1,0.9c-0.4,0.2-0.8,0.2-1.4,0.2c-0.7,0-1.2-0.2-1.6-0.6c-0.4-0.4-0.6-1-0.6-1.7c0-0.8,0.3-1.3,0.8-1.7c0.5-0.4,1.3-0.6,2.4-0.6l1.3,0v-0.3c0-0.7-0.4-1.1-1.1-1.1c-0.6,0-1.3,0.2-2,0.5l-0.7-1.3c0.8-0.4,1.8-0.7,2.8-0.7c1,0,1.7,0.2,2.2,0.6s0.8,1.1,0.8,1.9v4.8H797z M796.4,95.8l-0.8,0c-0.6,0-1,0.1-1.3,0.3c-0.3,0.2-0.4,0.5-0.4,0.9c0,0.6,0.3,0.8,1,0.8c0.5,0,0.8-0.1,1.1-0.4c0.3-0.3,0.4-0.6,0.4-1V95.8z"/><path class="st1" d="M803.4,97.7c0.3,0,0.8-0.1,1.2-0.2V99c-0.5,0.2-1.1,0.3-1.8,0.3c-0.8,0-1.4-0.2-1.7-0.6c-0.4-0.4-0.5-1-0.5-1.8v-3.5h-0.9v-0.8l1.1-0.7l0.6-1.5h1.3v1.5h2v1.5h-2v3.5c0,0.3,0.1,0.5,0.2,0.6C802.9,97.7,803.1,97.7,803.4,97.7z"/><path class="st1" d="M806,90.1c0-0.6,0.4-1,1.1-1c0.7,0,1.1,0.3,1.1,1c0,0.3-0.1,0.5-0.3,0.7c-0.2,0.2-0.4,0.3-0.8,0.3C806.4,91,806,90.7,806,90.1z M808.1,99.2h-2v-7.2h2V99.2z"/><path class="st1" d="M813.1,99.3c-2.2,0-3.4-1.2-3.4-3.7c0-1.2,0.3-2.2,0.9-2.8c0.6-0.6,1.5-1,2.6-1c0.8,0,1.6,0.2,2.2,0.5l-0.6,1.5c-0.3-0.1-0.6-0.2-0.9-0.3c-0.3-0.1-0.5-0.1-0.8-0.1c-1,0-1.5,0.7-1.5,2.2c0,1.4,0.5,2.1,1.5,2.1c0.4,0,0.7-0.1,1.1-0.2c0.3-0.1,0.6-0.3,1-0.5v1.7c-0.3,0.2-0.6,0.3-1,0.4C814,99.3,813.6,99.3,813.1,99.3z"/><path class="st1" d="M826.1,96.5c0,0.9-0.3,1.5-0.9,2c-0.6,0.5-1.5,0.7-2.6,0.7c-1,0-1.9-0.2-2.7-0.6v-1.9c0.6,0.3,1.2,0.5,1.6,0.6s0.8,0.2,1.2,0.2c0.4,0,0.8-0.1,1-0.3c0.2-0.2,0.4-0.4,0.4-0.7c0-0.2-0.1-0.4-0.2-0.5c-0.1-0.1-0.3-0.3-0.5-0.4c-0.2-0.1-0.6-0.3-1.2-0.6c-0.6-0.3-1-0.5-1.3-0.8c-0.3-0.2-0.5-0.5-0.7-0.9c-0.2-0.3-0.3-0.7-0.3-1.2c0-0.8,0.3-1.5,0.9-2c0.6-0.5,1.4-0.7,2.4-0.7c0.5,0,1,0.1,1.4,0.2c0.4,0.1,0.9,0.3,1.4,0.5l-0.6,1.6c-0.5-0.2-0.9-0.4-1.3-0.4c-0.3-0.1-0.7-0.1-1-0.1c-0.4,0-0.7,0.1-0.9,0.3c-0.2,0.2-0.3,0.4-0.3,0.7c0,0.2,0,0.3,0.1,0.5c0.1,0.1,0.2,0.3,0.4,0.4c0.2,0.1,0.6,0.3,1.3,0.7c0.9,0.4,1.5,0.8,1.8,1.3C826,95.4,826.1,95.9,826.1,96.5z"/><path class="st1" d="M831,99.3c-1.2,0-2.1-0.3-2.7-1c-0.7-0.6-1-1.6-1-2.7c0-1.2,0.3-2.1,0.9-2.8s1.4-1,2.5-1c1,0,1.8,0.3,2.4,0.9c0.6,0.6,0.9,1.4,0.9,2.4v1h-4.7c0,0.6,0.2,1,0.5,1.3c0.3,0.3,0.7,0.5,1.3,0.5c0.4,0,0.8,0,1.2-0.1c0.4-0.1,0.8-0.2,1.2-0.4v1.5c-0.3,0.2-0.7,0.3-1.1,0.4C832,99.3,831.5,99.3,831,99.3z M830.7,93.2c-0.4,0-0.7,0.1-1,0.4c-0.2,0.3-0.4,0.6-0.4,1.1h2.8c0-0.5-0.1-0.9-0.4-1.1C831.4,93.3,831.1,93.2,830.7,93.2z"/><path class="st1" d="M839.5,91.8c0.3,0,0.5,0,0.7,0.1l-0.1,1.8c-0.2,0-0.4-0.1-0.6-0.1c-0.6,0-1.1,0.2-1.5,0.5c-0.4,0.3-0.5,0.8-0.5,1.4v3.7h-2v-7.2h1.5l0.3,1.2h0.1c0.2-0.4,0.5-0.7,0.9-1C838.7,91.9,839.1,91.8,839.5,91.8z"/><path class="st1" d="M843.2,99.2l-2.8-7.2h2.1l1.4,4.1c0.2,0.5,0.3,1,0.3,1.5h0c0-0.4,0.1-0.9,0.3-1.5l1.4-4.1h2.1l-2.8,7.2H843.2z"/><path class="st1" d="M852.3,99.3c-1.2,0-2.1-0.3-2.7-1c-0.7-0.6-1-1.6-1-2.7c0-1.2,0.3-2.1,0.9-2.8s1.4-1,2.5-1c1,0,1.8,0.3,2.4,0.9c0.6,0.6,0.9,1.4,0.9,2.4v1h-4.7c0,0.6,0.2,1,0.5,1.3c0.3,0.3,0.7,0.5,1.3,0.5c0.4,0,0.8,0,1.2-0.1c0.4-0.1,0.8-0.2,1.2-0.4v1.5c-0.3,0.2-0.7,0.3-1.1,0.4C853.4,99.3,852.9,99.3,852.3,99.3z M852.1,93.2c-0.4,0-0.7,0.1-1,0.4c-0.2,0.3-0.4,0.6-0.4,1.1h2.8c0-0.5-0.1-0.9-0.4-1.1C852.8,93.3,852.5,93.2,852.1,93.2z"/><path class="st1" d="M860.9,91.8c0.3,0,0.5,0,0.7,0.1l-0.1,1.8c-0.2,0-0.4-0.1-0.6-0.1c-0.6,0-1.1,0.2-1.5,0.5c-0.4,0.3-0.5,0.8-0.5,1.4v3.7h-2v-7.2h1.5l0.3,1.2h0.1c0.2-0.4,0.5-0.7,0.9-1C860.1,91.9,860.5,91.8,860.9,91.8z"/></g><g><rect x="681.2" y="119.2" class="st4" width="272.4" height="209.3"/></g><g><path class="st6" d="M405.5,117.7l-6.2-2.7v-0.6l6.2-3.1v1l-5.1,2.4l5.1,2.1V117.7z"/><path class="st6" d="M407.2,110.2c0-0.2,0.1-0.4,0.2-0.5c0.1-0.1,0.3-0.2,0.5-0.2c0.2,0,0.3,0.1,0.4,0.2c0.1,0.1,0.2,0.3,0.2,0.5s-0.1,0.4-0.2,0.5c-0.1,0.1-0.3,0.2-0.4,0.2c-0.2,0-0.3-0.1-0.5-0.2C407.3,110.6,407.2,110.5,407.2,110.2z M408.4,119.2h-1.1v-7.1h1.1V119.2z"/><path class="st6" d="M419.7,119.2v-4.6c0-0.6-0.1-1-0.4-1.3c-0.2-0.3-0.6-0.4-1.1-0.4c-0.7,0-1.2,0.2-1.5,0.6c-0.3,0.4-0.5,1-0.5,1.8v4h-1.1v-4.6c0-0.6-0.1-1-0.4-1.3c-0.2-0.3-0.6-0.4-1.1-0.4c-0.7,0-1.2,0.2-1.5,0.6c-0.3,0.4-0.5,1.1-0.5,2v3.7h-1.1v-7.1h0.9l0.2,1h0.1c0.2-0.3,0.5-0.6,0.9-0.8c0.4-0.2,0.8-0.3,1.2-0.3c1.1,0,1.8,0.4,2.2,1.2h0.1c0.2-0.4,0.5-0.7,0.9-0.9s0.9-0.3,1.4-0.3c0.8,0,1.4,0.2,1.8,0.6c0.4,0.4,0.6,1.1,0.6,2v4.6H419.7z"/><path class="st6" d="M428.8,112.1v0.7l-1.3,0.2c0.1,0.2,0.2,0.3,0.3,0.6c0.1,0.2,0.1,0.5,0.1,0.8c0,0.7-0.2,1.2-0.7,1.7c-0.5,0.4-1.1,0.6-2,0.6c-0.2,0-0.4,0-0.6-0.1c-0.5,0.2-0.7,0.5-0.7,0.9c0,0.2,0.1,0.3,0.2,0.4c0.2,0.1,0.4,0.1,0.8,0.1h1.3c0.8,0,1.4,0.2,1.8,0.5c0.4,0.3,0.6,0.8,0.6,1.4c0,0.8-0.3,1.4-0.9,1.8c-0.6,0.4-1.5,0.6-2.8,0.6c-0.9,0-1.6-0.2-2.1-0.5c-0.5-0.3-0.8-0.8-0.8-1.5c0-0.4,0.1-0.8,0.4-1.1c0.3-0.3,0.7-0.5,1.2-0.6c-0.2-0.1-0.3-0.2-0.5-0.4c-0.1-0.2-0.2-0.4-0.2-0.6c0-0.3,0.1-0.5,0.2-0.7c0.1-0.2,0.4-0.4,0.7-0.6c-0.4-0.2-0.7-0.4-0.9-0.8c-0.2-0.4-0.3-0.8-0.3-1.2c0-0.8,0.2-1.4,0.7-1.8c0.5-0.4,1.1-0.6,2-0.6c0.4,0,0.7,0,1,0.1H428.8z M423.1,120.4c0,0.4,0.2,0.7,0.5,0.9c0.3,0.2,0.8,0.3,1.4,0.3c0.9,0,1.6-0.1,2-0.4c0.4-0.3,0.7-0.6,0.7-1.1c0-0.4-0.1-0.6-0.4-0.8c-0.2-0.1-0.7-0.2-1.3-0.2h-1.3c-0.5,0-0.9,0.1-1.1,0.3C423.3,119.6,423.1,120,423.1,120.4z M423.7,114.4c0,0.5,0.1,0.9,0.4,1.1c0.3,0.3,0.7,0.4,1.2,0.4c1,0,1.6-0.5,1.6-1.5c0-1.1-0.5-1.6-1.6-1.6c-0.5,0-0.9,0.1-1.2,0.4C423.9,113.5,423.7,113.9,423.7,114.4z"/><path class="st6" d="M438.3,117.3c0,0.7-0.2,1.2-0.7,1.5c-0.5,0.4-1.2,0.5-2.1,0.5c-0.9,0-1.7-0.1-2.2-0.4v-1c0.3,0.2,0.7,0.3,1.1,0.4c0.4,0.1,0.8,0.1,1.1,0.1c0.6,0,1-0.1,1.3-0.3c0.3-0.2,0.5-0.5,0.5-0.8c0-0.3-0.1-0.5-0.4-0.7c-0.2-0.2-0.7-0.4-1.4-0.7c-0.7-0.2-1.1-0.5-1.4-0.6s-0.5-0.4-0.6-0.6s-0.2-0.5-0.2-0.8c0-0.6,0.2-1,0.7-1.4c0.5-0.3,1.1-0.5,1.9-0.5c0.8,0,1.5,0.2,2.2,0.5l-0.4,0.9c-0.7-0.3-1.4-0.4-1.9-0.4c-0.5,0-0.9,0.1-1.2,0.2c-0.3,0.2-0.4,0.4-0.4,0.7c0,0.2,0,0.4,0.1,0.5c0.1,0.1,0.3,0.3,0.5,0.4c0.2,0.1,0.6,0.3,1.2,0.5c0.8,0.3,1.4,0.6,1.7,0.9C438.1,116.4,438.3,116.8,438.3,117.3z"/><path class="st6" d="M443.2,112c0.3,0,0.6,0,0.8,0.1l-0.1,1c-0.3-0.1-0.6-0.1-0.8-0.1c-0.6,0-1.1,0.2-1.5,0.7c-0.4,0.5-0.6,1-0.6,1.7v3.8H440v-7.1h0.9l0.1,1.3h0.1c0.3-0.5,0.6-0.8,1-1.1C442.4,112.1,442.8,112,443.2,112z"/><path class="st6" d="M448.2,119.4c-1,0-1.8-0.3-2.4-0.9c-0.6-0.6-0.8-1.5-0.8-2.7c0-1.2,0.3-2.1,0.9-2.7c0.6-0.6,1.4-1,2.4-1c0.3,0,0.7,0,1,0.1c0.3,0.1,0.6,0.2,0.8,0.3l-0.3,0.9c-0.2-0.1-0.5-0.2-0.8-0.2c-0.3-0.1-0.5-0.1-0.7-0.1c-1.4,0-2.2,0.9-2.2,2.8c0,0.9,0.2,1.5,0.5,2c0.4,0.5,0.9,0.7,1.6,0.7c0.6,0,1.2-0.1,1.8-0.4v1C449.6,119.2,449,119.4,448.2,119.4z"/><path class="st6" d="M451.3,113.7v-0.9h6v0.9H451.3z M451.3,116.3v-0.9h6v0.9H451.3z"/><path class="st6" d="M460.1,109.8l0.1,0.1c-0.1,0.4-0.3,0.9-0.5,1.5c-0.2,0.6-0.4,1.1-0.7,1.6h-0.8c0.3-1.2,0.5-2.3,0.7-3.2H460.1z M462.5,109.8l0.1,0.1c-0.1,0.4-0.3,0.9-0.5,1.4c-0.2,0.6-0.4,1.1-0.7,1.6h-0.8c0.1-0.4,0.2-1,0.4-1.6c0.1-0.7,0.2-1.2,0.3-1.6H462.5z"/><path class="st6" d="M468.5,117.3c0,0.7-0.2,1.2-0.7,1.5c-0.5,0.4-1.2,0.5-2.1,0.5c-0.9,0-1.7-0.1-2.2-0.4v-1c0.3,0.2,0.7,0.3,1.1,0.4c0.4,0.1,0.8,0.1,1.1,0.1c0.6,0,1-0.1,1.3-0.3c0.3-0.2,0.5-0.5,0.5-0.8c0-0.3-0.1-0.5-0.4-0.7c-0.2-0.2-0.7-0.4-1.4-0.7c-0.7-0.2-1.1-0.5-1.4-0.6s-0.5-0.4-0.6-0.6s-0.2-0.5-0.2-0.8c0-0.6,0.2-1,0.7-1.4c0.5-0.3,1.1-0.5,1.9-0.5c0.8,0,1.5,0.2,2.2,0.5l-0.4,0.9c-0.7-0.3-1.4-0.4-1.9-0.4c-0.5,0-0.9,0.1-1.2,0.2c-0.3,0.2-0.4,0.4-0.4,0.7c0,0.2,0,0.4,0.1,0.5c0.1,0.1,0.3,0.3,0.5,0.4c0.2,0.1,0.6,0.3,1.2,0.5c0.8,0.3,1.4,0.6,1.7,0.9C468.3,116.4,468.5,116.8,468.5,117.3z"/><path class="st6" d="M472.5,118.5c0.2,0,0.4,0,0.5,0s0.3-0.1,0.4-0.1v0.8c-0.1,0.1-0.3,0.1-0.5,0.1c-0.2,0-0.4,0.1-0.6,0.1c-1.4,0-2.1-0.7-2.1-2.2V113h-1v-0.5l1-0.4l0.5-1.5h0.6v1.6h2.1v0.8h-2.1v4.2c0,0.4,0.1,0.8,0.3,1C471.9,118.4,472.2,118.5,472.5,118.5z"/><path class="st6" d="M479.3,119.2l-0.2-1H479c-0.4,0.4-0.7,0.7-1.1,0.9c-0.4,0.2-0.8,0.2-1.3,0.2c-0.7,0-1.3-0.2-1.7-0.5c-0.4-0.4-0.6-0.9-0.6-1.5c0-1.4,1.1-2.2,3.4-2.3l1.2,0v-0.4c0-0.6-0.1-1-0.4-1.2c-0.2-0.3-0.6-0.4-1.1-0.4c-0.6,0-1.3,0.2-2,0.5l-0.3-0.8c0.3-0.2,0.7-0.3,1.1-0.4c0.4-0.1,0.8-0.2,1.3-0.2c0.8,0,1.5,0.2,1.9,0.6c0.4,0.4,0.6,1,0.6,1.8v4.8H479.3z M476.8,118.5c0.7,0,1.2-0.2,1.6-0.5c0.4-0.4,0.6-0.9,0.6-1.5v-0.6l-1.1,0c-0.9,0-1.5,0.2-1.8,0.4c-0.4,0.2-0.6,0.6-0.6,1.1c0,0.4,0.1,0.7,0.4,0.9C476.1,118.4,476.4,118.5,476.8,118.5z"/><path class="st6" d="M484.6,118.5c0.2,0,0.4,0,0.5,0c0.2,0,0.3-0.1,0.4-0.1v0.8c-0.1,0.1-0.3,0.1-0.5,0.1c-0.2,0-0.4,0.1-0.6,0.1c-1.4,0-2.1-0.7-2.1-2.2V113h-1v-0.5l1-0.4l0.5-1.5h0.6v1.6h2.1v0.8h-2.1v4.2c0,0.4,0.1,0.8,0.3,1C483.9,118.4,484.2,118.5,484.6,118.5z"/><path class="st6" d="M486.9,110.2c0-0.2,0.1-0.4,0.2-0.5c0.1-0.1,0.3-0.2,0.5-0.2c0.2,0,0.3,0.1,0.4,0.2c0.1,0.1,0.2,0.3,0.2,0.5s-0.1,0.4-0.2,0.5c-0.1,0.1-0.3,0.2-0.4,0.2c-0.2,0-0.3-0.1-0.5-0.2C486.9,110.6,486.9,110.5,486.9,110.2z M488,119.2H487v-7.1h1.1V119.2z"/><path class="st6" d="M493.1,119.4c-1,0-1.8-0.3-2.4-0.9c-0.6-0.6-0.8-1.5-0.8-2.7c0-1.2,0.3-2.1,0.9-2.7c0.6-0.6,1.4-1,2.4-1c0.3,0,0.7,0,1,0.1c0.3,0.1,0.6,0.2,0.8,0.3l-0.3,0.9c-0.2-0.1-0.5-0.2-0.8-0.2c-0.3-0.1-0.5-0.1-0.7-0.1c-1.4,0-2.2,0.9-2.2,2.8c0,0.9,0.2,1.5,0.5,2c0.4,0.5,0.9,0.7,1.6,0.7c0.6,0,1.2-0.1,1.8-0.4v1C494.5,119.2,493.9,119.4,493.1,119.4z"/><path class="st6" d="M496.5,118.5c0-0.3,0.1-0.5,0.2-0.7c0.1-0.1,0.3-0.2,0.6-0.2c0.2,0,0.4,0.1,0.6,0.2c0.1,0.1,0.2,0.4,0.2,0.7c0,0.3-0.1,0.5-0.2,0.6c-0.1,0.2-0.3,0.2-0.6,0.2c-0.2,0-0.4-0.1-0.5-0.2C496.5,119.1,496.5,118.9,496.5,118.5z"/><path class="st6" d="M503,119.4c-1,0-1.8-0.3-2.4-0.9c-0.6-0.6-0.8-1.5-0.8-2.7c0-1.2,0.3-2.1,0.9-2.7c0.6-0.6,1.4-1,2.4-1c0.3,0,0.7,0,1,0.1c0.3,0.1,0.6,0.2,0.8,0.3l-0.3,0.9c-0.2-0.1-0.5-0.2-0.8-0.2c-0.3-0.1-0.5-0.1-0.7-0.1c-1.4,0-2.2,0.9-2.2,2.8c0,0.9,0.2,1.5,0.5,2c0.4,0.5,0.9,0.7,1.6,0.7c0.6,0,1.2-0.1,1.8-0.4v1C504.3,119.2,503.7,119.4,503,119.4z"/><path class="st6" d="M512.6,115.7c0,1.2-0.3,2.1-0.9,2.7c-0.6,0.6-1.4,1-2.4,1c-0.6,0-1.2-0.1-1.7-0.4c-0.5-0.3-0.9-0.7-1.1-1.3c-0.3-0.6-0.4-1.2-0.4-2c0-1.2,0.3-2.1,0.9-2.7c0.6-0.6,1.4-1,2.4-1c1,0,1.8,0.3,2.4,1C512.3,113.7,512.6,114.6,512.6,115.7z M507.2,115.7c0,0.9,0.2,1.6,0.5,2.1c0.4,0.5,0.9,0.7,1.6,0.7c0.7,0,1.2-0.2,1.6-0.7c0.4-0.5,0.5-1.2,0.5-2.1c0-0.9-0.2-1.6-0.5-2.1c-0.4-0.5-0.9-0.7-1.6-0.7c-0.7,0-1.2,0.2-1.6,0.7C507.3,114.1,507.2,114.8,507.2,115.7z"/><path class="st6" d="M523.5,119.2v-4.6c0-0.6-0.1-1-0.4-1.3c-0.2-0.3-0.6-0.4-1.1-0.4c-0.7,0-1.2,0.2-1.5,0.6c-0.3,0.4-0.5,1-0.5,1.8v4h-1.1v-4.6c0-0.6-0.1-1-0.4-1.3c-0.2-0.3-0.6-0.4-1.1-0.4c-0.7,0-1.2,0.2-1.5,0.6c-0.3,0.4-0.5,1.1-0.5,2v3.7h-1.1v-7.1h0.9l0.2,1h0.1c0.2-0.3,0.5-0.6,0.9-0.8c0.4-0.2,0.8-0.3,1.2-0.3c1.1,0,1.8,0.4,2.2,1.2h0.1c0.2-0.4,0.5-0.7,0.9-0.9s0.9-0.3,1.4-0.3c0.8,0,1.4,0.2,1.8,0.6c0.4,0.4,0.6,1.1,0.6,2v4.6H523.5z"/><path class="st6" d="M530.3,109.8l-3.5,9.5h-1.1l3.5-9.5H530.3z"/><path class="st6" d="M531.5,110.2c0-0.2,0.1-0.4,0.2-0.5c0.1-0.1,0.3-0.2,0.5-0.2c0.2,0,0.3,0.1,0.4,0.2c0.1,0.1,0.2,0.3,0.2,0.5s-0.1,0.4-0.2,0.5c-0.1,0.1-0.3,0.2-0.4,0.2c-0.2,0-0.3-0.1-0.5-0.2C531.6,110.6,531.5,110.5,531.5,110.2z M532.7,119.2h-1.1v-7.1h1.1V119.2z"/><path class="st6" d="M544,119.2v-4.6c0-0.6-0.1-1-0.4-1.3c-0.2-0.3-0.6-0.4-1.1-0.4c-0.7,0-1.2,0.2-1.5,0.6c-0.3,0.4-0.5,1-0.5,1.8v4h-1.1v-4.6c0-0.6-0.1-1-0.4-1.3c-0.2-0.3-0.6-0.4-1.1-0.4c-0.7,0-1.2,0.2-1.5,0.6c-0.3,0.4-0.5,1.1-0.5,2v3.7H535v-7.1h0.9l0.2,1h0.1c0.2-0.3,0.5-0.6,0.9-0.8c0.4-0.2,0.8-0.3,1.2-0.3c1.1,0,1.8,0.4,2.2,1.2h0.1c0.2-0.4,0.5-0.7,0.9-0.9s0.9-0.3,1.4-0.3c0.8,0,1.4,0.2,1.8,0.6c0.4,0.4,0.6,1.1,0.6,2v4.6H544z"/><path class="st6" d="M553.1,112.1v0.7l-1.3,0.2c0.1,0.2,0.2,0.3,0.3,0.6s0.1,0.5,0.1,0.8c0,0.7-0.2,1.2-0.7,1.7c-0.5,0.4-1.1,0.6-2,0.6c-0.2,0-0.4,0-0.6-0.1c-0.5,0.2-0.7,0.5-0.7,0.9c0,0.2,0.1,0.3,0.2,0.4c0.2,0.1,0.4,0.1,0.8,0.1h1.3c0.8,0,1.4,0.2,1.8,0.5c0.4,0.3,0.6,0.8,0.6,1.4c0,0.8-0.3,1.4-0.9,1.8c-0.6,0.4-1.5,0.6-2.8,0.6c-0.9,0-1.6-0.2-2.1-0.5c-0.5-0.3-0.8-0.8-0.8-1.5c0-0.4,0.1-0.8,0.4-1.1c0.3-0.3,0.7-0.5,1.2-0.6c-0.2-0.1-0.3-0.2-0.5-0.4c-0.1-0.2-0.2-0.4-0.2-0.6c0-0.3,0.1-0.5,0.2-0.7c0.1-0.2,0.4-0.4,0.7-0.6c-0.4-0.2-0.7-0.4-0.9-0.8c-0.2-0.4-0.3-0.8-0.3-1.2c0-0.8,0.2-1.4,0.7-1.8c0.5-0.4,1.1-0.6,2-0.6c0.4,0,0.7,0,1,0.1H553.1z M547.4,120.4c0,0.4,0.2,0.7,0.5,0.9c0.3,0.2,0.8,0.3,1.4,0.3c0.9,0,1.6-0.1,2-0.4c0.4-0.3,0.7-0.6,0.7-1.1c0-0.4-0.1-0.6-0.4-0.8c-0.2-0.1-0.7-0.2-1.3-0.2H549c-0.5,0-0.9,0.1-1.1,0.3C547.6,119.6,547.4,120,547.4,120.4z M548,114.4c0,0.5,0.1,0.9,0.4,1.1c0.3,0.3,0.7,0.4,1.2,0.4c1,0,1.6-0.5,1.6-1.5c0-1.1-0.5-1.6-1.6-1.6c-0.5,0-0.9,0.1-1.2,0.4C548.1,113.5,548,113.9,548,114.4z"/><path class="st6" d="M554.4,118.5c0-0.3,0.1-0.5,0.2-0.7c0.1-0.1,0.3-0.2,0.6-0.2c0.2,0,0.4,0.1,0.6,0.2c0.1,0.1,0.2,0.4,0.2,0.7c0,0.3-0.1,0.5-0.2,0.6c-0.1,0.2-0.3,0.2-0.6,0.2c-0.2,0-0.4-0.1-0.5-0.2C554.5,119.1,554.4,118.9,554.4,118.5z"/><path class="st6" d="M563.9,112.1v0.7l-1.3,0.2c0.1,0.2,0.2,0.3,0.3,0.6s0.1,0.5,0.1,0.8c0,0.7-0.2,1.2-0.7,1.7c-0.5,0.4-1.1,0.6-2,0.6c-0.2,0-0.4,0-0.6-0.1c-0.5,0.2-0.7,0.5-0.7,0.9c0,0.2,0.1,0.3,0.2,0.4c0.2,0.1,0.4,0.1,0.8,0.1h1.3c0.8,0,1.4,0.2,1.8,0.5c0.4,0.3,0.6,0.8,0.6,1.4c0,0.8-0.3,1.4-0.9,1.8c-0.6,0.4-1.5,0.6-2.8,0.6c-0.9,0-1.6-0.2-2.1-0.5c-0.5-0.3-0.8-0.8-0.8-1.5c0-0.4,0.1-0.8,0.4-1.1c0.3-0.3,0.7-0.5,1.2-0.6c-0.2-0.1-0.3-0.2-0.5-0.4c-0.1-0.2-0.2-0.4-0.2-0.6c0-0.3,0.1-0.5,0.2-0.7c0.1-0.2,0.4-0.4,0.7-0.6c-0.4-0.2-0.7-0.4-0.9-0.8c-0.2-0.4-0.3-0.8-0.3-1.2c0-0.8,0.2-1.4,0.7-1.8c0.5-0.4,1.1-0.6,2-0.6c0.4,0,0.7,0,1,0.1H563.9z M558.2,120.4c0,0.4,0.2,0.7,0.5,0.9c0.3,0.2,0.8,0.3,1.4,0.3c0.9,0,1.6-0.1,2-0.4c0.4-0.3,0.7-0.6,0.7-1.1c0-0.4-0.1-0.6-0.4-0.8c-0.2-0.1-0.7-0.2-1.3-0.2h-1.3c-0.5,0-0.9,0.1-1.1,0.3C558.3,119.6,558.2,120,558.2,120.4z M558.8,114.4c0,0.5,0.1,0.9,0.4,1.1c0.3,0.3,0.7,0.4,1.2,0.4c1,0,1.6-0.5,1.6-1.5c0-1.1-0.5-1.6-1.6-1.6c-0.5,0-0.9,0.1-1.2,0.4C558.9,113.5,558.8,113.9,558.8,114.4z"/><path class="st6" d="M565.2,110.2c0-0.2,0.1-0.4,0.2-0.5c0.1-0.1,0.3-0.2,0.5-0.2c0.2,0,0.3,0.1,0.4,0.2c0.1,0.1,0.2,0.3,0.2,0.5s-0.1,0.4-0.2,0.5c-0.1,0.1-0.3,0.2-0.4,0.2c-0.2,0-0.3-0.1-0.5-0.2C565.3,110.6,565.2,110.5,565.2,110.2z M566.4,119.2h-1.1v-7.1h1.1V119.2z"/><path class="st6" d="M571.9,113h-1.8v6.3H569V113h-1.3v-0.5l1.3-0.4v-0.4c0-1.7,0.8-2.6,2.3-2.6c0.4,0,0.8,0.1,1.3,0.2l-0.3,0.9c-0.4-0.1-0.8-0.2-1.1-0.2c-0.4,0-0.7,0.1-0.9,0.4c-0.2,0.3-0.3,0.7-0.3,1.3v0.5h1.8V113z"/><path class="st6" d="M574,109.8l0.1,0.1c-0.1,0.4-0.3,0.9-0.5,1.5c-0.2,0.6-0.4,1.1-0.7,1.6h-0.8c0.3-1.2,0.5-2.3,0.7-3.2H574z M576.4,109.8l0.1,0.1c-0.1,0.4-0.3,0.9-0.5,1.4c-0.2,0.6-0.4,1.1-0.7,1.6h-0.8c0.1-0.4,0.2-1,0.4-1.6c0.1-0.7,0.2-1.2,0.3-1.6H576.4z"/><path class="st6" d="M581.4,109.8l-3.5,9.5h-1.1l3.5-9.5H581.4z"/><path class="st6" d="M582.2,116.7l5.1-2.1l-5.1-2.4v-1l6.2,3.1v0.6l-6.2,2.7V116.7z"/></g><g><path class="st6" d="M816.9,478.8v-1.1h7.1v1.1H816.9z M825.9,477.6c0.2,0,0.4,0.1,0.5,0.2c0.1,0.1,0.2,0.3,0.2,0.5c0,0.2-0.1,0.3-0.2,0.4c-0.1,0.1-0.3,0.2-0.5,0.2c-0.2,0-0.4-0.1-0.5-0.2c-0.1-0.1-0.2-0.3-0.2-0.4c0-0.2,0.1-0.3,0.2-0.5C825.5,477.7,825.7,477.6,825.9,477.6z"/><path class="st6" d="M816.9,490.1h4.6c0.6,0,1-0.1,1.3-0.4c0.3-0.2,0.4-0.6,0.4-1.1c0-0.7-0.2-1.2-0.6-1.5c-0.4-0.3-1-0.5-1.8-0.5h-4v-1.1h4.6c0.6,0,1-0.1,1.3-0.4c0.3-0.2,0.4-0.6,0.4-1.1c0-0.7-0.2-1.2-0.6-1.5c-0.4-0.3-1.1-0.5-2-0.5h-3.7v-1.1h7.1v0.9l-1,0.2v0.1c0.3,0.2,0.6,0.5,0.8,0.9c0.2,0.4,0.3,0.8,0.3,1.2c0,1.1-0.4,1.8-1.2,2.2v0.1c0.4,0.2,0.7,0.5,0.9,0.9c0.2,0.4,0.3,0.9,0.3,1.4c0,0.8-0.2,1.4-0.6,1.8c-0.4,0.4-1.1,0.6-2,0.6h-4.6V490.1z"/><path class="st6" d="M824,499.2h-0.7l-0.2-1.3c-0.2,0.1-0.3,0.2-0.6,0.3c-0.2,0.1-0.5,0.1-0.8,0.1c-0.7,0-1.2-0.2-1.7-0.7c-0.4-0.5-0.6-1.1-0.6-2c0-0.2,0-0.4,0.1-0.6c-0.2-0.5-0.5-0.7-0.9-0.7c-0.2,0-0.3,0.1-0.4,0.2c-0.1,0.2-0.1,0.4-0.1,0.8v1.3c0,0.8-0.2,1.4-0.5,1.8c-0.3,0.4-0.8,0.6-1.4,0.6c-0.8,0-1.4-0.3-1.8-0.9c-0.4-0.6-0.6-1.5-0.6-2.8c0-0.9,0.2-1.6,0.5-2.1s0.8-0.8,1.5-0.8c0.4,0,0.8,0.1,1.1,0.4c0.3,0.3,0.5,0.7,0.6,1.2c0.1-0.2,0.2-0.3,0.4-0.5c0.2-0.1,0.4-0.2,0.6-0.2c0.3,0,0.5,0.1,0.7,0.2c0.2,0.1,0.4,0.4,0.6,0.7c0.2-0.4,0.4-0.7,0.8-0.9c0.4-0.2,0.8-0.3,1.2-0.3c0.8,0,1.4,0.2,1.8,0.7c0.4,0.5,0.6,1.1,0.6,2c0,0.4,0,0.7-0.1,1V499.2z M815.7,493.5c-0.4,0-0.7,0.2-0.9,0.5c-0.2,0.3-0.3,0.8-0.3,1.4c0,0.9,0.1,1.6,0.4,2c0.3,0.4,0.6,0.7,1.1,0.7c0.4,0,0.7-0.1,0.8-0.4c0.1-0.2,0.2-0.7,0.2-1.3v-1.3c0-0.5-0.1-0.9-0.3-1.1C816.5,493.7,816.2,493.5,815.7,493.5z M821.7,494.1c-0.5,0-0.9,0.1-1.1,0.4c-0.3,0.3-0.4,0.7-0.4,1.2c0,1,0.5,1.6,1.5,1.6c1.1,0,1.6-0.5,1.6-1.6c0-0.5-0.1-0.9-0.4-1.2C822.7,494.2,822.3,494.1,821.7,494.1z"/><path class="st6" d="M817.6,500.5c0.3,0,0.5,0.1,0.7,0.2c0.1,0.1,0.2,0.3,0.2,0.6c0,0.2-0.1,0.4-0.2,0.6c-0.1,0.1-0.4,0.2-0.7,0.2c-0.3,0-0.5-0.1-0.6-0.2c-0.2-0.1-0.2-0.3-0.2-0.6c0-0.2,0.1-0.4,0.2-0.5C817.1,500.5,817.3,500.5,817.6,500.5z"/><path class="st6" d="M824,510h-0.7l-0.2-1.3c-0.2,0.1-0.3,0.2-0.6,0.3c-0.2,0.1-0.5,0.1-0.8,0.1c-0.7,0-1.2-0.2-1.7-0.7c-0.4-0.5-0.6-1.1-0.6-2c0-0.2,0-0.4,0.1-0.6c-0.2-0.5-0.5-0.7-0.9-0.7c-0.2,0-0.3,0.1-0.4,0.2c-0.1,0.2-0.1,0.4-0.1,0.8v1.3c0,0.8-0.2,1.4-0.5,1.8c-0.3,0.4-0.8,0.6-1.4,0.6c-0.8,0-1.4-0.3-1.8-0.9c-0.4-0.6-0.6-1.5-0.6-2.8c0-0.9,0.2-1.6,0.5-2.1s0.8-0.8,1.5-0.8c0.4,0,0.8,0.1,1.1,0.4c0.3,0.3,0.5,0.7,0.6,1.2c0.1-0.2,0.2-0.3,0.4-0.5c0.2-0.1,0.4-0.2,0.6-0.2c0.3,0,0.5,0.1,0.7,0.2c0.2,0.1,0.4,0.4,0.6,0.7c0.2-0.4,0.4-0.7,0.8-0.9c0.4-0.2,0.8-0.3,1.2-0.3c0.8,0,1.4,0.2,1.8,0.7c0.4,0.5,0.6,1.1,0.6,2c0,0.4,0,0.7-0.1,1V510z M815.7,504.3c-0.4,0-0.7,0.2-0.9,0.5c-0.2,0.3-0.3,0.8-0.3,1.4c0,0.9,0.1,1.6,0.4,2c0.3,0.4,0.6,0.7,1.1,0.7c0.4,0,0.7-0.1,0.8-0.4c0.1-0.2,0.2-0.7,0.2-1.3v-1.3c0-0.5-0.1-0.9-0.3-1.1C816.5,504.4,816.2,504.3,815.7,504.3z M821.7,504.9c-0.5,0-0.9,0.1-1.1,0.4c-0.3,0.3-0.4,0.7-0.4,1.2c0,1,0.5,1.6,1.5,1.6c1.1,0,1.6-0.5,1.6-1.6c0-0.5-0.1-0.9-0.4-1.2C822.7,505,822.3,504.9,821.7,504.9z"/><path class="st6" d="M816.9,512.5v-1.1h7.1v1.1H816.9z M825.9,511.3c0.2,0,0.4,0.1,0.5,0.2c0.1,0.1,0.2,0.3,0.2,0.5c0,0.2-0.1,0.3-0.2,0.4c-0.1,0.1-0.3,0.2-0.5,0.2c-0.2,0-0.4-0.1-0.5-0.2c-0.1-0.1-0.2-0.3-0.2-0.4c0-0.2,0.1-0.3,0.2-0.5C825.5,511.4,825.7,511.3,825.9,511.3z"/><path class="st6" d="M823.2,517.9v-1.8h-6.3v-1.1h6.3v-1.3h0.5l0.4,1.3h0.4c1.7,0,2.6,0.8,2.6,2.3c0,0.4-0.1,0.8-0.2,1.3l-0.9-0.3c0.1-0.4,0.2-0.8,0.2-1.1c0-0.4-0.1-0.7-0.4-0.9c-0.3-0.2-0.7-0.3-1.3-0.3H824v1.8H823.2z"/></g><g><path class="st0" d="M698.8,740.6H434.4c-1.8,0-3.2-1.4-3.2-3.2V479.7c0-1.8,1.4-3.2,3.2-3.2h264.3c1.8,0,3.2,1.4,3.2,3.2v257.7C701.9,739.2,700.5,740.6,698.8,740.6z"/></g><g><path class="st1" d="M535.7,504.7c0,1-0.3,1.8-1,2.3c-0.6,0.5-1.5,0.8-2.7,0.8h-0.9v3.4h-2v-9.5h3c1.1,0,2,0.2,2.6,0.7C535.4,503,535.7,503.7,535.7,504.7z M531.2,506.2h0.7c0.6,0,1.1-0.1,1.4-0.4c0.3-0.2,0.5-0.6,0.5-1.1c0-0.5-0.1-0.8-0.4-1c-0.3-0.2-0.7-0.3-1.2-0.3h-0.9V506.2z"/><path class="st1" d="M545.2,511.2h-2v-4.1h-3.7v4.1h-2v-9.5h2v3.7h3.7v-3.7h2V511.2z"/><path class="st1" d="M554.1,504.7c0,1-0.3,1.8-1,2.3c-0.6,0.5-1.5,0.8-2.7,0.8h-0.9v3.4h-2v-9.5h3c1.1,0,2,0.2,2.6,0.7C553.8,503,554.1,503.7,554.1,504.7z M549.6,506.2h0.7c0.6,0,1.1-0.1,1.4-0.4c0.3-0.2,0.5-0.6,0.5-1.1c0-0.5-0.1-0.8-0.4-1c-0.3-0.2-0.7-0.3-1.2-0.3h-0.9V506.2z"/><path class="st1" d="M564.9,508.6c0,0.9-0.3,1.5-0.9,2c-0.6,0.5-1.5,0.7-2.6,0.7c-1,0-1.9-0.2-2.7-0.6v-1.9c0.6,0.3,1.2,0.5,1.6,0.6c0.4,0.1,0.8,0.2,1.2,0.2c0.4,0,0.8-0.1,1-0.3c0.2-0.2,0.4-0.4,0.4-0.8c0-0.2-0.1-0.3-0.2-0.5c-0.1-0.1-0.3-0.3-0.5-0.4c-0.2-0.1-0.6-0.3-1.2-0.6c-0.6-0.3-1-0.5-1.3-0.8c-0.3-0.3-0.5-0.5-0.7-0.9c-0.2-0.3-0.3-0.7-0.3-1.2c0-0.8,0.3-1.5,0.9-2c0.6-0.5,1.4-0.7,2.4-0.7c0.5,0,1,0.1,1.4,0.2c0.4,0.1,0.9,0.3,1.4,0.5l-0.6,1.6c-0.5-0.2-0.9-0.4-1.3-0.4c-0.3-0.1-0.7-0.1-1-0.1c-0.4,0-0.7,0.1-0.9,0.3c-0.2,0.2-0.3,0.4-0.3,0.7c0,0.2,0,0.3,0.1,0.5c0.1,0.1,0.2,0.3,0.4,0.4s0.6,0.3,1.3,0.7c0.9,0.4,1.5,0.8,1.8,1.3C564.8,507.4,564.9,508,564.9,508.6z"/><path class="st1" d="M569.8,511.3c-1.2,0-2.1-0.3-2.7-1c-0.7-0.6-1-1.6-1-2.7c0-1.2,0.3-2.1,0.9-2.8c0.6-0.7,1.4-1,2.5-1c1,0,1.8,0.3,2.4,0.9c0.6,0.6,0.9,1.4,0.9,2.4v1h-4.7c0,0.6,0.2,1,0.5,1.3c0.3,0.3,0.7,0.5,1.3,0.5c0.4,0,0.8,0,1.2-0.1c0.4-0.1,0.8-0.2,1.2-0.4v1.5c-0.3,0.2-0.7,0.3-1.1,0.4C570.8,511.3,570.3,511.3,569.8,511.3z M569.5,505.2c-0.4,0-0.7,0.1-1,0.4c-0.2,0.3-0.4,0.6-0.4,1.1h2.8c0-0.5-0.1-0.9-0.4-1.1C570.2,505.4,569.9,505.2,569.5,505.2z"/><path class="st1" d="M578.4,503.8c0.3,0,0.5,0,0.7,0.1l-0.1,1.8c-0.2,0-0.4-0.1-0.6-0.1c-0.6,0-1.1,0.2-1.5,0.5c-0.4,0.3-0.5,0.8-0.5,1.4v3.7h-2V504h1.5l0.3,1.2h0.1c0.2-0.4,0.5-0.7,0.9-1C577.5,504,577.9,503.8,578.4,503.8z"/><path class="st1" d="M582.1,511.2l-2.8-7.2h2.1l1.4,4.1c0.2,0.5,0.3,1,0.3,1.5h0c0-0.4,0.1-0.9,0.3-1.5l1.4-4.1h2.1l-2.8,7.2H582.1z"/><path class="st1" d="M591.1,511.3c-1.2,0-2.1-0.3-2.7-1c-0.7-0.6-1-1.6-1-2.7c0-1.2,0.3-2.1,0.9-2.8c0.6-0.7,1.4-1,2.5-1c1,0,1.8,0.3,2.4,0.9c0.6,0.6,0.9,1.4,0.9,2.4v1h-4.7c0,0.6,0.2,1,0.5,1.3c0.3,0.3,0.7,0.5,1.3,0.5c0.4,0,0.8,0,1.2-0.1c0.4-0.1,0.8-0.2,1.2-0.4v1.5c-0.3,0.2-0.7,0.3-1.1,0.4C592.2,511.3,591.7,511.3,591.1,511.3z M590.9,505.2c-0.4,0-0.7,0.1-1,0.4c-0.2,0.3-0.4,0.6-0.4,1.1h2.8c0-0.5-0.1-0.9-0.4-1.1C591.6,505.4,591.3,505.2,590.9,505.2z"/><path class="st1" d="M599.7,503.8c0.3,0,0.5,0,0.7,0.1l-0.1,1.8c-0.2,0-0.4-0.1-0.6-0.1c-0.6,0-1.1,0.2-1.5,0.5c-0.4,0.3-0.5,0.8-0.5,1.4v3.7h-2V504h1.5l0.3,1.2h0.1c0.2-0.4,0.5-0.7,0.9-1C598.9,504,599.3,503.8,599.7,503.8z"/></g><g><rect x="430.9" y="531.3" class="st4" width="272.4" height="209.3"/></g><g><path class="st9" d="M347.4,192.9h-4.3v-2.6h4.3V192.9z M338.8,192.9h-4.3v-2.6h4.3V192.9z M352.6,191.3h-2.6V187h2.6V191.3z M352.6,182.7h-2.6v-4.3h2.6V182.7z M352.6,174.1h-2.6v-4.3h2.6V174.1z M352.6,165.5h-2.6v-4.3h2.6V165.5z M352.6,157h-2.6v-4.3h2.6V157z M352.6,148.4h-2.6v-4.3h2.6V148.4z M352.6,139.8h-2.6v-4.3h2.6V139.8z M352.6,131.3h-2.6V127h2.6V131.3z M352.6,122.7h-2.6v-4.3h2.6V122.7z M352.6,114.1h-2.6v-4.3h2.6V114.1z M352.6,105.6h-2.6v-4.3h2.6V105.6z M352.6,97h-2.6v-4.3h2.6V97z M352.6,88.4h-2.6v-4.3h2.6V88.4z M352.6,79.8h-2.6v-4.3h2.6V79.8z M348.5,75.4h-4.3v-2.6h4.3V75.4z M340,75.4h-4.3v-2.6h4.3V75.4z"/></g><g><path class="st6" d="M851.5,280.6H764c-1.2,0-2.2-1-2.2-2.2V166.9c0-1.2,1-2.2,2.2-2.2h70.1c0.6,0,1.1,0.2,1.5,0.6c0.4,0.4,0.6,1,0.6,1.5l0,14.3l15.4,0.5c1.2,0,2.1,1,2.1,2.2v94.6C853.6,279.6,852.7,280.6,851.5,280.6z M766.1,276.3h83.2v-90.3l-15.4-0.5c-1.2,0-2.1-1-2.1-2.2l0-14.2h-65.8V276.3z"/></g><g><polygon class="st11" points="851.8,183.7 834.3,183.1 834.4,166.8 "/></g><g><path class="st11" d="M851.8,185.8C851.7,185.8,851.7,185.8,851.8,185.8l-17.5-0.6c-1.2,0-2.1-1-2.1-2.2l0-16.3c0-0.9,0.5-1.6,1.3-2c0.8-0.3,1.7-0.2,2.3,0.4l17.4,16.9c0.6,0.6,0.8,1.6,0.5,2.4C853.4,185.3,852.6,185.8,851.8,185.8z M836.5,181l9.8,0.3l-9.8-9.5L836.5,181z"/></g><g><path class="st11" d="M874.5,247.8h-53.8c-6.6,0-12-5.4-12-12v-12.6c0-6.6,5.4-12,12-12h53.8c6.6,0,12,5.4,12,12v12.6C886.5,242.4,881.1,247.8,874.5,247.8z"/></g><g><path class="st11" d="M880.7,249.8h-66.2c-4.3,0-7.7-3.6-7.7-8v-24.5c0-4.4,3.5-8,7.7-8h66.2c4.3,0,7.7,3.6,7.7,8v24.5C888.4,246.2,884.9,249.8,880.7,249.8z M814.5,213.2c-2.1,0-3.9,1.8-3.9,4v24.5c0,2.2,1.7,4,3.9,4h66.2c2.1,0,3.9-1.8,3.9-4v-24.5c0-2.2-1.7-4-3.9-4H814.5z"/></g><g><path class="st1" d="M834.6,224.4c-0.3-1.4-1.1-2.4-2.4-2.9c-0.7-0.3-1.5-0.5-2.3-0.5c-1.6,0-3,0.6-4,1.9c-1.1,1.2-1.6,3.1-1.6,5.6c0,2.5,0.6,4.3,1.7,5.3c1.1,1,2.4,1.6,3.9,1.6c1.4,0,2.6-0.4,3.5-1.2c0.9-0.8,1.5-1.9,1.7-3.2h-4.7v-3.4h8.5v10.9H836l-0.4-2.5c-0.8,1-1.6,1.6-2.2,2c-1.1,0.7-2.5,1-4.1,1c-2.7,0-4.9-0.9-6.6-2.8c-1.8-1.9-2.7-4.4-2.7-7.7c0-3.3,0.9-5.9,2.7-7.9c1.8-2,4.2-3,7.2-3c2.6,0,4.7,0.7,6.2,2c1.6,1.3,2.5,2.9,2.7,4.9H834.6z"/></g><g><path class="st1" d="M850.8,238.4h-4.2V218h4.2V238.4z"/></g><g><path class="st1" d="M858.7,218.1h14.5v3.6h-10.3v4.7h9v3.5h-9v8.5h-4.2V218.1z"/></g><g><path class="st6" d="M641,700.4h-87.5c-1.2,0-2.2-1-2.2-2.2V586.8c0-1.2,1-2.2,2.2-2.2h70.1c0.6,0,1.1,0.2,1.5,0.6c0.4,0.4,0.6,1,0.6,1.5l0,14.3l15.4,0.5c1.2,0,2.1,1,2.1,2.2v94.6C643.1,699.5,642.2,700.4,641,700.4z M555.6,696.1h83.2v-90.3l-15.4-0.5c-1.2,0-2.1-1-2.1-2.2l0-14.2h-65.8V696.1z"/></g><g><polygon class="st11" points="641.3,603.5 623.8,603 623.9,586.6 "/></g><g><path class="st11" d="M641.3,605.7C641.2,605.7,641.2,605.7,641.3,605.7l-17.5-0.6c-1.2,0-2.1-1-2.1-2.2l0-16.3c0-0.9,0.5-1.6,1.3-2c0.8-0.3,1.7-0.2,2.3,0.4l17.4,16.9c0.6,0.6,0.8,1.6,0.5,2.4C642.9,605.2,642.1,605.7,641.3,605.7z M626,600.9l9.8,0.3l-9.8-9.5L626,600.9z"/></g><g><path class="st6" d="M412.3,627.9v-4.6c0-0.6-0.1-1-0.4-1.3c-0.3-0.3-0.7-0.4-1.2-0.4c-0.7,0-1.3,0.2-1.6,0.6c-0.3,0.4-0.5,1.1-0.5,2v3.7h-1.1v-7.1h0.9l0.2,1h0.1c0.2-0.3,0.5-0.6,0.9-0.8c0.4-0.2,0.8-0.3,1.3-0.3c0.9,0,1.5,0.2,1.9,0.6c0.4,0.4,0.6,1.1,0.6,2v4.6H412.3z"/><path class="st6" d="M418.6,628c-1,0-1.9-0.3-2.5-1c-0.6-0.6-0.9-1.5-0.9-2.7c0-1.1,0.3-2,0.8-2.7c0.6-0.7,1.3-1,2.3-1c0.9,0,1.6,0.3,2.1,0.9c0.5,0.6,0.8,1.4,0.8,2.3v0.7h-4.9c0,0.8,0.2,1.5,0.6,1.9c0.4,0.4,1,0.6,1.7,0.6c0.8,0,1.5-0.2,2.3-0.5v1c-0.4,0.2-0.7,0.3-1.1,0.4C419.5,628,419.1,628,418.6,628z M418.3,621.6c-0.6,0-1,0.2-1.4,0.6c-0.3,0.4-0.5,0.9-0.6,1.5h3.7c0-0.7-0.2-1.2-0.5-1.6C419.3,621.7,418.9,621.6,418.3,621.6z"/><path class="st6" d="M428.8,627.9l-1.3-4.2c-0.1-0.3-0.2-0.8-0.5-1.7H427c-0.2,0.8-0.3,1.3-0.5,1.7l-1.3,4.1H424l-1.9-7.1h1.1c0.5,1.8,0.8,3.1,1,4.1c0.2,0.9,0.4,1.6,0.4,1.9h0.1c0-0.2,0.1-0.6,0.2-1c0.1-0.4,0.2-0.7,0.3-0.9l1.3-4.1h1.2l1.3,4.1c0.2,0.7,0.4,1.4,0.5,1.9h0.1c0-0.2,0.1-0.4,0.1-0.7c0.1-0.3,0.5-2.1,1.3-5.2h1.1l-2,7.1H428.8z"/><path class="st6" d="M441.6,626.9L441.6,626.9c-0.6,0.7-1.3,1.1-2.3,1.1c-0.9,0-1.6-0.3-2.2-1c-0.5-0.6-0.8-1.5-0.8-2.7c0-1.2,0.3-2.1,0.8-2.7c0.5-0.6,1.2-1,2.2-1c1,0,1.7,0.3,2.2,1h0.1l0-0.5l0-0.5v-2.9h1.1v10.1h-0.9L441.6,626.9z M439.5,627.1c0.7,0,1.3-0.2,1.6-0.6s0.5-1,0.5-1.9v-0.2c0-1-0.2-1.7-0.5-2.1c-0.3-0.4-0.9-0.6-1.6-0.6c-0.6,0-1.1,0.2-1.4,0.7c-0.3,0.5-0.5,1.2-0.5,2.1c0,0.9,0.2,1.6,0.5,2C438.3,626.9,438.8,627.1,439.5,627.1z"/><path class="st6" d="M449.3,627.9l-0.2-1H449c-0.4,0.4-0.7,0.7-1.1,0.9c-0.4,0.2-0.8,0.2-1.3,0.2c-0.7,0-1.3-0.2-1.7-0.5c-0.4-0.4-0.6-0.9-0.6-1.5c0-1.4,1.1-2.2,3.4-2.3l1.2,0v-0.4c0-0.6-0.1-1-0.4-1.2c-0.2-0.3-0.6-0.4-1.1-0.4c-0.6,0-1.3,0.2-2,0.5l-0.3-0.8c0.3-0.2,0.7-0.3,1.1-0.4c0.4-0.1,0.8-0.2,1.3-0.2c0.8,0,1.5,0.2,1.9,0.6c0.4,0.4,0.6,1,0.6,1.8v4.8H449.3z M446.8,627.1c0.7,0,1.2-0.2,1.6-0.5c0.4-0.4,0.6-0.9,0.6-1.5v-0.6l-1.1,0c-0.9,0-1.5,0.2-1.8,0.4c-0.4,0.2-0.6,0.6-0.6,1.1c0,0.4,0.1,0.7,0.4,0.9C446.1,627,446.4,627.1,446.8,627.1z"/><path class="st6" d="M454.5,627.1c0.2,0,0.4,0,0.5,0c0.2,0,0.3-0.1,0.4-0.1v0.8c-0.1,0.1-0.3,0.1-0.5,0.1c-0.2,0-0.4,0.1-0.6,0.1c-1.4,0-2.1-0.7-2.1-2.2v-4.2h-1v-0.5l1-0.4l0.5-1.5h0.6v1.6h2.1v0.8h-2.1v4.2c0,0.4,0.1,0.8,0.3,1S454.2,627.1,454.5,627.1z"/><path class="st6" d="M461.3,627.9l-0.2-1H461c-0.4,0.4-0.7,0.7-1.1,0.9c-0.4,0.2-0.8,0.2-1.3,0.2c-0.7,0-1.3-0.2-1.7-0.5c-0.4-0.4-0.6-0.9-0.6-1.5c0-1.4,1.1-2.2,3.4-2.3l1.2,0v-0.4c0-0.6-0.1-1-0.4-1.2c-0.2-0.3-0.6-0.4-1.1-0.4c-0.6,0-1.3,0.2-2,0.5l-0.3-0.8c0.3-0.2,0.7-0.3,1.1-0.4c0.4-0.1,0.8-0.2,1.3-0.2c0.8,0,1.5,0.2,1.9,0.6c0.4,0.4,0.6,1,0.6,1.8v4.8H461.3z M458.9,627.1c0.7,0,1.2-0.2,1.6-0.5c0.4-0.4,0.6-0.9,0.6-1.5v-0.6l-1.1,0c-0.9,0-1.5,0.2-1.8,0.4c-0.4,0.2-0.6,0.6-0.6,1.1c0,0.4,0.1,0.7,0.4,0.9C458.1,627,458.4,627.1,458.9,627.1z"/></g><g><path class="st6" d="M592.2,659.1l-20.3-13.7V645l20.3-12.9v2.3l-16.9,10.8l16.9,11.6V659.1z"/></g><g><path class="st6" d="M604.3,631.3l20.3,13.7v0.4l-20.3,12.9v-2.3l16.9-10.8l-16.9-11.6V631.3z"/></g><g><path class="st10" d="M667.6,676c0,0.5-0.3,0.6-0.7,0.3l-15.1-13.2c-0.4-0.3-0.3-0.8,0-1.1l16-12.2c0.4-0.3,0.7-0.1,0.7,0.3L667.6,676z"/></g><g><path class="st9" d="M667,858l0-2.6c1.4,0,2.8-0.1,4.2-0.1l0.1,2.6C669.9,857.9,668.5,858,667,858z M662.7,857.9c-1.4,0-2.9-0.1-4.3-0.2l0.2-2.6c1.4,0.1,2.8,0.2,4.2,0.2L662.7,857.9z M675.7,857.5l-0.2-2.6c1.4-0.1,2.8-0.3,4.2-0.5l0.4,2.5C678.6,857.2,677.1,857.4,675.7,857.5z M654,857.3c-1.4-0.2-2.9-0.4-4.3-0.6l0.4-2.5c1.4,0.2,2.8,0.4,4.2,0.6L654,857.3z M684.3,856.3l-0.5-2.5c1.4-0.3,2.8-0.5,4.1-0.9l0.6,2.5C687.1,855.8,685.7,856.1,684.3,856.3z M645.5,855.8c-1.4-0.3-2.8-0.6-4.2-1l0.6-2.5c1.4,0.4,2.7,0.7,4.1,1L645.5,855.8z M692.7,854.3l-0.7-2.5c1.3-0.4,2.7-0.8,4-1.2l0.8,2.4C695.5,853.5,694.1,854,692.7,854.3z M637.1,853.6c-1.4-0.4-2.8-0.9-4.1-1.4l0.9-2.4c1.3,0.5,2.7,0.9,4,1.3L637.1,853.6z M701,851.6l-0.9-2.4c1.3-0.5,2.6-1,3.9-1.6l1,2.4C703.7,850.6,702.3,851.1,701,851.6z M628.9,850.7c-1.3-0.5-2.7-1.1-4-1.7l1.1-2.3c1.3,0.6,2.6,1.2,3.9,1.7L628.9,850.7z M708.9,848.2l-1.1-2.3c1.3-0.6,2.5-1.3,3.8-1.9l1.2,2.3C711.5,846.9,710.2,847.6,708.9,848.2z M621,847.1c-1.3-0.7-2.6-1.4-3.8-2.1l1.3-2.2c1.2,0.7,2.5,1.4,3.7,2L621,847.1z M716.5,844.1l-1.3-2.2c1.2-0.7,2.4-1.5,3.6-2.2l1.4,2.1C719,842.6,717.8,843.3,716.5,844.1z M613.4,842.7c-1.2-0.8-2.4-1.6-3.6-2.4l1.5-2.1c1.1,0.8,2.3,1.6,3.5,2.3L613.4,842.7z M723.8,839.3l-1.5-2.1c1.1-0.8,2.3-1.7,3.4-2.6l1.6,2C726.1,837.6,724.9,838.5,723.8,839.3z M606.3,837.8c-1.1-0.9-2.3-1.8-3.4-2.7l1.7-2c1.1,0.9,2.2,1.8,3.3,2.6L606.3,837.8z M730.6,833.9l-1.7-1.9c1.1-0.9,2.1-1.9,3.1-2.8l1.8,1.9C732.7,832,731.7,833,730.6,833.9z M599.7,832.2c-1.1-1-2.1-2-3.1-3l1.8-1.8c1,1,2,2,3.1,2.9L599.7,832.2z M736.9,827.9l-1.9-1.8c1-1,2-2.1,2.9-3.1l1.9,1.7C738.9,825.8,737.9,826.9,736.9,827.9z M593.5,826c-1-1.1-1.9-2.2-2.9-3.3l2-1.7c0.9,1.1,1.8,2.1,2.8,3.2L593.5,826z M742.6,821.4l-2-1.6c0.9-1.1,1.8-2.2,2.6-3.3l2.1,1.5C744.4,819.2,743.5,820.3,742.6,821.4z M587.9,819.4c-0.9-1.1-1.7-2.3-2.6-3.5l2.1-1.5c0.8,1.2,1.6,2.3,2.5,3.4L587.9,819.4z M747.8,814.5l-2.1-1.4c0.8-1.2,1.6-2.4,2.3-3.6l2.2,1.3C749.4,812,748.6,813.3,747.8,814.5z M583,812.3c-0.8-1.2-1.5-2.5-2.2-3.7l2.2-1.3c0.7,1.2,1.4,2.4,2.2,3.6L583,812.3z M752.3,807l-2.3-1.2c0.7-1.2,1.3-2.5,2-3.8l2.3,1.1C753.7,804.5,753,805.8,752.3,807z M578.7,804.8c-0.7-1.3-1.3-2.6-1.9-3.9l2.3-1.1c0.6,1.3,1.2,2.5,1.9,3.8L578.7,804.8z M756.2,799.2l-2.4-1c0.6-1.3,1.1-2.6,1.6-3.9l2.4,0.9C757.3,796.6,756.8,797.9,756.2,799.2z M575,796.9c-0.5-1.3-1.1-2.7-1.6-4.1l2.4-0.9c0.5,1.3,1,2.6,1.5,3.9L575,796.9z M759.3,791.1l-2.4-0.8c0.5-1.3,0.9-2.7,1.3-4l2.5,0.7C760.2,788.4,759.8,789.8,759.3,791.1z M572.1,788.7c-0.4-1.4-0.8-2.8-1.2-4.2l2.5-0.7c0.4,1.4,0.7,2.7,1.2,4.1L572.1,788.7z M761.7,782.8l-2.5-0.6c0.3-1.4,0.6-2.7,0.9-4.1l2.5,0.5C762.4,780,762.1,781.4,761.7,782.8z M569.9,780.4c-0.3-1.4-0.6-2.8-0.8-4.3l2.5-0.4c0.2,1.4,0.5,2.8,0.8,4.2L569.9,780.4z M763.4,774.3l-2.5-0.4c0.2-1.4,0.4-2.8,0.5-4.2l2.6,0.3C763.8,771.4,763.6,772.9,763.4,774.3z M568.4,771.8c-0.2-1.4-0.3-2.9-0.4-4.3l2.6-0.2c0.1,1.4,0.3,2.8,0.4,4.2L568.4,771.8z M764.3,765.6l-2.6-0.2c0.1-1.4,0.1-2.8,0.2-4.2l2.6,0C764.4,762.8,764.4,764.2,764.3,765.6z M567.8,763.1c0-1.2-0.1-2.4-0.1-3.5l0-0.8l2.6,0l0,0.8c0,1.1,0,2.3,0.1,3.5L567.8,763.1z M761.9,757c0-1.4-0.1-2.8-0.2-4.2l2.6-0.2c0.1,1.4,0.2,2.9,0.2,4.3L761.9,757z M570.4,754.6l-2.6-0.1c0.1-1.4,0.2-2.9,0.3-4.3l2.6,0.2C570.6,751.8,570.5,753.2,570.4,754.6z M761.3,748.6c-0.2-1.4-0.4-2.8-0.6-4.2l2.5-0.4c0.2,1.4,0.4,2.9,0.6,4.3L761.3,748.6z M571.2,746.2l-2.5-0.4c0.2-1.4,0.4-2.9,0.7-4.3l2.5,0.5C571.6,743.4,571.4,744.8,571.2,746.2z M760,740.3c-0.3-1.4-0.6-2.8-0.9-4.1l2.5-0.6c0.4,1.4,0.7,2.8,1,4.2L760,740.3z M572.7,737.9l-2.5-0.6c0.3-1.4,0.7-2.8,1.1-4.2l2.5,0.7C573.4,735.1,573.1,736.5,572.7,737.9z M757.9,732.1c-0.4-1.3-0.8-2.7-1.3-4l2.4-0.8c0.5,1.4,0.9,2.8,1.3,4.1L757.9,732.1z M575,729.7l-2.4-0.8c0.4-1.4,0.9-2.7,1.4-4.1l2.4,0.9C575.9,727,575.5,728.4,575,729.7z M755.1,724.1c-0.5-1.3-1.1-2.6-1.7-3.9l2.3-1.1c0.6,1.3,1.2,2.6,1.7,4L755.1,724.1z M578,721.8l-2.4-1c0.4-1,0.8-1.9,1.3-2.8l2.3,1.1C578.8,720,578.4,720.9,578,721.8z M751.6,716.4c-0.6-1.2-1.3-2.5-2-3.7l2.2-1.3c0.7,1.3,1.4,2.5,2,3.8L751.6,716.4z M747.5,709c-0.7-1.2-1.5-2.4-2.3-3.5l2.1-1.5c0.8,1.2,1.6,2.4,2.4,3.6L747.5,709z M742.7,702.1c-0.8-1.1-1.7-2.2-2.6-3.3l2-1.6c0.9,1.1,1.8,2.3,2.7,3.4L742.7,702.1z M737.4,695.5c-0.9-1-1.9-2.1-2.9-3.1l1.8-1.8c1,1,2,2.1,3,3.2L737.4,695.5z M731.4,689.5c-1-1-2.1-1.9-3.2-2.8l1.7-2c1.1,0.9,2.2,1.9,3.2,2.9L731.4,689.5z M725,684c-1.1-0.9-2.2-1.7-3.4-2.5l1.5-2.1c1.2,0.8,2.4,1.7,3.5,2.6L725,684z M718.1,679.1c-1.2-0.8-2.4-1.5-3.6-2.2l1.3-2.2c1.2,0.7,2.5,1.5,3.7,2.3L718.1,679.1z M710.8,674.8c-1.2-0.7-2.5-1.3-3.8-1.9l1.1-2.3c1.3,0.6,2.6,1.3,3.9,1.9L710.8,674.8z M703.2,671.2c-1.3-0.5-2.6-1.1-3.9-1.6l0.9-2.4c1.4,0.5,2.7,1,4,1.6L703.2,671.2z M695.2,668.3c-1.3-0.4-2.7-0.8-4.1-1.2l0.7-2.5c1.4,0.4,2.8,0.8,4.2,1.2L695.2,668.3z M687.1,666.1c-1.4-0.3-2.8-0.6-4.1-0.8l0.4-2.5c1.4,0.3,2.9,0.5,4.3,0.9L687.1,666.1z M678.7,664.6c-1.4-0.2-2.8-0.3-4.2-0.5l0.2-2.6c1.4,0.1,2.9,0.3,4.3,0.5L678.7,664.6z M670.3,663.9c-1.4-0.1-2.8-0.1-4.2-0.1v-2.6c1.4,0,2.9,0,4.3,0.1L670.3,663.9z"/></g><g><circle class="st10" cx="578.1" cy="718.5" r="4.4"/></g><g><path class="st6" d="M311.1,617.9c1.5,0.2,2.9,0.4,4.3,0.7c8.5,2,14.3,9.7,14,18.7c-0.2,8.4-6.7,15.7-15.1,17.2c-1,0.2-2.1,0.3-3.1,0.3c-23.3,0-46.6,0-69.9,0c-7.4,0-13.1-5.9-12.9-13.3c0.2-6.7,5.8-12.3,12.5-12.3c1.2,0,1.6-0.3,2-1.4c2.9-7.6,10.1-12.6,18.3-12.6c0.8,0,1.1-0.3,1.3-1.1c2.7-11.8,13.7-19.8,25.7-18.9c11.6,0.8,21.7,10.1,22.8,22.4C311,617.7,311.1,617.8,311.1,617.9z"/></g><g><path class="st1" d="M266.3,623.5h3.8l5.6,15.9h-3.6l-1.1-3.3h-5.9l-1.1,3.3h-3.5L266.3,623.5z M266.1,633.4h4.1l-2-6.3L266.1,633.4z"/><path class="st1" d="M290.6,632.5c-0.9,0.8-2.3,1.2-4,1.2h-3.3v5.7H280v-15.9h6.8c1.6,0,2.8,0.4,3.8,1.2c0.9,0.8,1.4,2.1,1.4,3.8C292,630.4,291.6,631.7,290.6,632.5z M288.1,626.7c-0.4-0.4-1-0.5-1.8-0.5h-3v4.7h3c0.8,0,1.3-0.2,1.8-0.6c0.4-0.4,0.6-1,0.6-1.8C288.7,627.7,288.5,627.1,288.1,626.7z"/><path class="st1" d="M299.9,639.4h-3.3v-15.9h3.3V639.4z"/></g><g><path class="st6" d="M690.5,777.6c0-0.4-0.1-0.7-0.4-1.2c-0.5-0.7-1.2-1-2.1-1c-1.4,0-2.4,0.8-3,2.3c-0.3,0.9-0.5,2.1-0.7,3.8c0.5-0.6,1.1-1.1,1.9-1.4c0.7-0.3,1.5-0.4,2.4-0.4c1.9,0,3.5,0.7,4.8,2c1.2,1.3,1.9,3,1.9,5c0,2-0.6,3.8-1.8,5.4c-1.2,1.6-3.1,2.3-5.7,2.3c-2.7,0-4.8-1.1-6.1-3.4c-1-1.8-1.5-4.1-1.5-7c0-1.7,0.1-3,0.2-4.1c0.3-1.9,0.7-3.4,1.5-4.6c0.6-1.1,1.4-1.9,2.4-2.5c1-0.6,2.2-1,3.6-1c2,0,3.6,0.5,4.8,1.6c1.2,1,1.9,2.4,2,4.1H690.5z M685.4,789.9c0.6,0.7,1.4,1.1,2.4,1.1c1,0,1.7-0.4,2.2-1.1s0.8-1.6,0.8-2.8c0-1.3-0.3-2.2-0.9-2.9c-0.6-0.7-1.4-1-2.3-1c-0.7,0-1.4,0.2-1.9,0.7c-0.8,0.7-1.3,1.7-1.3,3.2C684.5,788.2,684.8,789.2,685.4,789.9z"/><path class="st6" d="M711.3,774.9c1.1,2,1.7,4.7,1.7,8.3c0,3.6-0.6,6.4-1.7,8.3c-1.1,1.9-3.1,2.9-5.8,2.9s-4.7-1-5.8-2.9c-1.1-1.9-1.7-4.7-1.7-8.3c0-3.6,0.6-6.4,1.7-8.3c1.1-2,3.1-2.9,5.8-2.9S710.2,773,711.3,774.9z M702.9,789c0.4,1.3,1.3,2,2.5,2s2.1-0.7,2.5-2c0.4-1.3,0.6-3.2,0.6-5.8c0-2.6-0.2-4.6-0.6-5.8c-0.4-1.3-1.2-1.9-2.5-1.9s-2.1,0.6-2.5,1.9c-0.4,1.3-0.6,3.2-0.6,5.8C702.3,785.8,702.5,787.7,702.9,789z"/><path class="st6" d="M717.5,790.7c0.1,0.5,0.2,0.8,0.4,1c0.3,0.4,1,0.5,1.9,0.5c0.5,0,1-0.1,1.3-0.2c0.3-0.2,0.5-0.4,0.5-0.7c0-0.3-0.1-0.5-0.4-0.7c-0.3-0.2-1.2-0.4-2.8-0.8c-1.2-0.3-2-0.7-2.5-1.1c-0.5-0.4-0.7-1-0.7-1.9c0-1,0.4-1.8,1.1-2.5c0.8-0.7,1.8-1,3.2-1c1.3,0,2.3,0.3,3.2,0.8c0.8,0.5,1.3,1.4,1.4,2.7h-2.7c0-0.3-0.1-0.6-0.3-0.8c-0.3-0.4-0.8-0.5-1.5-0.5c-0.6,0-1,0.1-1.3,0.3c-0.3,0.2-0.4,0.4-0.4,0.6c0,0.3,0.1,0.5,0.4,0.7c0.3,0.1,1.2,0.4,2.8,0.7c1.1,0.3,1.9,0.6,2.4,1.1c0.5,0.5,0.8,1.2,0.8,1.9c0,1-0.4,1.9-1.1,2.5c-0.8,0.6-1.9,1-3.5,1c-1.6,0-2.8-0.3-3.6-1c-0.8-0.7-1.2-1.6-1.2-2.6H717.5z"/></g><g><g><g><circle class="st6" cx="657.6" cy="783.5" r="17.1"/></g></g><g><g><polyline class="st6" points="655.3,772.7 655.3,784 665,791.7 "/></g><g><path class="st4" d="M665,792.8c-0.2,0-0.5-0.1-0.7-0.2l-9.6-7.7c-0.3-0.2-0.4-0.5-0.4-0.9v-11.3c0-0.6,0.5-1.1,1.1-1.1s1.1,0.5,1.1,1.1v10.8l9.2,7.4c0.5,0.4,0.6,1.1,0.2,1.5C665.6,792.7,665.3,792.8,665,792.8z"/></g></g></g><g><path class="st6" d="M562.6,566.4v0.7l-1.3,0.2c0.1,0.2,0.2,0.3,0.3,0.6c0.1,0.2,0.1,0.5,0.1,0.8c0,0.7-0.2,1.2-0.7,1.7c-0.5,0.4-1.1,0.6-2,0.6c-0.2,0-0.4,0-0.6-0.1c-0.5,0.2-0.7,0.5-0.7,0.9c0,0.2,0.1,0.3,0.2,0.4c0.2,0.1,0.4,0.1,0.8,0.1h1.3c0.8,0,1.4,0.2,1.8,0.5c0.4,0.3,0.6,0.8,0.6,1.4c0,0.8-0.3,1.4-0.9,1.8s-1.5,0.6-2.8,0.6c-0.9,0-1.6-0.2-2.1-0.5c-0.5-0.3-0.8-0.8-0.8-1.5c0-0.4,0.1-0.8,0.4-1.1c0.3-0.3,0.7-0.5,1.2-0.6c-0.2-0.1-0.3-0.2-0.5-0.4c-0.1-0.2-0.2-0.4-0.2-0.6c0-0.3,0.1-0.5,0.2-0.7c0.1-0.2,0.4-0.4,0.7-0.6c-0.4-0.2-0.7-0.4-0.9-0.8c-0.2-0.4-0.3-0.8-0.3-1.2c0-0.8,0.2-1.4,0.7-1.8c0.5-0.4,1.1-0.6,2-0.6c0.4,0,0.7,0,1,0.1H562.6z M556.9,574.7c0,0.4,0.2,0.7,0.5,0.9c0.3,0.2,0.8,0.3,1.4,0.3c0.9,0,1.6-0.1,2-0.4c0.4-0.3,0.7-0.6,0.7-1.1c0-0.4-0.1-0.7-0.4-0.8c-0.2-0.1-0.7-0.2-1.3-0.2h-1.3c-0.5,0-0.9,0.1-1.1,0.3C557.1,573.9,556.9,574.2,556.9,574.7z M557.5,568.7c0,0.5,0.1,0.9,0.4,1.1c0.3,0.3,0.7,0.4,1.2,0.4c1,0,1.6-0.5,1.6-1.5c0-1.1-0.5-1.6-1.6-1.6c-0.5,0-0.9,0.1-1.2,0.4C557.6,567.7,557.5,568.1,557.5,568.7z"/><path class="st6" d="M563.9,564.5c0-0.2,0.1-0.4,0.2-0.5c0.1-0.1,0.3-0.2,0.5-0.2c0.2,0,0.3,0.1,0.4,0.2c0.1,0.1,0.2,0.3,0.2,0.5c0,0.2-0.1,0.4-0.2,0.5c-0.1,0.1-0.3,0.2-0.4,0.2c-0.2,0-0.3-0.1-0.5-0.2C564,564.9,563.9,564.7,563.9,564.5z M565.1,573.5H564v-7.1h1.1V573.5z"/><path class="st6" d="M570.6,567.2h-1.8v6.3h-1.1v-6.3h-1.3v-0.5l1.3-0.4V566c0-1.7,0.8-2.6,2.3-2.6c0.4,0,0.8,0.1,1.3,0.2l-0.3,0.9c-0.4-0.1-0.8-0.2-1.1-0.2c-0.4,0-0.7,0.1-0.9,0.4c-0.2,0.3-0.3,0.7-0.3,1.3v0.5h1.8V567.2z"/><path class="st6" d="M571.3,570.4v-1h3.2v1H571.3z"/><path class="st6" d="M581.9,566.4v0.7l-1.3,0.2c0.1,0.2,0.2,0.3,0.3,0.6c0.1,0.2,0.1,0.5,0.1,0.8c0,0.7-0.2,1.2-0.7,1.7c-0.5,0.4-1.1,0.6-2,0.6c-0.2,0-0.4,0-0.6-0.1c-0.5,0.2-0.7,0.5-0.7,0.9c0,0.2,0.1,0.3,0.2,0.4c0.2,0.1,0.4,0.1,0.8,0.1h1.3c0.8,0,1.4,0.2,1.8,0.5c0.4,0.3,0.6,0.8,0.6,1.4c0,0.8-0.3,1.4-0.9,1.8s-1.5,0.6-2.8,0.6c-0.9,0-1.6-0.2-2.1-0.5c-0.5-0.3-0.8-0.8-0.8-1.5c0-0.4,0.1-0.8,0.4-1.1c0.3-0.3,0.7-0.5,1.2-0.6c-0.2-0.1-0.3-0.2-0.5-0.4c-0.1-0.2-0.2-0.4-0.2-0.6c0-0.3,0.1-0.5,0.2-0.7c0.1-0.2,0.4-0.4,0.7-0.6c-0.4-0.2-0.7-0.4-0.9-0.8c-0.2-0.4-0.3-0.8-0.3-1.2c0-0.8,0.2-1.4,0.7-1.8c0.5-0.4,1.1-0.6,2-0.6c0.4,0,0.7,0,1,0.1H581.9z M576.3,574.7c0,0.4,0.2,0.7,0.5,0.9c0.3,0.2,0.8,0.3,1.4,0.3c0.9,0,1.6-0.1,2-0.4c0.4-0.3,0.7-0.6,0.7-1.1c0-0.4-0.1-0.7-0.4-0.8c-0.2-0.1-0.7-0.2-1.3-0.2h-1.3c-0.5,0-0.9,0.1-1.1,0.3C576.4,573.9,576.3,574.2,576.3,574.7z M576.9,568.7c0,0.5,0.1,0.9,0.4,1.1c0.3,0.3,0.7,0.4,1.2,0.4c1,0,1.6-0.5,1.6-1.5c0-1.1-0.5-1.6-1.6-1.6c-0.5,0-0.9,0.1-1.2,0.4C577,567.7,576.9,568.1,576.9,568.7z"/><path class="st6" d="M586.4,573.6c-1,0-1.9-0.3-2.5-1c-0.6-0.6-0.9-1.5-0.9-2.7c0-1.1,0.3-2,0.8-2.7c0.6-0.7,1.3-1,2.3-1c0.9,0,1.6,0.3,2.1,0.9c0.5,0.6,0.8,1.4,0.8,2.3v0.7h-4.9c0,0.8,0.2,1.5,0.6,1.9c0.4,0.4,1,0.6,1.7,0.6c0.8,0,1.5-0.2,2.3-0.5v1c-0.4,0.2-0.7,0.3-1.1,0.4C587.3,573.6,586.9,573.6,586.4,573.6z M586.1,567.2c-0.6,0-1,0.2-1.4,0.6c-0.3,0.4-0.5,0.9-0.6,1.5h3.7c0-0.7-0.2-1.2-0.5-1.6C587.1,567.3,586.7,567.2,586.1,567.2z"/><path class="st6" d="M595.7,573.5v-4.6c0-0.6-0.1-1-0.4-1.3c-0.3-0.3-0.7-0.4-1.2-0.4c-0.7,0-1.3,0.2-1.6,0.6s-0.5,1.1-0.5,2v3.7h-1.1v-7.1h0.9l0.2,1h0.1c0.2-0.3,0.5-0.6,0.9-0.8c0.4-0.2,0.8-0.3,1.3-0.3c0.9,0,1.5,0.2,1.9,0.6c0.4,0.4,0.6,1.1,0.6,2v4.6H595.7z"/><path class="st6" d="M601.9,573.6c-1,0-1.9-0.3-2.5-1c-0.6-0.6-0.9-1.5-0.9-2.7c0-1.1,0.3-2,0.8-2.7c0.6-0.7,1.3-1,2.3-1c0.9,0,1.6,0.3,2.1,0.9c0.5,0.6,0.8,1.4,0.8,2.3v0.7h-4.9c0,0.8,0.2,1.5,0.6,1.9c0.4,0.4,1,0.6,1.7,0.6c0.8,0,1.5-0.2,2.3-0.5v1c-0.4,0.2-0.7,0.3-1.1,0.4C602.8,573.6,602.4,573.6,601.9,573.6z M601.6,567.2c-0.6,0-1,0.2-1.4,0.6c-0.3,0.4-0.5,0.9-0.6,1.5h3.7c0-0.7-0.2-1.2-0.5-1.6C602.6,567.3,602.2,567.2,601.6,567.2z"/><path class="st6" d="M609.6,566.3c0.3,0,0.6,0,0.8,0.1l-0.1,1c-0.3-0.1-0.6-0.1-0.8-0.1c-0.6,0-1.1,0.2-1.5,0.7s-0.6,1-0.6,1.7v3.8h-1.1v-7.1h0.9l0.1,1.3h0.1c0.3-0.5,0.6-0.8,1-1.1C608.8,566.4,609.2,566.3,609.6,566.3z"/><path class="st6" d="M616.1,573.5l-0.2-1h-0.1c-0.4,0.4-0.7,0.7-1.1,0.9c-0.4,0.2-0.8,0.2-1.3,0.2c-0.7,0-1.3-0.2-1.7-0.5c-0.4-0.4-0.6-0.9-0.6-1.5c0-1.4,1.1-2.2,3.4-2.3l1.2,0v-0.4c0-0.6-0.1-1-0.4-1.2s-0.6-0.4-1.1-0.4c-0.6,0-1.3,0.2-2,0.5l-0.3-0.8c0.3-0.2,0.7-0.3,1.1-0.4s0.8-0.2,1.3-0.2c0.8,0,1.5,0.2,1.9,0.6c0.4,0.4,0.6,1,0.6,1.8v4.8H616.1z M613.7,572.7c0.7,0,1.2-0.2,1.6-0.5c0.4-0.4,0.6-0.9,0.6-1.5V570l-1.1,0c-0.9,0-1.5,0.2-1.8,0.4c-0.4,0.2-0.6,0.6-0.6,1.1c0,0.4,0.1,0.7,0.4,0.9C613,572.6,613.3,572.7,613.7,572.7z"/><path class="st6" d="M621.4,572.7c0.2,0,0.4,0,0.5,0c0.2,0,0.3-0.1,0.4-0.1v0.8c-0.1,0.1-0.3,0.1-0.5,0.1c-0.2,0-0.4,0.1-0.6,0.1c-1.4,0-2.1-0.7-2.1-2.2v-4.2h-1v-0.5l1-0.4l0.5-1.5h0.6v1.6h2.1v0.8h-2.1v4.2c0,0.4,0.1,0.8,0.3,1S621.1,572.7,621.4,572.7z"/><path class="st6" d="M629.9,569.9c0,1.2-0.3,2.1-0.9,2.7c-0.6,0.6-1.4,1-2.4,1c-0.6,0-1.2-0.1-1.7-0.4c-0.5-0.3-0.9-0.7-1.1-1.3c-0.3-0.6-0.4-1.2-0.4-2c0-1.2,0.3-2.1,0.9-2.7c0.6-0.6,1.4-1,2.4-1c1,0,1.8,0.3,2.4,1C629.6,567.9,629.9,568.8,629.9,569.9z M624.5,569.9c0,0.9,0.2,1.6,0.5,2.1c0.4,0.5,0.9,0.7,1.6,0.7c0.7,0,1.2-0.2,1.6-0.7c0.4-0.5,0.5-1.2,0.5-2.1c0-0.9-0.2-1.6-0.5-2.1c-0.4-0.5-0.9-0.7-1.6-0.7c-0.7,0-1.2,0.2-1.6,0.7C624.7,568.3,624.5,569,624.5,569.9z"/><path class="st6" d="M635.1,566.3c0.3,0,0.6,0,0.8,0.1l-0.1,1c-0.3-0.1-0.6-0.1-0.8-0.1c-0.6,0-1.1,0.2-1.5,0.7s-0.6,1-0.6,1.7v3.8h-1.1v-7.1h0.9l0.1,1.3h0.1c0.3-0.5,0.6-0.8,1-1.1C634.2,566.4,634.6,566.3,635.1,566.3z"/><path class="st6" d="M637.1,572.8c0-0.3,0.1-0.5,0.2-0.7c0.1-0.1,0.3-0.2,0.6-0.2c0.2,0,0.4,0.1,0.6,0.2c0.1,0.1,0.2,0.4,0.2,0.7c0,0.3-0.1,0.5-0.2,0.6c-0.1,0.2-0.3,0.2-0.6,0.2c-0.2,0-0.4-0.1-0.5-0.2C637.1,573.3,637.1,573.1,637.1,572.8z"/><path class="st6" d="M644,573.6c-0.5,0-0.9-0.1-1.3-0.3c-0.4-0.2-0.7-0.4-1-0.8h-0.1c0.1,0.4,0.1,0.8,0.1,1.2v2.9h-1.1v-10.3h0.9l0.1,1h0.1c0.3-0.4,0.6-0.7,1-0.8s0.8-0.3,1.3-0.3c0.9,0,1.7,0.3,2.2,1c0.5,0.6,0.8,1.5,0.8,2.7c0,1.2-0.3,2.1-0.8,2.7C645.7,573.3,645,573.6,644,573.6z M643.9,567.2c-0.7,0-1.2,0.2-1.6,0.6c-0.3,0.4-0.5,1-0.5,1.9v0.2c0,1,0.2,1.7,0.5,2.1c0.3,0.4,0.9,0.6,1.6,0.6c0.6,0,1.1-0.2,1.4-0.7c0.3-0.5,0.5-1.2,0.5-2c0-0.9-0.2-1.6-0.5-2C645,567.4,644.5,567.2,643.9,567.2z"/><path class="st6" d="M653.7,573.5v-4.6c0-0.6-0.1-1-0.4-1.3c-0.3-0.3-0.7-0.4-1.2-0.4c-0.7,0-1.3,0.2-1.6,0.6c-0.3,0.4-0.5,1.1-0.5,2v3.7h-1.1v-10.1h1.1v3c0,0.4,0,0.7-0.1,0.9h0.1c0.2-0.3,0.5-0.6,0.9-0.8c0.4-0.2,0.8-0.3,1.3-0.3c0.9,0,1.5,0.2,1.9,0.6c0.4,0.4,0.7,1.1,0.7,2v4.6H653.7z"/><path class="st6" d="M660.3,573.6c-0.5,0-0.9-0.1-1.3-0.3c-0.4-0.2-0.7-0.4-1-0.8H658c0.1,0.4,0.1,0.8,0.1,1.2v2.9H657v-10.3h0.9l0.1,1h0.1c0.3-0.4,0.6-0.7,1-0.8s0.8-0.3,1.3-0.3c0.9,0,1.7,0.3,2.2,1c0.5,0.6,0.8,1.5,0.8,2.7c0,1.2-0.3,2.1-0.8,2.7C661.9,573.3,661.2,573.6,660.3,573.6z M660.1,567.2c-0.7,0-1.2,0.2-1.6,0.6c-0.3,0.4-0.5,1-0.5,1.9v0.2c0,1,0.2,1.7,0.5,2.1c0.3,0.4,0.9,0.6,1.6,0.6c0.6,0,1.1-0.2,1.4-0.7c0.3-0.5,0.5-1.2,0.5-2c0-0.9-0.2-1.6-0.5-2C661.3,567.4,660.8,567.2,660.1,567.2z"/></g><g><path class="st9" d="M527.9,637.2H350.3c-0.7,0-1.3-0.6-1.3-1.3c0-0.7,0.6-1.3,1.3-1.3h177.6c0.7,0,1.3,0.6,1.3,1.3C529.2,636.6,528.7,637.2,527.9,637.2z"/></g><g><circle class="st10" cx="352" cy="636.3" r="5.5"/></g><g><path class="st10" d="M518.5,648.7c0,0.5,0.3,0.6,0.7,0.3l15-12.3c0.4-0.3,0.4-0.8,0-1.1L519,623.5c-0.4-0.3-0.7-0.2-0.7,0.3L518.5,648.7z"/></g></svg>