<?xml version="1.0" encoding="UTF-8" standalone="no"?>
<svg width="1244px" height="579px" viewBox="0 0 1244 579" version="1.1" xmlns="http://www.w3.org/2000/svg" xmlns:xlink="http://www.w3.org/1999/xlink">
    <!-- Generator: Sketch 39 (31667) - http://www.bohemiancoding.com/sketch -->
    <title>emails-2</title>
    <desc>Created with Sketch.</desc>
    <defs></defs>
    <g id="Page-1" stroke="none" stroke-width="1" fill="none" fill-rule="evenodd">
        <g id="emails-2">
            <path d="M267.8,392.4 L3.5,392.4 C1.7,392.4 0.3,391 0.3,389.2 L0.3,4.1 C0.3,2.3 1.7,0.9 3.5,0.9 L267.8,0.9 C269.6,0.9 271,2.3 271,4.1 L271,389.2 C271,391 269.6,392.4 267.8,392.4 L267.8,392.4 Z" id="Shape" fill="#6FBE44"></path>
            <g id="Group" transform="translate(98.000000, 31.000000)" fill="#FFFFFF">
                <polygon id="Shape" points="8 10.4 6 10.4 6 6.3 2.3 6.3 2.3 10.4 0.3 10.4 0.3 0.9 2.3 0.9 2.3 4.6 6 4.6 6 0.9 8 0.9"></polygon>
                <polygon id="Shape" points="14 10.4 12 10.4 12 2.6 9.4 2.6 9.4 0.9 16.5 0.9 16.5 2.6 14 2.6"></polygon>
                <path d="M22,10.4 L19.7,3 L19.6,3 C19.7,4.5 19.7,5.5 19.7,6 L19.7,10.4 L18,10.4 L18,0.9 L20.7,0.9 L22.9,8.1 L22.9,8.1 L25.3,0.9 L28,0.9 L28,10.4 L26.1,10.4 L26.1,5.9 L26.1,5.2 C26.1,4.9 26.1,4.2 26.2,3 L26.1,3 L23.7,10.4 L22,10.4 L22,10.4 Z" id="Shape"></path>
                <polygon id="Shape" points="30.5 10.4 30.5 0.9 32.5 0.9 32.5 8.7 36.3 8.7 36.3 10.4"></polygon>
                <polygon id="Shape" points="46.9 10.4 41.5 10.4 41.5 0.9 46.9 0.9 46.9 2.5 43.5 2.5 43.5 4.6 46.7 4.6 46.7 6.2 43.5 6.2 43.5 8.6 46.9 8.6"></polygon>
                <path d="M55.2,10.4 L53.2,10.4 L53.2,6.2 C53.2,5.7 53.1,5.3 52.9,5 C52.7,4.7 52.5,4.6 52.1,4.6 C51.6,4.6 51.2,4.8 51,5.2 C50.8,5.6 50.7,6.2 50.7,7 L50.7,10.4 L48.7,10.4 L48.7,3.2 L50.2,3.2 L50.5,4.1 L50.6,4.1 C50.8,3.8 51.1,3.5 51.4,3.3 C51.7,3.1 52.2,3 52.7,3 C53.8,3 54.5,3.4 54.9,4.1 L55.1,4.1 C55.3,3.8 55.6,3.5 56,3.3 C56.4,3.1 56.8,3 57.3,3 C58.1,3 58.7,3.2 59.2,3.6 C59.6,4 59.8,4.7 59.8,5.6 L59.8,10.3 L57.8,10.3 L57.8,6.1 C57.8,5.6 57.7,5.2 57.5,4.9 C57.3,4.6 57.1,4.5 56.7,4.5 C56.2,4.5 55.9,4.7 55.6,5 C55.4,5.3 55.2,5.9 55.2,6.6 L55.2,10.4 L55.2,10.4 Z" id="Shape"></path>
                <path d="M66.3,10.4 L65.9,9.4 L65.8,9.4 C65.5,9.8 65.1,10.1 64.8,10.3 C64.4,10.5 64,10.5 63.4,10.5 C62.7,10.5 62.2,10.3 61.8,9.9 C61.4,9.5 61.2,8.9 61.2,8.2 C61.2,7.4 61.5,6.9 62,6.5 C62.5,6.1 63.3,5.9 64.4,5.9 L65.7,5.9 L65.7,5.6 C65.7,4.9 65.3,4.5 64.6,4.5 C64,4.5 63.3,4.7 62.6,5 L61.9,3.7 C62.7,3.3 63.7,3 64.7,3 C65.7,3 66.4,3.2 66.9,3.6 C67.4,4 67.7,4.7 67.7,5.5 L67.7,10.3 L66.3,10.3 L66.3,10.4 Z M65.7,7 L64.9,7 C64.3,7 63.9,7.1 63.6,7.3 C63.3,7.5 63.2,7.8 63.2,8.2 C63.2,8.8 63.5,9 64.2,9 C64.7,9 65,8.9 65.3,8.6 C65.6,8.3 65.7,8 65.7,7.6 L65.7,7 L65.7,7 Z" id="Shape"></path>
                <path d="M69.6,1.3 C69.6,0.7 70,0.3 70.7,0.3 C71.4,0.3 71.8,0.6 71.8,1.3 C71.8,1.6 71.7,1.8 71.5,2 C71.3,2.2 71.1,2.3 70.7,2.3 C70,2.2 69.6,1.9 69.6,1.3 L69.6,1.3 Z M71.7,10.4 L69.7,10.4 L69.7,3.2 L71.7,3.2 L71.7,10.4 L71.7,10.4 Z" id="Shape"></path>
                <polygon id="Shape" points="75.7 10.4 73.7 10.4 73.7 0.3 75.7 0.3"></polygon>
            </g>
            <path d="M83.4,121.8 L39.4,121.8 C37.6,121.8 36.2,120.4 36.2,118.6 L36.2,85.9 C36.2,84.1 37.6,82.7 39.4,82.7 L83.3,82.7 C85.1,82.7 86.5,84.1 86.5,85.9 L86.5,118.7 C86.5,120.4 85.1,121.8 83.4,121.8 L83.4,121.8 Z" id="Shape" fill="#E2E2E2"></path>
            <rect id="Rectangle-path" fill="#3D3D3D" x="0" y="65.5" width="272.4" height="117.5"></rect>
            <rect id="Rectangle-path" fill="#F4F2F1" x="0" y="183.1" width="272.4" height="209.3"></rect>
            <g id="Group" opacity="0.41" transform="translate(56.000000, 214.000000)" fill="#BFBFC1">
                <rect id="Rectangle-path" x="0.2" y="0.1" width="75.3" height="6.5"></rect>
            </g>
            <g id="Group" opacity="0.17" transform="translate(56.000000, 227.000000)" fill="#BFBFC1">
                <rect id="Rectangle-path" x="0.2" y="0.9" width="75.3" height="6.5"></rect>
            </g>
            <circle id="Oval" fill="#FFFFFF" cx="34.1" cy="225.6" r="13.8"></circle>
            <g id="Group" opacity="0.41" transform="translate(185.000000, 214.000000)" fill="#BFBFC1">
                <rect id="Rectangle-path" x="0.3" y="0.1" width="75.3" height="6.5"></rect>
            </g>
            <g id="Group" opacity="0.17" transform="translate(185.000000, 227.000000)" fill="#BFBFC1">
                <rect id="Rectangle-path" x="0.3" y="0.9" width="75.3" height="6.5"></rect>
            </g>
            <circle id="Oval" fill="#FFFFFF" cx="163.1" cy="225.6" r="13.8"></circle>
            <path d="M158.7,294.7 L99,294.7 C94.9,294.7 91.7,291.4 91.7,287.4 L91.7,285.9 C91.7,281.8 95,278.6 99,278.6 L158.6,278.6 C162.7,278.6 165.9,281.9 165.9,285.9 L165.9,287.4 C166,291.4 162.7,294.7 158.7,294.7 L158.7,294.7 Z" id="Shape" fill="#3D3D3D"></path>
            <g id="Group" transform="translate(51.000000, 104.000000)" stroke="#FFFFFF" stroke-width="2">
                <path d="M27.9,7.4 C26.7,8.5 25.1,10.6 23.1,13.5 C21,16.4 19.3,19.4 17.9,22.5 C16.8,24.9 15.8,27.9 14.9,31.5 C14,35 13.6,37.9 13.6,40.2 L5.6,40.2 C5.8,33.1 8.2,25.8 12.6,18.2 C15.4,13.5 17.8,10.2 19.7,8.3 L0,8.3 L0.1,1.4 L27.9,1.4 L27.9,7.4 L27.9,7.4 Z" id="Shape"></path>
                <path d="M33.1,32.4 C34.2,29.8 36.8,27 40.9,24.1 C44.5,21.5 46.8,19.7 47.8,18.6 C49.4,16.9 50.2,15 50.2,13 C50.2,11.3 49.7,10 48.8,8.8 C47.9,7.6 46.6,7.1 44.8,7.1 C42.4,7.1 40.8,8 40,9.7 C39.5,10.7 39.2,12.3 39.1,14.5 L31.6,14.5 C31.7,11.2 32.3,8.4 33.4,6.4 C35.5,2.5 39.1,0.5 44.4,0.5 C48.6,0.5 51.9,1.7 54.3,4 C56.8,6.3 58,9.4 58,13.2 C58,16.1 57.1,18.7 55.4,21 C54.3,22.5 52.4,24.2 49.8,26 L46.7,28.2 C44.8,29.6 43.4,30.6 42.7,31.2 C42,31.8 41.4,32.5 40.9,33.3 L58.1,33.3 L58.1,40.1 L31.2,40.1 C31.3,37.3 31.9,34.8 33.1,32.4 L33.1,32.4 Z" id="Shape"></path>
                <path d="M63.6,46.6 C65.2,46.2 66.3,45.4 67,44.4 C67.7,43.4 68.2,42 68.3,40.1 L63.6,40.1 L63.6,32 L72,32 L72,39 C72,40.2 71.8,41.5 71.5,42.9 C71.2,44.2 70.6,45.4 69.7,46.4 C68.7,47.4 67.6,48.2 66.3,48.8 C65,49.3 64.1,49.6 63.6,49.6 L63.6,46.6 L63.6,46.6 Z" id="Shape"></path>
                <path d="M101.7,5.8 C103.7,9.3 104.7,14.3 104.7,20.8 C104.7,27.3 103.7,32.3 101.7,35.8 C99.7,39.3 96.2,41.1 91.2,41.1 C86.2,41.1 82.7,39.3 80.7,35.8 C78.7,32.3 77.7,27.3 77.7,20.8 C77.7,14.3 78.7,9.3 80.7,5.8 C82.7,2.3 86.2,0.5 91.2,0.5 C96.2,0.5 99.7,2.3 101.7,5.8 L101.7,5.8 Z M86.6,31.2 C87.3,33.6 88.9,34.8 91.2,34.8 C93.5,34.8 95,33.6 95.7,31.2 C96.4,28.8 96.8,25.3 96.8,20.8 C96.8,16.1 96.4,12.6 95.7,10.3 C95,8 93.5,6.9 91.2,6.9 C88.9,6.9 87.4,8 86.6,10.3 C85.9,12.6 85.5,16.1 85.5,20.8 C85.5,25.4 85.9,28.9 86.6,31.2 L86.6,31.2 Z" id="Shape"></path>
                <path d="M132.6,5.8 C134.6,9.3 135.6,14.3 135.6,20.8 C135.6,27.3 134.6,32.3 132.6,35.8 C130.6,39.3 127.1,41.1 122.1,41.1 C117.1,41.1 113.6,39.3 111.6,35.8 C109.6,32.3 108.6,27.3 108.6,20.8 C108.6,14.3 109.6,9.3 111.6,5.8 C113.6,2.3 117.1,0.5 122.1,0.5 C127.1,0.5 130.6,2.3 132.6,5.8 L132.6,5.8 Z M117.5,31.2 C118.2,33.6 119.8,34.8 122.1,34.8 C124.4,34.8 125.9,33.6 126.6,31.2 C127.3,28.8 127.7,25.3 127.7,20.8 C127.7,16.1 127.3,12.6 126.6,10.3 C125.9,8 124.4,6.9 122.1,6.9 C119.8,6.9 118.3,8 117.5,10.3 C116.8,12.6 116.4,16.1 116.4,20.8 C116.4,25.4 116.8,28.9 117.5,31.2 L117.5,31.2 Z" id="Shape"></path>
                <path d="M141.5,13 L141.5,7.7 C143.9,7.6 145.6,7.4 146.6,7.2 C148.2,6.9 149.4,6.2 150.4,5.1 C151.1,4.4 151.6,3.5 151.9,2.3 C152.1,1.6 152.2,1.1 152.2,0.7 L158.7,0.7 L158.7,40 L150.8,40 L150.8,13 L141.5,13 L141.5,13 Z" id="Shape"></path>
            </g>
            <path d="M382.7,208.16875 L402.4,224.26875 C402.8,224.56875 402.8,225.06875 402.4,225.36875 L382.7,241.46875 C382.3,241.76875 382,241.66875 382,241.16875 L382,208.46875 C382,207.96875 382.3,207.86875 382.7,208.16875 Z" id="Shape" fill="#DEDDDD"></path>
            <path d="M794.7,297.16875 L814.4,313.26875 C814.8,313.56875 814.8,314.06875 814.4,314.36875 L794.7,330.46875 C794.3,330.76875 794,330.66875 794,330.16875 L794,297.46875 C794,296.96875 794.3,296.86875 794.7,297.16875 Z" id="Shape-Copy" fill="#DEDDDD"></path>
            <path d="M693.5,321.1 L429.2,321.1 C427.4,321.1 426,319.7 426,317.9 L426,60.2 C426,58.4 427.4,57 429.2,57 L693.5,57 C695.3,57 696.7,58.4 696.7,60.2 L696.7,317.9 C696.6,319.6 695.2,321.1 693.5,321.1 L693.5,321.1 Z" id="Shape" fill="#6FBE44"></path>
            <g id="Group" transform="translate(522.000000, 81.000000)" fill="#FFFFFF">
                <path d="M7.1,7.5 C7.1,8.4 6.8,9 6.2,9.5 C5.6,10 4.7,10.2 3.6,10.2 C2.6,10.2 1.7,10 0.9,9.6 L0.9,7.7 C1.5,8 2.1,8.2 2.5,8.3 C2.9,8.4 3.3,8.5 3.7,8.5 C4.1,8.5 4.5,8.4 4.7,8.2 C4.9,8 5.1,7.8 5.1,7.5 C5.1,7.3 5,7.1 4.9,7 C4.8,6.9 4.6,6.7 4.4,6.6 C4.2,6.5 3.8,6.3 3.2,6 C2.6,5.7 2.2,5.5 1.9,5.2 C1.6,5 1.4,4.7 1.2,4.3 C1,4 0.9,3.6 0.9,3.1 C0.9,2.3 1.2,1.6 1.8,1.1 C2.4,0.6 3.2,0.4 4.2,0.4 C4.7,0.4 5.2,0.5 5.6,0.6 C6,0.7 6.5,0.9 7,1.1 L6.4,2.7 C5.9,2.5 5.5,2.3 5.1,2.3 C4.8,2.2 4.4,2.2 4.1,2.2 C3.7,2.2 3.4,2.3 3.2,2.5 C3,2.7 2.9,2.9 2.9,3.2 C2.9,3.4 2.9,3.5 3,3.7 C3.1,3.8 3.2,4 3.4,4.1 C3.6,4.2 4,4.4 4.7,4.8 C5.6,5.2 6.2,5.6 6.5,6.1 C6.9,6.4 7.1,6.9 7.1,7.5 L7.1,7.5 Z" id="Shape"></path>
                <path d="M11.7,8.7 C12,8.7 12.5,8.6 12.9,8.5 L12.9,10 C12.4,10.2 11.8,10.3 11.1,10.3 C10.3,10.3 9.7,10.1 9.4,9.7 C9,9.3 8.9,8.7 8.9,7.9 L8.9,4.4 L8,4.4 L8,3.6 L9.1,2.9 L9.7,1.4 L11,1.4 L11,2.9 L13,2.9 L13,4.4 L11,4.4 L11,7.9 C11,8.2 11.1,8.4 11.2,8.5 C11.3,8.6 11.4,8.7 11.7,8.7 L11.7,8.7 Z" id="Shape"></path>
                <path d="M19,10.2 L18.6,9.2 L18.5,9.2 C18.2,9.6 17.8,9.9 17.5,10.1 C17.1,10.3 16.7,10.3 16.1,10.3 C15.4,10.3 14.9,10.1 14.5,9.7 C14.1,9.3 13.9,8.7 13.9,8 C13.9,7.2 14.2,6.7 14.7,6.3 C15.2,5.9 16,5.7 17.1,5.7 L18.4,5.7 L18.4,5.4 C18.4,4.7 18,4.3 17.3,4.3 C16.7,4.3 16,4.5 15.3,4.8 L14.6,3.5 C15.4,3.1 16.4,2.8 17.4,2.8 C18.4,2.8 19.1,3 19.6,3.4 C20.1,3.8 20.4,4.5 20.4,5.3 L20.4,10.1 L19,10.1 L19,10.2 Z M18.4,6.8 L17.6,6.8 C17,6.8 16.6,6.9 16.3,7.1 C16,7.3 15.9,7.6 15.9,8 C15.9,8.6 16.2,8.8 16.9,8.8 C17.4,8.8 17.7,8.7 18,8.4 C18.3,8.1 18.4,7.8 18.4,7.4 L18.4,6.8 L18.4,6.8 Z" id="Shape"></path>
                <path d="M25.4,8.7 C25.7,8.7 26.2,8.6 26.6,8.5 L26.6,10 C26.1,10.2 25.5,10.3 24.8,10.3 C24,10.3 23.4,10.1 23.1,9.7 C22.7,9.3 22.6,8.7 22.6,7.9 L22.6,4.4 L21.7,4.4 L21.7,3.6 L22.8,2.9 L23.4,1.4 L24.7,1.4 L24.7,2.9 L26.7,2.9 L26.7,4.4 L24.7,4.4 L24.7,7.9 C24.7,8.2 24.8,8.4 24.9,8.5 C24.9,8.7 25.1,8.7 25.4,8.7 L25.4,8.7 Z" id="Shape"></path>
                <path d="M28,1.1 C28,0.5 28.4,0.1 29.1,0.1 C29.8,0.1 30.2,0.4 30.2,1.1 C30.2,1.4 30.1,1.6 29.9,1.8 C29.7,2 29.5,2.1 29.1,2.1 C28.4,2 28,1.7 28,1.1 L28,1.1 Z M30.1,10.2 L28.1,10.2 L28.1,3 L30.1,3 L30.1,10.2 L30.1,10.2 Z" id="Shape"></path>
                <path d="M35.1,10.3 C32.9,10.3 31.7,9.1 31.7,6.6 C31.7,5.4 32,4.4 32.6,3.8 C33.2,3.2 34.1,2.8 35.2,2.8 C36,2.8 36.8,3 37.4,3.3 L36.8,4.8 C36.5,4.7 36.2,4.6 35.9,4.5 C35.6,4.4 35.4,4.4 35.1,4.4 C34.1,4.4 33.6,5.1 33.6,6.6 C33.6,8 34.1,8.7 35.1,8.7 C35.5,8.7 35.8,8.6 36.2,8.5 C36.5,8.4 36.8,8.2 37.2,8 L37.2,9.7 C36.9,9.9 36.6,10 36.2,10.1 C36,10.3 35.6,10.3 35.1,10.3 L35.1,10.3 Z" id="Shape"></path>
                <path d="M48.1,7.5 C48.1,8.4 47.8,9 47.2,9.5 C46.6,10 45.7,10.2 44.6,10.2 C43.6,10.2 42.7,10 41.9,9.6 L41.9,7.7 C42.5,8 43.1,8.2 43.5,8.3 C43.9,8.4 44.3,8.5 44.7,8.5 C45.1,8.5 45.5,8.4 45.7,8.2 C45.9,8 46.1,7.8 46.1,7.5 C46.1,7.3 46,7.1 45.9,7 C45.8,6.9 45.6,6.7 45.4,6.6 C45.2,6.5 44.8,6.3 44.2,6 C43.6,5.7 43.2,5.5 42.9,5.2 C42.6,5 42.4,4.7 42.2,4.3 C42,4 41.9,3.6 41.9,3.1 C41.9,2.3 42.2,1.6 42.8,1.1 C43.4,0.6 44.2,0.4 45.2,0.4 C45.7,0.4 46.2,0.5 46.6,0.6 C47,0.7 47.5,0.9 48,1.1 L47.4,2.7 C46.9,2.5 46.5,2.3 46.1,2.3 C45.8,2.2 45.4,2.2 45.1,2.2 C44.7,2.2 44.4,2.3 44.2,2.5 C44,2.7 43.9,2.9 43.9,3.2 C43.9,3.4 43.9,3.5 44,3.7 C44.1,3.8 44.2,4 44.4,4.1 C44.6,4.2 45,4.4 45.7,4.8 C46.6,5.2 47.2,5.6 47.5,6.1 C48,6.4 48.1,6.9 48.1,7.5 L48.1,7.5 Z" id="Shape"></path>
                <path d="M53,10.3 C51.8,10.3 50.9,10 50.3,9.3 C49.6,8.7 49.3,7.7 49.3,6.6 C49.3,5.4 49.6,4.5 50.2,3.8 C50.8,3.1 51.6,2.8 52.7,2.8 C53.7,2.8 54.5,3.1 55.1,3.7 C55.7,4.3 56,5.1 56,6.1 L56,7.1 L51.3,7.1 C51.3,7.7 51.5,8.1 51.8,8.4 C52.1,8.7 52.5,8.9 53.1,8.9 C53.5,8.9 53.9,8.9 54.3,8.8 C54.7,8.7 55.1,8.6 55.5,8.4 L55.5,9.9 C55.2,10.1 54.8,10.2 54.4,10.3 C54,10.3 53.5,10.3 53,10.3 L53,10.3 Z M52.7,4.2 C52.3,4.2 52,4.3 51.7,4.6 C51.5,4.9 51.3,5.2 51.3,5.7 L54.1,5.7 C54.1,5.2 54,4.8 53.7,4.6 C53.4,4.3 53.1,4.2 52.7,4.2 L52.7,4.2 Z" id="Shape"></path>
                <path d="M61.5,2.8 C61.8,2.8 62,2.8 62.2,2.9 L62.1,4.7 C61.9,4.7 61.7,4.6 61.5,4.6 C60.9,4.6 60.4,4.8 60,5.1 C59.6,5.4 59.5,5.9 59.5,6.5 L59.5,10.2 L57.5,10.2 L57.5,3 L59,3 L59.3,4.2 L59.4,4.2 C59.6,3.8 59.9,3.5 60.3,3.2 C60.7,2.9 61.1,2.8 61.5,2.8 L61.5,2.8 Z" id="Shape"></path>
                <path d="M65.2,10.2 L62.4,3 L64.5,3 L65.9,7.1 C66.1,7.6 66.2,8.1 66.2,8.6 L66.2,8.6 C66.2,8.2 66.3,7.7 66.5,7.1 L67.9,3 L70,3 L67.2,10.2 L65.2,10.2 L65.2,10.2 Z" id="Shape"></path>
                <path d="M74.3,10.3 C73.1,10.3 72.2,10 71.6,9.3 C70.9,8.7 70.6,7.7 70.6,6.6 C70.6,5.4 70.9,4.5 71.5,3.8 C72.1,3.1 72.9,2.8 74,2.8 C75,2.8 75.8,3.1 76.4,3.7 C77,4.3 77.3,5.1 77.3,6.1 L77.3,7.1 L72.6,7.1 C72.6,7.7 72.8,8.1 73.1,8.4 C73.4,8.7 73.8,8.9 74.4,8.9 C74.8,8.9 75.2,8.9 75.6,8.8 C76,8.7 76.4,8.6 76.8,8.4 L76.8,9.9 C76.5,10.1 76.1,10.2 75.7,10.3 C75.4,10.3 74.9,10.3 74.3,10.3 L74.3,10.3 Z M74.1,4.2 C73.7,4.2 73.4,4.3 73.1,4.6 C72.9,4.9 72.7,5.2 72.7,5.7 L75.5,5.7 C75.5,5.2 75.4,4.8 75.1,4.6 C74.8,4.3 74.5,4.2 74.1,4.2 L74.1,4.2 Z" id="Shape"></path>
                <path d="M82.9,2.8 C83.2,2.8 83.4,2.8 83.6,2.9 L83.5,4.7 C83.3,4.7 83.1,4.6 82.9,4.6 C82.3,4.6 81.8,4.8 81.4,5.1 C81,5.4 80.9,5.9 80.9,6.5 L80.9,10.2 L78.9,10.2 L78.9,3 L80.4,3 L80.7,4.2 L80.8,4.2 C81,3.8 81.3,3.5 81.7,3.2 C82.1,2.9 82.5,2.8 82.9,2.8 L82.9,2.8 Z" id="Shape"></path>
            </g>
            <rect id="Rectangle-path" fill="#F4F2F1" x="426" y="111" width="272.4" height="209.3"></rect>
            <g id="Group" transform="translate(308.500000, 126.000000) rotate(-270.000000) translate(-308.500000, -126.000000) translate(241.500000, 119.500000)" fill="#BFBFC1">
                <path d="M4.93194444,7.70714286 C4.93194444,8.35714286 4.74583333,8.82142857 4.28055556,9.1 C3.81527778,9.47142857 3.16388889,9.56428571 2.32638889,9.56428571 C1.48888889,9.56428571 0.744444444,9.47142857 0.279166667,9.19285714 L0.279166667,8.26428571 C0.558333333,8.45 0.930555556,8.54285714 1.30277778,8.63571429 C1.675,8.72857143 2.04722222,8.72857143 2.32638889,8.72857143 C2.88472222,8.72857143 3.25694444,8.63571429 3.53611111,8.45 C3.81527778,8.26428571 4.00138889,7.98571429 4.00138889,7.70714286 C4.00138889,7.42857143 3.90833333,7.24285714 3.62916667,7.05714286 C3.44305556,6.87142857 2.97777778,6.68571429 2.32638889,6.40714286 C1.675,6.22142857 1.30277778,5.94285714 1.02361111,5.85 C0.744444444,5.75714286 0.558333333,5.47857143 0.465277778,5.29285714 C0.372222222,5.10714286 0.279166667,4.82857143 0.279166667,4.55 C0.279166667,3.99285714 0.465277778,3.62142857 0.930555556,3.25 C1.39583333,2.97142857 1.95416667,2.78571429 2.69861111,2.78571429 C3.44305556,2.78571429 4.09444444,2.97142857 4.74583333,3.25 L4.37361111,4.08571429 C3.72222222,3.80714286 3.07083333,3.71428571 2.60555556,3.71428571 C2.14027778,3.71428571 1.76805556,3.80714286 1.48888889,3.9 C1.20972222,4.08571429 1.11666667,4.27142857 1.11666667,4.55 C1.11666667,4.73571429 1.11666667,4.92142857 1.20972222,5.01428571 C1.30277778,5.10714286 1.48888889,5.29285714 1.675,5.38571429 C1.86111111,5.47857143 2.23333333,5.66428571 2.79166667,5.85 C3.53611111,6.12857143 4.09444444,6.40714286 4.37361111,6.68571429 C4.74583333,6.87142857 4.93194444,7.24285714 4.93194444,7.70714286 L4.93194444,7.70714286 Z" id="Shape"></path>
                <path d="M9.49166667,2.78571429 C9.77083333,2.78571429 10.05,2.78571429 10.2361111,2.87857143 L10.1430556,3.80714286 C9.86388889,3.71428571 9.58472222,3.71428571 9.39861111,3.71428571 C8.84027778,3.71428571 8.375,3.9 8.00277778,4.36428571 C7.63055556,4.82857143 7.44444444,5.29285714 7.44444444,5.94285714 L7.44444444,9.47142857 L6.51388889,9.47142857 L6.51388889,2.87857143 L7.35138889,2.87857143 L7.44444444,4.08571429 L7.5375,4.08571429 C7.81666667,3.62142857 8.09583333,3.34285714 8.46805556,3.06428571 C8.74722222,2.87857143 9.11944444,2.78571429 9.49166667,2.78571429 L9.49166667,2.78571429 Z" id="Shape"></path>
                <path d="M14.1444444,9.65714286 C13.2138889,9.65714286 12.4694444,9.37857143 11.9111111,8.82142857 C11.3527778,8.26428571 11.1666667,7.42857143 11.1666667,6.31428571 C11.1666667,5.2 11.4458333,4.36428571 12.0041667,3.80714286 C12.5625,3.25 13.3069444,2.87857143 14.2375,2.87857143 C14.5166667,2.87857143 14.8888889,2.87857143 15.1680556,2.97142857 C15.4472222,3.06428571 15.7263889,3.15714286 15.9125,3.25 L15.6333333,4.08571429 C15.4472222,3.99285714 15.1680556,3.9 14.8888889,3.9 C14.6097222,3.80714286 14.4236111,3.80714286 14.2375,3.80714286 C12.9347222,3.80714286 12.1902778,4.64285714 12.1902778,6.40714286 C12.1902778,7.24285714 12.3763889,7.8 12.6555556,8.26428571 C13.0277778,8.72857143 13.4930556,8.91428571 14.1444444,8.91428571 C14.7027778,8.91428571 15.2611111,8.82142857 15.8194444,8.54285714 L15.8194444,9.47142857 C15.4472222,9.47142857 14.8888889,9.65714286 14.1444444,9.65714286 L14.1444444,9.65714286 Z" id="Shape"></path>
                <path d="M17.0291667,4.36428571 L17.0291667,3.52857143 L22.6125,3.52857143 L22.6125,4.36428571 L17.0291667,4.36428571 L17.0291667,4.36428571 Z M17.0291667,6.77857143 L17.0291667,5.94285714 L22.6125,5.94285714 L22.6125,6.77857143 L17.0291667,6.77857143 L17.0291667,6.77857143 Z" id="Shape"></path>
                <path d="M25.2180556,0.742857143 L25.3111111,0.835714286 C25.2180556,1.20714286 25.0319444,1.67142857 24.8458333,2.22857143 C24.6597222,2.78571429 24.4736111,3.25 24.1944444,3.71428571 L23.45,3.71428571 C23.7291667,2.6 23.9152778,1.57857143 24.1013889,0.742857143 L25.2180556,0.742857143 L25.2180556,0.742857143 Z M27.4513889,0.742857143 L27.5444444,0.835714286 C27.4513889,1.20714286 27.2652778,1.67142857 27.0791667,2.13571429 C26.8930556,2.69285714 26.7069444,3.15714286 26.4277778,3.62142857 L25.6833333,3.62142857 C25.7763889,3.25 25.8694444,2.69285714 26.0555556,2.13571429 C26.1486111,1.48571429 26.2416667,1.02142857 26.3347222,0.65 L27.4513889,0.65 L27.4513889,0.742857143 Z" id="Shape"></path>
                <path d="M33.0347222,7.70714286 C33.0347222,8.35714286 32.8486111,8.82142857 32.3833333,9.1 C31.9180556,9.47142857 31.2666667,9.56428571 30.4291667,9.56428571 C29.5916667,9.56428571 28.8472222,9.47142857 28.3819444,9.19285714 L28.3819444,8.26428571 C28.6611111,8.45 29.0333333,8.54285714 29.4055556,8.63571429 C29.7777778,8.72857143 30.15,8.72857143 30.4291667,8.72857143 C30.9875,8.72857143 31.3597222,8.63571429 31.6388889,8.45 C31.9180556,8.26428571 32.1041667,7.98571429 32.1041667,7.70714286 C32.1041667,7.42857143 32.0111111,7.24285714 31.7319444,7.05714286 C31.5458333,6.87142857 31.0805556,6.68571429 30.4291667,6.40714286 C29.7777778,6.22142857 29.4055556,5.94285714 29.1263889,5.85 C28.8472222,5.75714286 28.6611111,5.47857143 28.5680556,5.29285714 C28.475,5.10714286 28.3819444,4.82857143 28.3819444,4.55 C28.3819444,3.99285714 28.5680556,3.62142857 29.0333333,3.25 C29.4986111,2.97142857 30.0569444,2.78571429 30.8013889,2.78571429 C31.5458333,2.78571429 32.1972222,2.97142857 32.8486111,3.25 L32.4763889,4.08571429 C31.825,3.80714286 31.1736111,3.71428571 30.7083333,3.71428571 C30.2430556,3.71428571 29.8708333,3.80714286 29.5916667,3.9 C29.3125,4.08571429 29.2194444,4.27142857 29.2194444,4.55 C29.2194444,4.73571429 29.2194444,4.92142857 29.3125,5.01428571 C29.4055556,5.10714286 29.5916667,5.29285714 29.7777778,5.38571429 C29.9638889,5.47857143 30.3361111,5.66428571 30.8944444,5.85 C31.6388889,6.12857143 32.1972222,6.40714286 32.4763889,6.68571429 C32.8486111,6.87142857 33.0347222,7.24285714 33.0347222,7.70714286 L33.0347222,7.70714286 Z" id="Shape"></path>
                <path d="M36.7569444,8.82142857 L37.2222222,8.82142857 C37.3152778,8.82142857 37.5013889,8.72857143 37.5944444,8.72857143 L37.5944444,9.47142857 C37.5013889,9.56428571 37.3152778,9.56428571 37.1291667,9.56428571 C36.9430556,9.56428571 36.7569444,9.65714286 36.5708333,9.65714286 C35.2680556,9.65714286 34.6166667,9.00714286 34.6166667,7.61428571 L34.6166667,3.71428571 L33.6861111,3.71428571 L33.6861111,3.25 L34.6166667,2.87857143 L35.0819444,1.48571429 L35.6402778,1.48571429 L35.6402778,2.97142857 L37.5944444,2.97142857 L37.5944444,3.71428571 L35.6402778,3.71428571 L35.6402778,7.61428571 C35.6402778,7.98571429 35.7333333,8.35714286 35.9194444,8.54285714 C36.1986111,8.72857143 36.4777778,8.82142857 36.7569444,8.82142857 L36.7569444,8.82142857 Z" id="Shape"></path>
                <path d="M43.0847222,9.47142857 L42.8986111,8.54285714 L42.8055556,8.54285714 C42.4333333,8.91428571 42.1541667,9.19285714 41.7819444,9.37857143 C41.4097222,9.56428571 41.0375,9.56428571 40.5722222,9.56428571 C39.9208333,9.56428571 39.3625,9.37857143 38.9902778,9.1 C38.6180556,8.72857143 38.4319444,8.26428571 38.4319444,7.70714286 C38.4319444,6.40714286 39.4555556,5.66428571 41.5958333,5.57142857 L42.7125,5.57142857 L42.7125,5.2 C42.7125,4.64285714 42.6194444,4.27142857 42.3402778,4.08571429 C42.1541667,3.80714286 41.7819444,3.71428571 41.3166667,3.71428571 C40.7583333,3.71428571 40.1069444,3.9 39.4555556,4.17857143 L39.1763889,3.43571429 C39.4555556,3.25 39.8277778,3.15714286 40.2,3.06428571 C40.5722222,2.97142857 40.9444444,2.87857143 41.4097222,2.87857143 C42.1541667,2.87857143 42.8055556,3.06428571 43.1777778,3.43571429 C43.55,3.80714286 43.7361111,4.36428571 43.7361111,5.10714286 L43.7361111,9.56428571 L43.0847222,9.56428571 L43.0847222,9.47142857 Z M40.7583333,8.82142857 C41.4097222,8.82142857 41.875,8.63571429 42.2472222,8.35714286 C42.6194444,7.98571429 42.8055556,7.52142857 42.8055556,6.96428571 L42.8055556,6.40714286 L41.7819444,6.40714286 C40.9444444,6.40714286 40.3861111,6.59285714 40.1069444,6.77857143 C39.7347222,6.96428571 39.5486111,7.33571429 39.5486111,7.8 C39.5486111,8.17142857 39.6416667,8.45 39.9208333,8.63571429 C40.1069444,8.72857143 40.3861111,8.82142857 40.7583333,8.82142857 L40.7583333,8.82142857 Z" id="Shape"></path>
                <path d="M48.0166667,8.82142857 L48.4819444,8.82142857 C48.6680556,8.82142857 48.7611111,8.72857143 48.8541667,8.72857143 L48.8541667,9.47142857 C48.7611111,9.56428571 48.575,9.56428571 48.3888889,9.56428571 C48.2027778,9.56428571 48.0166667,9.65714286 47.8305556,9.65714286 C46.5277778,9.65714286 45.8763889,9.00714286 45.8763889,7.61428571 L45.8763889,3.71428571 L44.9458333,3.71428571 L44.9458333,3.25 L45.8763889,2.87857143 L46.3416667,1.48571429 L46.9,1.48571429 L46.9,2.97142857 L48.8541667,2.97142857 L48.8541667,3.71428571 L46.9,3.71428571 L46.9,7.61428571 C46.9,7.98571429 46.9930556,8.35714286 47.1791667,8.54285714 C47.3652778,8.72857143 47.6444444,8.82142857 48.0166667,8.82142857 L48.0166667,8.82142857 Z" id="Shape"></path>
                <path d="M50.1569444,1.11428571 C50.1569444,0.928571429 50.25,0.742857143 50.3430556,0.65 C50.4361111,0.557142857 50.6222222,0.464285714 50.8083333,0.464285714 C50.9944444,0.464285714 51.0875,0.557142857 51.1805556,0.65 C51.2736111,0.742857143 51.3666667,0.928571429 51.3666667,1.11428571 C51.3666667,1.3 51.2736111,1.48571429 51.1805556,1.57857143 C51.0875,1.67142857 50.9013889,1.76428571 50.8083333,1.76428571 C50.6222222,1.76428571 50.5291667,1.67142857 50.3430556,1.57857143 C50.1569444,1.48571429 50.1569444,1.39285714 50.1569444,1.11428571 L50.1569444,1.11428571 Z M51.1805556,9.47142857 L50.25,9.47142857 L50.25,2.87857143 L51.2736111,2.87857143 L51.2736111,9.47142857 L51.1805556,9.47142857 Z" id="Shape"></path>
                <path d="M55.9263889,9.65714286 C54.9958333,9.65714286 54.2513889,9.37857143 53.6930556,8.82142857 C53.1347222,8.26428571 52.9486111,7.42857143 52.9486111,6.31428571 C52.9486111,5.2 53.2277778,4.36428571 53.7861111,3.80714286 C54.3444444,3.25 55.0888889,2.87857143 56.0194444,2.87857143 C56.2986111,2.87857143 56.6708333,2.87857143 56.95,2.97142857 C57.2291667,3.06428571 57.5083333,3.15714286 57.6944444,3.25 L57.4152778,4.08571429 C57.2291667,3.99285714 56.95,3.9 56.6708333,3.9 C56.3916667,3.80714286 56.2055556,3.80714286 56.0194444,3.80714286 C54.7166667,3.80714286 53.9722222,4.64285714 53.9722222,6.40714286 C53.9722222,7.24285714 54.1583333,7.8 54.4375,8.26428571 C54.8097222,8.72857143 55.275,8.91428571 55.9263889,8.91428571 C56.4847222,8.91428571 57.0430556,8.82142857 57.6013889,8.54285714 L57.6013889,9.47142857 C57.2291667,9.47142857 56.6708333,9.65714286 55.9263889,9.65714286 L55.9263889,9.65714286 Z" id="Shape"></path>
                <path d="M59.0902778,8.82142857 C59.0902778,8.54285714 59.1833333,8.35714286 59.2763889,8.17142857 C59.3694444,8.07857143 59.5555556,7.98571429 59.8347222,7.98571429 C60.0208333,7.98571429 60.2069444,8.07857143 60.3930556,8.17142857 C60.4861111,8.26428571 60.5791667,8.54285714 60.5791667,8.82142857 C60.5791667,9.1 60.4861111,9.28571429 60.3930556,9.37857143 C60.3,9.56428571 60.1138889,9.56428571 59.8347222,9.56428571 C59.6486111,9.56428571 59.4625,9.47142857 59.3694444,9.37857143 C59.0902778,9.37857143 59.0902778,9.19285714 59.0902778,8.82142857 L59.0902778,8.82142857 Z" id="Shape"></path>
                <path d="M65.1388889,9.65714286 C64.2083333,9.65714286 63.4638889,9.37857143 62.9055556,8.82142857 C62.3472222,8.26428571 62.1611111,7.42857143 62.1611111,6.31428571 C62.1611111,5.2 62.4402778,4.36428571 62.9986111,3.80714286 C63.5569444,3.25 64.3013889,2.87857143 65.2319444,2.87857143 C65.5111111,2.87857143 65.8833333,2.87857143 66.1625,2.97142857 C66.4416667,3.06428571 66.7208333,3.15714286 66.9069444,3.25 L66.6277778,4.08571429 C66.4416667,3.99285714 66.1625,3.9 65.8833333,3.9 C65.6041667,3.80714286 65.4180556,3.80714286 65.2319444,3.80714286 C63.9291667,3.80714286 63.1847222,4.64285714 63.1847222,6.40714286 C63.1847222,7.24285714 63.3708333,7.8 63.65,8.26428571 C64.0222222,8.72857143 64.4875,8.91428571 65.1388889,8.91428571 C65.6972222,8.91428571 66.2555556,8.82142857 66.8138889,8.54285714 L66.8138889,9.47142857 C66.3486111,9.47142857 65.7902778,9.65714286 65.1388889,9.65714286 L65.1388889,9.65714286 Z" id="Shape"></path>
                <path d="M74.0722222,6.22142857 C74.0722222,7.33571429 73.7930556,8.17142857 73.2347222,8.72857143 C72.6763889,9.28571429 71.9319444,9.65714286 71.0013889,9.65714286 C70.4430556,9.65714286 69.8847222,9.56428571 69.4194444,9.28571429 C68.9541667,9.00714286 68.5819444,8.63571429 68.3958333,8.07857143 C68.1166667,7.52142857 68.0236111,6.96428571 68.0236111,6.22142857 C68.0236111,5.10714286 68.3027778,4.27142857 68.8611111,3.71428571 C69.4194444,3.15714286 70.1638889,2.78571429 71.0944444,2.78571429 C72.025,2.78571429 72.7694444,3.06428571 73.3277778,3.71428571 C73.7930556,4.36428571 74.0722222,5.2 74.0722222,6.22142857 L74.0722222,6.22142857 Z M69.0472222,6.22142857 C69.0472222,7.05714286 69.2333333,7.70714286 69.5125,8.17142857 C69.8847222,8.63571429 70.35,8.82142857 71.0013889,8.82142857 C71.6527778,8.82142857 72.1180556,8.63571429 72.4902778,8.17142857 C72.8625,7.70714286 72.9555556,7.05714286 72.9555556,6.22142857 C72.9555556,5.38571429 72.7694444,4.73571429 72.4902778,4.27142857 C72.1180556,3.80714286 71.6527778,3.62142857 71.0013889,3.62142857 C70.35,3.62142857 69.8847222,3.80714286 69.5125,4.27142857 C69.1402778,4.73571429 69.0472222,5.38571429 69.0472222,6.22142857 L69.0472222,6.22142857 Z" id="Shape"></path>
                <path d="M84.2152778,9.47142857 L84.2152778,5.2 C84.2152778,4.64285714 84.1222222,4.27142857 83.8430556,3.99285714 C83.6569444,3.71428571 83.2847222,3.62142857 82.8194444,3.62142857 C82.1680556,3.62142857 81.7027778,3.80714286 81.4236111,4.17857143 C81.1444444,4.55 80.9583333,5.10714286 80.9583333,5.85 L80.9583333,9.56428571 L79.9347222,9.56428571 L79.9347222,5.29285714 C79.9347222,4.73571429 79.8416667,4.36428571 79.5625,4.08571429 C79.3763889,3.80714286 79.0041667,3.71428571 78.5388889,3.71428571 C77.8875,3.71428571 77.4222222,3.9 77.1430556,4.27142857 C76.8638889,4.64285714 76.6777778,5.29285714 76.6777778,6.12857143 L76.6777778,9.56428571 L75.6541667,9.56428571 L75.6541667,2.97142857 L76.4916667,2.97142857 L76.6777778,3.9 L76.7708333,3.9 C76.9569444,3.62142857 77.2361111,3.34285714 77.6083333,3.15714286 C77.9805556,2.97142857 78.3527778,2.87857143 78.725,2.87857143 C79.7486111,2.87857143 80.4,3.25 80.7722222,3.99285714 L80.8652778,3.99285714 C81.0513889,3.62142857 81.3305556,3.34285714 81.7027778,3.15714286 C82.075,2.97142857 82.5402778,2.87857143 83.0055556,2.87857143 C83.75,2.87857143 84.3083333,3.06428571 84.6805556,3.43571429 C85.0527778,3.80714286 85.2388889,4.45714286 85.2388889,5.29285714 L85.2388889,9.56428571 L84.2152778,9.56428571 L84.2152778,9.47142857 Z" id="Shape"></path>
                <polygon id="Shape" points="90.5430556 0.742857143 87.2861111 9.56428571 86.2625 9.56428571 89.5194444 0.742857143"></polygon>
                <path d="M91.6597222,1.11428571 C91.6597222,0.928571429 91.7527778,0.742857143 91.8458333,0.65 C91.9388889,0.557142857 92.125,0.464285714 92.3111111,0.464285714 C92.4972222,0.464285714 92.5902778,0.557142857 92.6833333,0.65 C92.7763889,0.742857143 92.8694444,0.928571429 92.8694444,1.11428571 C92.8694444,1.3 92.7763889,1.48571429 92.6833333,1.57857143 C92.5902778,1.67142857 92.4041667,1.76428571 92.3111111,1.76428571 C92.125,1.76428571 92.0319444,1.67142857 91.8458333,1.57857143 C91.7527778,1.48571429 91.6597222,1.39285714 91.6597222,1.11428571 L91.6597222,1.11428571 Z M92.7763889,9.47142857 L91.7527778,9.47142857 L91.7527778,2.87857143 L92.7763889,2.87857143 L92.7763889,9.47142857 L92.7763889,9.47142857 Z" id="Shape"></path>
                <path d="M103.291667,9.47142857 L103.291667,5.2 C103.291667,4.64285714 103.198611,4.27142857 102.919444,3.99285714 C102.733333,3.71428571 102.361111,3.62142857 101.895833,3.62142857 C101.244444,3.62142857 100.779167,3.80714286 100.5,4.17857143 C100.220833,4.55 100.034722,5.10714286 100.034722,5.85 L100.034722,9.56428571 L99.0111111,9.56428571 L99.0111111,5.29285714 C99.0111111,4.73571429 98.9180556,4.36428571 98.6388889,4.08571429 C98.4527778,3.80714286 98.0805556,3.71428571 97.6152778,3.71428571 C96.9638889,3.71428571 96.4986111,3.9 96.2194444,4.27142857 C95.9402778,4.64285714 95.7541667,5.29285714 95.7541667,6.12857143 L95.7541667,9.56428571 L94.9166667,9.56428571 L94.9166667,2.97142857 L95.7541667,2.97142857 L95.9402778,3.9 L96.0333333,3.9 C96.2194444,3.62142857 96.4986111,3.34285714 96.8708333,3.15714286 C97.2430556,2.97142857 97.6152778,2.87857143 97.9875,2.87857143 C99.0111111,2.87857143 99.6625,3.25 100.034722,3.99285714 L100.127778,3.99285714 C100.313889,3.62142857 100.593056,3.34285714 100.965278,3.15714286 C101.3375,2.97142857 101.802778,2.87857143 102.268056,2.87857143 C103.0125,2.87857143 103.570833,3.06428571 103.943056,3.43571429 C104.315278,3.80714286 104.501389,4.45714286 104.501389,5.29285714 L104.501389,9.56428571 L103.291667,9.56428571 L103.291667,9.47142857 Z" id="Shape"></path>
                <path d="M111.759722,2.87857143 L111.759722,3.52857143 L110.55,3.71428571 C110.643056,3.9 110.736111,3.99285714 110.829167,4.27142857 C110.922222,4.55 110.922222,4.73571429 110.922222,5.01428571 C110.922222,5.66428571 110.736111,6.12857143 110.270833,6.59285714 C109.805556,6.96428571 109.247222,7.15 108.409722,7.15 C108.223611,7.15 108.0375,7.15 107.851389,7.05714286 C107.386111,7.24285714 107.2,7.52142857 107.2,7.89285714 C107.2,8.07857143 107.293056,8.17142857 107.386111,8.26428571 C107.572222,8.35714286 107.758333,8.35714286 108.130556,8.35714286 L109.340278,8.35714286 C110.084722,8.35714286 110.643056,8.54285714 111.015278,8.82142857 C111.3875,9.1 111.573611,9.56428571 111.573611,10.1214286 C111.573611,10.8642857 111.294444,11.4214286 110.736111,11.7928571 C110.177778,12.1642857 109.340278,12.35 108.130556,12.35 C107.293056,12.35 106.641667,12.1642857 106.176389,11.8857143 C105.711111,11.6071429 105.431944,11.1428571 105.431944,10.4928571 C105.431944,10.1214286 105.525,9.75 105.804167,9.47142857 C106.083333,9.19285714 106.455556,9.00714286 106.920833,8.91428571 C106.734722,8.82142857 106.641667,8.72857143 106.455556,8.54285714 C106.3625,8.35714286 106.269444,8.17142857 106.269444,7.98571429 C106.269444,7.70714286 106.3625,7.52142857 106.455556,7.33571429 C106.548611,7.15 106.827778,6.96428571 107.106944,6.77857143 C106.734722,6.59285714 106.455556,6.40714286 106.269444,6.03571429 C106.083333,5.66428571 105.990278,5.29285714 105.990278,4.92142857 C105.990278,4.17857143 106.176389,3.62142857 106.641667,3.25 C107.106944,2.87857143 107.665278,2.69285714 108.502778,2.69285714 C108.875,2.69285714 109.154167,2.69285714 109.433333,2.78571429 L111.759722,2.78571429 L111.759722,2.87857143 Z M106.455556,10.5857143 C106.455556,10.9571429 106.641667,11.2357143 106.920833,11.4214286 C107.2,11.6071429 107.665278,11.7 108.223611,11.7 C109.061111,11.7 109.7125,11.6071429 110.084722,11.3285714 C110.456944,11.05 110.736111,10.7714286 110.736111,10.3071429 C110.736111,9.93571429 110.643056,9.75 110.363889,9.56428571 C110.177778,9.47142857 109.7125,9.37857143 109.154167,9.37857143 L107.944444,9.37857143 C107.479167,9.37857143 107.106944,9.47142857 106.920833,9.65714286 C106.641667,9.84285714 106.455556,10.2142857 106.455556,10.5857143 L106.455556,10.5857143 Z M107.013889,5.01428571 C107.013889,5.47857143 107.106944,5.85 107.386111,6.03571429 C107.665278,6.31428571 108.0375,6.40714286 108.502778,6.40714286 C109.433333,6.40714286 109.991667,5.94285714 109.991667,5.01428571 C109.991667,3.99285714 109.526389,3.52857143 108.502778,3.52857143 C108.0375,3.52857143 107.665278,3.62142857 107.386111,3.9 C107.106944,4.17857143 107.013889,4.55 107.013889,5.01428571 L107.013889,5.01428571 Z" id="Shape"></path>
                <path d="M112.969444,8.82142857 C112.969444,8.54285714 113.0625,8.35714286 113.155556,8.17142857 C113.248611,8.07857143 113.434722,7.98571429 113.713889,7.98571429 C113.9,7.98571429 114.086111,8.07857143 114.272222,8.17142857 C114.365278,8.26428571 114.458333,8.54285714 114.458333,8.82142857 C114.458333,9.1 114.365278,9.28571429 114.272222,9.37857143 C114.179167,9.56428571 113.993056,9.56428571 113.713889,9.56428571 C113.527778,9.56428571 113.341667,9.47142857 113.248611,9.37857143 C113.0625,9.37857143 112.969444,9.19285714 112.969444,8.82142857 L112.969444,8.82142857 Z" id="Shape"></path>
                <path d="M121.809722,2.87857143 L121.809722,3.52857143 L120.6,3.71428571 C120.693056,3.9 120.786111,3.99285714 120.879167,4.27142857 C120.972222,4.55 120.972222,4.73571429 120.972222,5.01428571 C120.972222,5.66428571 120.786111,6.12857143 120.320833,6.59285714 C119.855556,6.96428571 119.297222,7.15 118.459722,7.15 C118.273611,7.15 118.0875,7.15 117.901389,7.05714286 C117.436111,7.24285714 117.25,7.52142857 117.25,7.89285714 C117.25,8.07857143 117.343056,8.17142857 117.436111,8.26428571 C117.622222,8.35714286 117.808333,8.35714286 118.180556,8.35714286 L119.390278,8.35714286 C120.134722,8.35714286 120.693056,8.54285714 121.065278,8.82142857 C121.4375,9.1 121.623611,9.56428571 121.623611,10.1214286 C121.623611,10.8642857 121.344444,11.4214286 120.786111,11.7928571 C120.227778,12.1642857 119.390278,12.35 118.180556,12.35 C117.343056,12.35 116.691667,12.1642857 116.226389,11.8857143 C115.761111,11.6071429 115.481944,11.1428571 115.481944,10.4928571 C115.481944,10.1214286 115.575,9.75 115.854167,9.47142857 C116.133333,9.19285714 116.505556,9.00714286 116.970833,8.91428571 C116.784722,8.82142857 116.691667,8.72857143 116.505556,8.54285714 C116.4125,8.35714286 116.319444,8.17142857 116.319444,7.98571429 C116.319444,7.70714286 116.4125,7.52142857 116.505556,7.33571429 C116.598611,7.15 116.877778,6.96428571 117.156944,6.77857143 C116.784722,6.59285714 116.505556,6.40714286 116.319444,6.03571429 C116.133333,5.66428571 116.040278,5.29285714 116.040278,4.92142857 C116.040278,4.17857143 116.226389,3.62142857 116.691667,3.25 C117.156944,2.87857143 117.715278,2.69285714 118.552778,2.69285714 C118.925,2.69285714 119.204167,2.69285714 119.483333,2.78571429 L121.809722,2.78571429 L121.809722,2.87857143 Z M116.505556,10.5857143 C116.505556,10.9571429 116.691667,11.2357143 116.970833,11.4214286 C117.25,11.6071429 117.715278,11.7 118.273611,11.7 C119.111111,11.7 119.7625,11.6071429 120.134722,11.3285714 C120.506944,11.05 120.786111,10.7714286 120.786111,10.3071429 C120.786111,9.93571429 120.693056,9.75 120.413889,9.56428571 C120.227778,9.47142857 119.7625,9.37857143 119.204167,9.37857143 L117.994444,9.37857143 C117.529167,9.37857143 117.156944,9.47142857 116.970833,9.65714286 C116.598611,9.84285714 116.505556,10.2142857 116.505556,10.5857143 L116.505556,10.5857143 Z M117.063889,5.01428571 C117.063889,5.47857143 117.156944,5.85 117.436111,6.03571429 C117.715278,6.31428571 118.0875,6.40714286 118.552778,6.40714286 C119.483333,6.40714286 120.041667,5.94285714 120.041667,5.01428571 C120.041667,3.99285714 119.576389,3.52857143 118.552778,3.52857143 C118.0875,3.52857143 117.715278,3.62142857 117.436111,3.9 C117.156944,4.17857143 117.063889,4.55 117.063889,5.01428571 L117.063889,5.01428571 Z" id="Shape"></path>
                <path d="M123.019444,1.11428571 C123.019444,0.928571429 123.1125,0.742857143 123.205556,0.65 C123.298611,0.557142857 123.484722,0.464285714 123.670833,0.464285714 C123.856944,0.464285714 123.95,0.557142857 124.043056,0.65 C124.136111,0.742857143 124.229167,0.928571429 124.229167,1.11428571 C124.229167,1.3 124.136111,1.48571429 124.043056,1.57857143 C123.95,1.67142857 123.763889,1.76428571 123.670833,1.76428571 C123.484722,1.76428571 123.391667,1.67142857 123.205556,1.57857143 C123.1125,1.48571429 123.019444,1.39285714 123.019444,1.11428571 L123.019444,1.11428571 Z M124.136111,9.47142857 L123.1125,9.47142857 L123.1125,2.87857143 L124.136111,2.87857143 L124.136111,9.47142857 L124.136111,9.47142857 Z" id="Shape"></path>
                <path d="M129.254167,3.71428571 L127.579167,3.71428571 L127.579167,9.56428571 L126.555556,9.56428571 L126.555556,3.71428571 L125.345833,3.71428571 L125.345833,3.25 L126.555556,2.87857143 L126.555556,2.50714286 C126.555556,0.928571429 127.3,0.0928571429 128.695833,0.0928571429 C129.068056,0.0928571429 129.440278,0.185714286 129.905556,0.278571429 L129.626389,1.11428571 C129.254167,1.02142857 128.881944,0.928571429 128.602778,0.928571429 C128.230556,0.928571429 127.951389,1.02142857 127.765278,1.3 C127.579167,1.57857143 127.486111,1.95 127.486111,2.50714286 L127.486111,2.97142857 L129.161111,2.97142857 L129.161111,3.71428571 L129.254167,3.71428571 Z" id="Shape"></path>
                <path d="M131.208333,0.742857143 L131.301389,0.835714286 C131.208333,1.20714286 131.022222,1.67142857 130.836111,2.22857143 C130.65,2.78571429 130.463889,3.25 130.184722,3.71428571 L129.440278,3.71428571 C129.719444,2.6 129.905556,1.57857143 130.091667,0.742857143 L131.208333,0.742857143 L131.208333,0.742857143 Z M133.441667,0.742857143 L133.534722,0.835714286 C133.441667,1.20714286 133.255556,1.67142857 133.069444,2.13571429 C132.883333,2.69285714 132.697222,3.15714286 132.418056,3.62142857 L131.673611,3.62142857 C131.766667,3.25 131.859722,2.69285714 132.045833,2.13571429 C132.138889,1.48571429 132.231944,1.02142857 132.325,0.65 L133.441667,0.65 L133.441667,0.742857143 Z" id="Shape"></path>
            </g>
            <g id="Group" transform="translate(706.000000, 184.000000)" fill="#BFBFC1">
                <path d="M3.9,1.8 L3.9,0.7 L11,0.7 L11,1.8 L3.9,1.8 L3.9,1.8 Z M12.9,0.6 C13.1,0.6 13.3,0.7 13.4,0.8 C13.5,0.9 13.6,1.1 13.6,1.3 C13.6,1.5 13.5,1.6 13.4,1.7 C13.3,1.8 13.1,1.9 12.9,1.9 C12.7,1.9 12.5,1.8 12.4,1.7 C12.3,1.6 12.2,1.4 12.2,1.3 C12.2,1.1 12.3,1 12.4,0.8 C12.5,0.7 12.7,0.6 12.9,0.6 L12.9,0.6 Z" id="Shape"></path>
                <path d="M3.9,13.1 L8.5,13.1 C9.1,13.1 9.5,13 9.8,12.7 C10.1,12.5 10.2,12.1 10.2,11.6 C10.2,10.9 10,10.4 9.6,10.1 C9.2,9.8 8.6,9.6 7.8,9.6 L3.8,9.6 L3.8,8.5 L8.4,8.5 C9,8.5 9.4,8.4 9.7,8.1 C10,7.9 10.1,7.5 10.1,7 C10.1,6.3 9.9,5.8 9.5,5.5 C9.1,5.2 8.4,5 7.5,5 L3.8,5 L3.8,3.9 L10.9,3.9 L10.9,4.8 L9.9,5 L9.9,5.1 C10.2,5.3 10.5,5.6 10.7,6 C10.9,6.4 11,6.8 11,7.2 C11,8.3 10.6,9 9.8,9.4 L9.8,9.5 C10.2,9.7 10.5,10 10.7,10.4 C10.9,10.8 11,11.3 11,11.8 C11,12.6 10.8,13.2 10.4,13.6 C10,14 9.3,14.2 8.4,14.2 L3.8,14.2 L3.8,13.1 L3.9,13.1 Z" id="Shape"></path>
                <path d="M11,22.2 L10.3,22.2 L10.1,20.9 C9.9,21 9.8,21.1 9.5,21.2 C9.3,21.3 9,21.3 8.7,21.3 C8,21.3 7.5,21.1 7,20.6 C6.6,20.1 6.4,19.5 6.4,18.6 C6.4,18.4 6.4,18.2 6.5,18 C6.3,17.5 6,17.3 5.6,17.3 C5.4,17.3 5.3,17.4 5.2,17.5 C5.1,17.7 5.1,17.9 5.1,18.3 L5.1,19.6 C5.1,20.4 4.9,21 4.6,21.4 C4.3,21.8 3.8,22 3.2,22 C2.4,22 1.8,21.7 1.4,21.1 C1,20.5 0.8,19.6 0.8,18.3 C0.8,17.4 1,16.7 1.3,16.2 C1.6,15.7 2.1,15.4 2.8,15.4 C3.2,15.4 3.6,15.5 3.9,15.8 C4.2,16.1 4.4,16.5 4.5,17 C4.6,16.8 4.7,16.7 4.9,16.5 C5.1,16.4 5.3,16.3 5.5,16.3 C5.8,16.3 6,16.4 6.2,16.5 C6.4,16.6 6.6,16.9 6.8,17.2 C7,16.8 7.2,16.5 7.6,16.3 C8,16.1 8.4,16 8.8,16 C9.6,16 10.2,16.2 10.6,16.7 C11,17.2 11.2,17.8 11.2,18.7 C11.2,19.1 11.2,19.4 11.1,19.7 L11.1,22.2 L11,22.2 Z M2.7,16.5 C2.3,16.5 2,16.7 1.8,17 C1.6,17.3 1.5,17.8 1.5,18.4 C1.5,19.3 1.6,20 1.9,20.4 C2.2,20.8 2.5,21.1 3,21.1 C3.4,21.1 3.7,21 3.8,20.7 C3.9,20.5 4,20 4,19.4 L4,18.1 C4,17.6 3.9,17.2 3.7,17 C3.5,16.7 3.2,16.5 2.7,16.5 L2.7,16.5 Z M8.7,17.1 C8.2,17.1 7.8,17.2 7.6,17.5 C7.3,17.8 7.2,18.2 7.2,18.7 C7.2,19.7 7.7,20.3 8.7,20.3 C9.8,20.3 10.3,19.8 10.3,18.7 C10.3,18.2 10.2,17.8 9.9,17.5 C9.7,17.2 9.3,17.1 8.7,17.1 L8.7,17.1 Z" id="Shape"></path>
                <path d="M4.6,23.5 C4.9,23.5 5.1,23.6 5.3,23.7 C5.4,23.8 5.5,24 5.5,24.3 C5.5,24.5 5.4,24.7 5.3,24.9 C5.2,25 4.9,25.1 4.6,25.1 C4.3,25.1 4.1,25 4,24.9 C3.8,24.8 3.8,24.6 3.8,24.3 C3.8,24.1 3.9,23.9 4,23.8 C4.1,23.5 4.3,23.5 4.6,23.5 L4.6,23.5 Z" id="Shape"></path>
                <path d="M11,33 L10.3,33 L10.1,31.7 C9.9,31.8 9.8,31.9 9.5,32 C9.3,32.1 9,32.1 8.7,32.1 C8,32.1 7.5,31.9 7,31.4 C6.6,30.9 6.4,30.3 6.4,29.4 C6.4,29.2 6.4,29 6.5,28.8 C6.3,28.3 6,28.1 5.6,28.1 C5.4,28.1 5.3,28.2 5.2,28.3 C5.1,28.5 5.1,28.7 5.1,29.1 L5.1,30.4 C5.1,31.2 4.9,31.8 4.6,32.2 C4.3,32.6 3.8,32.8 3.2,32.8 C2.4,32.8 1.8,32.5 1.4,31.9 C1,31.3 0.8,30.4 0.8,29.1 C0.8,28.2 1,27.5 1.3,27 C1.6,26.5 2.1,26.2 2.8,26.2 C3.2,26.2 3.6,26.3 3.9,26.6 C4.2,26.9 4.4,27.3 4.5,27.8 C4.6,27.6 4.7,27.5 4.9,27.3 C5.1,27.2 5.3,27.1 5.5,27.1 C5.8,27.1 6,27.2 6.2,27.3 C6.4,27.4 6.6,27.7 6.8,28 C7,27.6 7.2,27.3 7.6,27.1 C8,26.9 8.4,26.8 8.8,26.8 C9.6,26.8 10.2,27 10.6,27.5 C11,28 11.2,28.6 11.2,29.5 C11.2,29.9 11.2,30.2 11.1,30.5 L11.1,33 L11,33 Z M2.7,27.3 C2.3,27.3 2,27.5 1.8,27.8 C1.6,28.1 1.5,28.6 1.5,29.2 C1.5,30.1 1.6,30.8 1.9,31.2 C2.2,31.6 2.5,31.9 3,31.9 C3.4,31.9 3.7,31.8 3.8,31.5 C3.9,31.3 4,30.8 4,30.2 L4,28.9 C4,28.4 3.9,28 3.7,27.8 C3.5,27.4 3.2,27.3 2.7,27.3 L2.7,27.3 Z M8.7,27.9 C8.2,27.9 7.8,28 7.6,28.3 C7.3,28.6 7.2,29 7.2,29.5 C7.2,30.5 7.7,31.1 8.7,31.1 C9.8,31.1 10.3,30.6 10.3,29.5 C10.3,29 10.2,28.6 9.9,28.3 C9.7,28 9.3,27.9 8.7,27.9 L8.7,27.9 Z" id="Shape"></path>
                <path d="M3.9,35.5 L3.9,34.4 L11,34.4 L11,35.5 L3.9,35.5 L3.9,35.5 Z M12.9,34.3 C13.1,34.3 13.3,34.4 13.4,34.5 C13.5,34.6 13.6,34.8 13.6,35 C13.6,35.2 13.5,35.3 13.4,35.4 C13.3,35.5 13.1,35.6 12.9,35.6 C12.7,35.6 12.5,35.5 12.4,35.4 C12.3,35.3 12.2,35.1 12.2,35 C12.2,34.8 12.3,34.7 12.4,34.5 C12.5,34.4 12.7,34.3 12.9,34.3 L12.9,34.3 Z" id="Shape"></path>
                <path d="M10.2,40.9 L10.2,39.1 L3.9,39.1 L3.9,38 L10.2,38 L10.2,36.7 L10.7,36.7 L11.1,38 L11.5,38 C13.2,38 14.1,38.8 14.1,40.3 C14.1,40.7 14,41.1 13.9,41.6 L13,41.3 C13.1,40.9 13.2,40.5 13.2,40.2 C13.2,39.8 13.1,39.5 12.8,39.3 C12.5,39.1 12.1,39 11.5,39 L11,39 L11,40.8 L10.2,40.8 L10.2,40.9 Z" id="Shape"></path>
            </g>
            <path d="M291.4,181.9 L287.1,181.9 L287.1,179.3 L291.4,179.3 L291.4,181.9 L291.4,181.9 Z M282.8,181.9 L278.5,181.9 L278.5,179.3 L282.8,179.3 L282.8,181.9 L282.8,181.9 Z M296.6,180.3 L294,180.3 L294,176 L296.6,176 L296.6,180.3 L296.6,180.3 Z M296.6,171.7 L294,171.7 L294,167.4 L296.6,167.4 L296.6,171.7 L296.6,171.7 Z M296.6,163.1 L294,163.1 L294,158.8 L296.6,158.8 L296.6,163.1 L296.6,163.1 Z M296.6,154.5 L294,154.5 L294,150.2 L296.6,150.2 L296.6,154.5 L296.6,154.5 Z M296.6,146 L294,146 L294,141.7 L296.6,141.7 L296.6,146 L296.6,146 Z M296.6,137.4 L294,137.4 L294,133.1 L296.6,133.1 L296.6,137.4 L296.6,137.4 Z M296.6,128.8 L294,128.8 L294,124.5 L296.6,124.5 L296.6,128.8 L296.6,128.8 Z M296.6,120.3 L294,120.3 L294,116 L296.6,116 L296.6,120.3 L296.6,120.3 Z M296.6,111.7 L294,111.7 L294,107.4 L296.6,107.4 L296.6,111.7 L296.6,111.7 Z M296.6,103.1 L294,103.1 L294,98.8 L296.6,98.8 L296.6,103.1 L296.6,103.1 Z M296.6,94.6 L294,94.6 L294,90.3 L296.6,90.3 L296.6,94.6 L296.6,94.6 Z M296.6,86 L294,86 L294,81.7 L296.6,81.7 L296.6,86 L296.6,86 Z M296.6,77.4 L294,77.4 L294,73.1 L296.6,73.1 L296.6,77.4 L296.6,77.4 Z M296.6,68.8 L294,68.8 L294,64.5 L296.6,64.5 L296.6,68.8 L296.6,68.8 Z M292.5,64.4 L288.2,64.4 L288.2,61.8 L292.5,61.8 L292.5,64.4 L292.5,64.4 Z M284,64.4 L279.7,64.4 L279.7,61.8 L284,61.8 L284,64.4 L284,64.4 Z" id="Shape" fill="#E5E5E5"></path>
            <path d="M595.7,272.9 L508.2,272.9 C507,272.9 506,271.9 506,270.7 L506,159.2 C506,158 507,157 508.2,157 L578.3,157 C578.9,157 579.4,157.2 579.8,157.6 C580.2,158 580.4,158.6 580.4,159.1 L580.4,173.4 L595.8,173.9 C597,173.9 597.9,174.9 597.9,176.1 L597.9,270.7 C597.8,271.9 596.9,272.9 595.7,272.9 L595.7,272.9 Z M510.3,268.6 L593.5,268.6 L593.5,178.3 L578.1,177.8 C576.9,177.8 576,176.8 576,175.6 L576,161.4 L510.2,161.4 L510.2,268.6 L510.3,268.6 Z" id="Shape" fill="#BFBFC1"></path>
            <polygon id="Shape" fill="#BFBFC0" points="596.5 175.9 579 175.3 579.1 159"></polygon>
            <path d="M596.6,178.263816 C596.5,178.263816 596.5,178.263816 596.6,178.263816 L579.1,177.663816 C577.9,177.663816 577,176.663816 577,175.463816 L577,159.163816 C577,158.263816 577.5,157.563816 578.3,157.163816 C579.1,156.863816 580,156.963816 580.6,157.563816 L598,174.463816 C598.6,175.063816 598.8,176.063816 598.5,176.863816 C598.2,177.763816 597.4,178.263816 596.6,178.263816 L596.6,178.263816 Z M581.3,173.463816 L591.1,173.763816 L581.3,164.263816 L581.3,173.463816 L581.3,173.463816 Z" id="Shape" fill="#BFBFC0"></path>
            <path d="M624.9,241.5 L558.7,241.5 C554.4,241.5 551,237.9 551,233.5 L551,209 C551,204.6 554.5,201 558.7,201 L624.9,201 C629.2,201 632.6,204.6 632.6,209 L632.6,233.5 C632.6,237.9 629.1,241.5 624.9,241.5 Z" id="Combined-Shape" fill="#BFBFC0"></path>
            <path d="M578.6,216.8 C578.3,215.4 577.5,214.4 576.2,213.9 C575.5,213.6 574.7,213.4 573.9,213.4 C572.3,213.4 570.9,214 569.9,215.3 C568.8,216.5 568.3,218.4 568.3,220.9 C568.3,223.4 568.9,225.2 570,226.2 C571.1,227.2 572.4,227.8 573.9,227.8 C575.3,227.8 576.5,227.4 577.4,226.6 C578.3,225.8 578.9,224.7 579.1,223.4 L574.4,223.4 L574.4,220 L582.9,220 L582.9,230.9 L580,230.9 L579.6,228.4 C578.8,229.4 578,230 577.4,230.4 C576.3,231.1 574.9,231.4 573.3,231.4 C570.6,231.4 568.4,230.5 566.7,228.6 C564.9,226.7 564,224.2 564,220.9 C564,217.6 564.9,215 566.7,213 C568.5,211 570.9,210 573.9,210 C576.5,210 578.6,210.7 580.1,212 C581.7,213.3 582.6,214.9 582.8,216.9 L578.6,216.9 L578.6,216.8 Z" id="Shape" fill="#FFFFFF"></path>
            <polygon id="Shape" fill="#FFFFFF" points="595.2 231.4 591 231.4 591 211 595.2 211"></polygon>
            <polygon id="Shape" fill="#FFFFFF" points="602 211 616.5 211 616.5 214.6 606.2 214.6 606.2 219.3 615.2 219.3 615.2 222.8 606.2 222.8 606.2 231.3 602 231.3"></polygon>
            <g id="Group-2" transform="translate(754.000000, 197.000000)">
                <path d="M352.8,264.6 L88.4,264.6 C86.6,264.6 85.2,263.2 85.2,261.4 L85.2,3.7 C85.2,1.9 86.6,0.5 88.4,0.5 L352.7,0.5 C354.5,0.5 355.9,1.9 355.9,3.7 L355.9,261.4 C355.9,263.2 354.5,264.6 352.8,264.6 L352.8,264.6 Z" id="Shape" fill="#6FBE44"></path>
                <g id="Group" transform="translate(183.000000, 25.000000)" fill="#FFFFFF">
                    <path d="M6.7,3.7 C6.7,4.7 6.4,5.5 5.7,6 C5.1,6.5 4.2,6.8 3,6.8 L2.1,6.8 L2.1,10.2 L0.1,10.2 L0.1,0.7 L3.1,0.7 C4.2,0.7 5.1,0.9 5.7,1.4 C6.4,2 6.7,2.7 6.7,3.7 L6.7,3.7 Z M2.2,5.2 L2.9,5.2 C3.5,5.2 4,5.1 4.3,4.8 C4.6,4.6 4.8,4.2 4.8,3.7 C4.8,3.2 4.7,2.9 4.4,2.7 C4.1,2.5 3.7,2.4 3.2,2.4 L2.3,2.4 L2.3,5.2 L2.2,5.2 Z" id="Shape"></path>
                    <polygon id="Shape" points="16.2 10.2 14.2 10.2 14.2 6.1 10.5 6.1 10.5 10.2 8.5 10.2 8.5 0.7 10.5 0.7 10.5 4.4 14.2 4.4 14.2 0.7 16.2 0.7"></polygon>
                    <path d="M25.1,3.7 C25.1,4.7 24.8,5.5 24.1,6 C23.5,6.5 22.6,6.8 21.4,6.8 L20.5,6.8 L20.5,10.2 L18.5,10.2 L18.5,0.7 L21.5,0.7 C22.6,0.7 23.5,0.9 24.1,1.4 C24.8,2 25.1,2.7 25.1,3.7 L25.1,3.7 Z M20.6,5.2 L21.3,5.2 C21.9,5.2 22.4,5.1 22.7,4.8 C23,4.6 23.2,4.2 23.2,3.7 C23.2,3.2 23.1,2.9 22.8,2.7 C22.5,2.5 22.1,2.4 21.6,2.4 L20.7,2.4 L20.7,5.2 L20.6,5.2 Z" id="Shape"></path>
                    <path d="M35.9,7.6 C35.9,8.5 35.6,9.1 35,9.6 C34.4,10.1 33.5,10.3 32.4,10.3 C31.4,10.3 30.5,10.1 29.7,9.7 L29.7,7.8 C30.3,8.1 30.9,8.3 31.3,8.4 C31.7,8.5 32.1,8.6 32.5,8.6 C32.9,8.6 33.3,8.5 33.5,8.3 C33.7,8.1 33.9,7.9 33.9,7.5 C33.9,7.3 33.8,7.2 33.7,7 C33.6,6.9 33.4,6.7 33.2,6.6 L32,6 C31.4,5.7 31,5.5 30.7,5.2 C30.4,4.9 30.2,4.7 30,4.3 C29.8,4 29.7,3.6 29.7,3.1 C29.7,2.3 30,1.6 30.6,1.1 C31.2,0.6 32,0.4 33,0.4 C33.5,0.4 34,0.5 34.4,0.6 C34.8,0.7 35.3,0.9 35.8,1.1 L35.2,2.7 C34.7,2.5 34.3,2.3 33.9,2.3 C33.6,2.2 33.2,2.2 32.9,2.2 C32.5,2.2 32.2,2.3 32,2.5 C31.8,2.7 31.7,2.9 31.7,3.2 C31.7,3.4 31.7,3.5 31.8,3.7 C31.9,3.8 32,4 32.2,4.1 C32.4,4.2 32.8,4.4 33.5,4.8 C34.4,5.2 35,5.6 35.3,6.1 C35.8,6.4 35.9,7 35.9,7.6 L35.9,7.6 Z" id="Shape"></path>
                    <path d="M40.8,10.3 C39.6,10.3 38.7,10 38.1,9.3 C37.4,8.7 37.1,7.7 37.1,6.6 C37.1,5.4 37.4,4.5 38,3.8 C38.6,3.1 39.4,2.8 40.5,2.8 C41.5,2.8 42.3,3.1 42.9,3.7 C43.5,4.3 43.8,5.1 43.8,6.1 L43.8,7.1 L39.1,7.1 C39.1,7.7 39.3,8.1 39.6,8.4 C39.9,8.7 40.3,8.9 40.9,8.9 C41.3,8.9 41.7,8.9 42.1,8.8 C42.5,8.7 42.9,8.6 43.3,8.4 L43.3,9.9 C43,10.1 42.6,10.2 42.2,10.3 C41.8,10.3 41.3,10.3 40.8,10.3 L40.8,10.3 Z M40.5,4.2 C40.1,4.2 39.8,4.3 39.5,4.6 C39.3,4.9 39.1,5.2 39.1,5.7 L41.9,5.7 C41.9,5.2 41.8,4.8 41.5,4.6 C41.2,4.4 40.9,4.2 40.5,4.2 L40.5,4.2 Z" id="Shape"></path>
                    <path d="M49.4,2.8 C49.7,2.8 49.9,2.8 50.1,2.9 L50,4.7 C49.8,4.7 49.6,4.6 49.4,4.6 C48.8,4.6 48.3,4.8 47.9,5.1 C47.5,5.4 47.4,5.9 47.4,6.5 L47.4,10.2 L45.4,10.2 L45.4,3 L46.9,3 L47.2,4.2 L47.3,4.2 C47.5,3.8 47.8,3.5 48.2,3.2 C48.5,3 48.9,2.8 49.4,2.8 L49.4,2.8 Z" id="Shape"></path>
                    <path d="M53.1,10.2 L50.3,3 L52.4,3 L53.8,7.1 C54,7.6 54.1,8.1 54.1,8.6 L54.1,8.6 C54.1,8.2 54.2,7.7 54.4,7.1 L55.8,3 L57.9,3 L55.1,10.2 L53.1,10.2 L53.1,10.2 Z" id="Shape"></path>
                    <path d="M62.1,10.3 C60.9,10.3 60,10 59.4,9.3 C58.7,8.7 58.4,7.7 58.4,6.6 C58.4,5.4 58.7,4.5 59.3,3.8 C59.9,3.1 60.7,2.8 61.8,2.8 C62.8,2.8 63.6,3.1 64.2,3.7 C64.8,4.3 65.1,5.1 65.1,6.1 L65.1,7.1 L60.4,7.1 C60.4,7.7 60.6,8.1 60.9,8.4 C61.2,8.7 61.6,8.9 62.2,8.9 C62.6,8.9 63,8.9 63.4,8.8 C63.8,8.7 64.2,8.6 64.6,8.4 L64.6,9.9 C64.3,10.1 63.9,10.2 63.5,10.3 C63.2,10.3 62.7,10.3 62.1,10.3 L62.1,10.3 Z M61.9,4.2 C61.5,4.2 61.2,4.3 60.9,4.6 C60.7,4.9 60.5,5.2 60.5,5.7 L63.3,5.7 C63.3,5.2 63.2,4.8 62.9,4.6 C62.6,4.4 62.3,4.2 61.9,4.2 L61.9,4.2 Z" id="Shape"></path>
                    <path d="M70.7,2.8 C71,2.8 71.2,2.8 71.4,2.9 L71.3,4.7 C71.1,4.7 70.9,4.6 70.7,4.6 C70.1,4.6 69.6,4.8 69.2,5.1 C68.8,5.4 68.7,5.9 68.7,6.5 L68.7,10.2 L66.7,10.2 L66.7,3 L68.2,3 L68.5,4.2 L68.6,4.2 C68.8,3.8 69.1,3.5 69.5,3.2 C69.9,3 70.3,2.8 70.7,2.8 L70.7,2.8 Z" id="Shape"></path>
                </g>
                <rect id="Rectangle-path" fill="#F4F2F1" x="84.9" y="55.3" width="272.4" height="209.3"></rect>
                <path d="M217.7,224.8 L130.2,224.8 C129,224.8 128,223.8 128,222.6 L128,111.2 C128,110 129,109 130.2,109 L200.3,109 C200.9,109 201.4,109.2 201.8,109.6 C202.2,110 202.4,110.6 202.4,111.1 L202.4,125.4 L217.8,125.9 C219,125.9 219.9,126.9 219.9,128.1 L219.9,222.7 C219.8,223.9 218.9,224.8 217.7,224.8 L217.7,224.8 Z M132.3,220.5 L215.5,220.5 L215.5,130.2 L200.1,129.7 C198.9,129.7 198,128.7 198,127.5 L198,113.3 L132.2,113.3 L132.2,220.5 L132.3,220.5 Z" id="Shape" fill="#BFBFC1"></path>
                <polygon id="Shape" fill="#BFBFC0" points="218.5 127.9 201 127.4 201.1 111"></polygon>
                <path d="M217.6,129.263816 C217.5,129.263816 217.5,129.263816 217.6,129.263816 L200.1,128.663816 C198.9,128.663816 198,127.663816 198,126.463816 L198,110.163816 C198,109.263816 198.5,108.563816 199.3,108.163816 C200.1,107.863816 201,107.963816 201.6,108.563816 L219,125.463816 C219.6,126.063816 219.8,127.063816 219.5,127.863816 C219.2,128.763816 218.4,129.263816 217.6,129.263816 L217.6,129.263816 Z M202.3,124.463816 L212.1,124.763816 L202.3,115.263816 L202.3,124.463816 L202.3,124.463816 Z" id="Shape" fill="#BFBFC0"></path>
                <g id="Group" transform="translate(288.000000, 141.000000)" fill="#BFBFC1">
                    <path d="M5.3,10.9 L5.3,6.3 C5.3,5.7 5.2,5.3 4.9,5 C4.6,4.7 4.2,4.6 3.7,4.6 C3,4.6 2.4,4.8 2.1,5.2 C1.8,5.6 1.6,6.3 1.6,7.2 L1.6,10.9 L0.5,10.9 L0.5,3.8 L1.4,3.8 L1.6,4.8 L1.7,4.8 C1.9,4.5 2.2,4.2 2.6,4 C3,3.8 3.4,3.7 3.9,3.7 C4.8,3.7 5.4,3.9 5.8,4.3 C6.2,4.7 6.4,5.4 6.4,6.3 L6.4,10.9 L5.3,10.9 L5.3,10.9 Z" id="Shape"></path>
                    <path d="M11.6,11 C10.6,11 9.7,10.7 9.1,10 C8.5,9.4 8.2,8.5 8.2,7.3 C8.2,6.2 8.5,5.3 9,4.6 C9.6,3.9 10.3,3.6 11.3,3.6 C12.2,3.6 12.9,3.9 13.4,4.5 C13.9,5.1 14.2,5.9 14.2,6.8 L14.2,7.5 L9.3,7.5 C9.3,8.3 9.5,9 9.9,9.4 C10.3,9.8 10.9,10 11.6,10 C12.4,10 13.1,9.8 13.9,9.5 L13.9,10.5 C13.5,10.7 13.2,10.8 12.8,10.9 C12.5,11 12.1,11 11.6,11 L11.6,11 Z M11.3,4.6 C10.7,4.6 10.3,4.8 9.9,5.2 C9.6,5.6 9.4,6.1 9.3,6.7 L13,6.7 C13,6 12.8,5.5 12.5,5.1 C12.3,4.7 11.9,4.6 11.3,4.6 L11.3,4.6 Z" id="Shape"></path>
                    <path d="M21.8,10.9 L20.5,6.7 C20.4,6.4 20.3,5.9 20,5 L20,5 C19.8,5.8 19.7,6.3 19.5,6.7 L18.2,10.8 L17,10.8 L15.1,3.7 L16.2,3.7 C16.7,5.5 17,6.8 17.2,7.8 C17.4,8.7 17.6,9.4 17.6,9.7 L17.7,9.7 C17.7,9.5 17.8,9.1 17.9,8.7 C18,8.3 18.1,8 18.2,7.8 L19.5,3.7 L20.7,3.7 L22,7.8 C22.2,8.5 22.4,9.2 22.5,9.7 L22.6,9.7 C22.6,9.5 22.7,9.3 22.7,9 C22.8,8.7 23.2,6.9 24,3.8 L25.1,3.8 L23.1,10.9 L21.8,10.9 L21.8,10.9 Z" id="Shape"></path>
                    <path d="M34.6,9.9 L34.6,9.9 C34,10.6 33.3,11 32.3,11 C31.4,11 30.7,10.7 30.1,10 C29.6,9.4 29.3,8.5 29.3,7.3 C29.3,6.1 29.6,5.2 30.1,4.6 C30.6,4 31.3,3.6 32.3,3.6 C33.3,3.6 34,3.9 34.5,4.6 L34.6,4.6 L34.6,4.1 L34.6,3.6 L34.6,0.7 L35.7,0.7 L35.7,10.8 L34.8,10.8 L34.6,9.9 L34.6,9.9 Z M32.5,10.1 C33.2,10.1 33.8,9.9 34.1,9.5 C34.4,9.1 34.6,8.5 34.6,7.6 L34.6,7.4 C34.6,6.4 34.4,5.7 34.1,5.3 C33.8,4.9 33.2,4.7 32.5,4.7 C31.9,4.7 31.4,4.9 31.1,5.4 C30.8,5.9 30.6,6.6 30.6,7.5 C30.6,8.4 30.8,9.1 31.1,9.5 C31.3,9.9 31.8,10.1 32.5,10.1 L32.5,10.1 Z" id="Shape"></path>
                    <path d="M42.3,10.9 L42.1,9.9 L42,9.9 C41.6,10.3 41.3,10.6 40.9,10.8 C40.5,11 40.1,11 39.6,11 C38.9,11 38.3,10.8 37.9,10.5 C37.5,10.1 37.3,9.6 37.3,9 C37.3,7.6 38.4,6.8 40.7,6.7 L41.9,6.7 L41.9,6.3 C41.9,5.7 41.8,5.3 41.5,5.1 C41.3,4.8 40.9,4.7 40.4,4.7 C39.8,4.7 39.1,4.9 38.4,5.2 L38.1,4.4 C38.4,4.2 38.8,4.1 39.2,4 C39.6,3.9 40,3.8 40.5,3.8 C41.3,3.8 42,4 42.4,4.4 C42.8,4.8 43,5.4 43,6.2 L43,11 L42.3,11 L42.3,10.9 Z M39.8,10.1 C40.5,10.1 41,9.9 41.4,9.6 C41.8,9.2 42,8.7 42,8.1 L42,7.5 L40.9,7.5 C40,7.5 39.4,7.7 39.1,7.9 C38.7,8.1 38.5,8.5 38.5,9 C38.5,9.4 38.6,9.7 38.9,9.9 C39.1,10 39.4,10.1 39.8,10.1 L39.8,10.1 Z" id="Shape"></path>
                    <path d="M47.5,10.1 L48,10.1 C48.2,10.1 48.3,10 48.4,10 L48.4,10.8 C48.3,10.9 48.1,10.9 47.9,10.9 C47.7,10.9 47.5,11 47.3,11 C45.9,11 45.2,10.3 45.2,8.8 L45.2,4.6 L44.2,4.6 L44.2,4.1 L45.2,3.7 L45.7,2.2 L46.3,2.2 L46.3,3.8 L48.4,3.8 L48.4,4.6 L46.3,4.6 L46.3,8.8 C46.3,9.2 46.4,9.6 46.6,9.8 C46.8,10 47.2,10.1 47.5,10.1 L47.5,10.1 Z" id="Shape"></path>
                    <path d="M54.3,10.9 L54.1,9.9 L54,9.9 C53.6,10.3 53.3,10.6 52.9,10.8 C52.5,11 52.1,11 51.6,11 C50.9,11 50.3,10.8 49.9,10.5 C49.5,10.1 49.3,9.6 49.3,9 C49.3,7.6 50.4,6.8 52.7,6.7 L53.9,6.7 L53.9,6.3 C53.9,5.7 53.8,5.3 53.5,5.1 C53.3,4.8 52.9,4.7 52.4,4.7 C51.8,4.7 51.1,4.9 50.4,5.2 L50.1,4.4 C50.4,4.2 50.8,4.1 51.2,4 C51.6,3.9 52,3.8 52.5,3.8 C53.3,3.8 54,4 54.4,4.4 C54.8,4.8 55,5.4 55,6.2 L55,11 L54.3,11 L54.3,10.9 Z M51.9,10.1 C52.6,10.1 53.1,9.9 53.5,9.6 C53.9,9.2 54.1,8.7 54.1,8.1 L54.1,7.5 L53,7.5 C52.1,7.5 51.5,7.7 51.2,7.9 C50.8,8.1 50.6,8.5 50.6,9 C50.6,9.4 50.7,9.7 51,9.9 C51.1,10 51.4,10.1 51.9,10.1 L51.9,10.1 Z" id="Shape"></path>
                </g>
                <polygon id="Shape" fill="#BFBFC1" points="168.3 183 148 169.3 148 168.9 168.3 156 168.3 158.3 151.4 169.1 168.3 180.7"></polygon>
                <polygon id="Shape" fill="#BFBFC1" points="181 155 201.3 168.7 201.3 169.1 181 182 181 179.7 197.9 168.9 181 157.3"></polygon>
                <g id="Group-3" transform="translate(99.000000, 277.500000) scale(-1, 1) translate(-99.000000, -277.500000) translate(0.000000, 173.000000)">
                    <path d="M100.6,27 C100.6,27.5 100.3,27.6 99.9,27.3 L84.8,14.1 C84.4,13.8 84.5,13.3 84.8,13 L100.8,0.8 C101.2,0.5 101.5,0.7 101.5,1.1 L100.6,27 L100.6,27 Z" id="Shape" fill="#DEDDDD"></path>
                    <path d="M100,209 L100,206.4 C101.4,206.4 102.8,206.3 104.2,206.3 L104.3,208.9 C102.9,208.9 101.5,209 100,209 L100,209 Z M95.7,208.9 C94.3,208.9 92.8,208.8 91.4,208.7 L91.6,206.1 C93,206.2 94.4,206.3 95.8,206.3 L95.7,208.9 L95.7,208.9 Z M108.7,208.5 L108.5,205.9 C109.9,205.8 111.3,205.6 112.7,205.4 L113.1,207.9 C111.6,208.2 110.1,208.4 108.7,208.5 L108.7,208.5 Z M87,208.3 C85.6,208.1 84.1,207.9 82.7,207.7 L83.1,205.2 C84.5,205.4 85.9,205.6 87.3,205.8 L87,208.3 L87,208.3 Z M117.3,207.3 L116.8,204.8 C118.2,204.5 119.6,204.3 120.9,203.9 L121.5,206.4 C120.1,206.8 118.7,207.1 117.3,207.3 L117.3,207.3 Z M78.5,206.8 C77.1,206.5 75.7,206.2 74.3,205.8 L74.9,203.3 C76.3,203.7 77.6,204 79,204.3 L78.5,206.8 L78.5,206.8 Z M125.7,205.3 L125,202.8 C126.3,202.4 127.7,202 129,201.6 L129.8,204 C128.5,204.5 127.1,205 125.7,205.3 L125.7,205.3 Z M70.1,204.6 C68.7,204.2 67.3,203.7 66,203.2 L66.9,200.8 C68.2,201.3 69.6,201.7 70.9,202.1 L70.1,204.6 L70.1,204.6 Z M134,202.6 L133.1,200.2 C134.4,199.7 135.7,199.2 137,198.6 L138,201 C136.7,201.6 135.3,202.1 134,202.6 L134,202.6 Z M61.9,201.7 C60.6,201.2 59.2,200.6 57.9,200 L59,197.7 C60.3,198.3 61.6,198.9 62.9,199.4 L61.9,201.7 L61.9,201.7 Z M141.9,199.2 L140.8,196.9 C142.1,196.3 143.3,195.6 144.6,195 L145.8,197.3 C144.5,197.9 143.2,198.6 141.9,199.2 L141.9,199.2 Z M54,198.1 C52.7,197.4 51.4,196.7 50.2,196 L51.5,193.8 C52.7,194.5 54,195.2 55.2,195.8 L54,198.1 L54,198.1 Z M149.5,195.1 L148.2,192.9 C149.4,192.2 150.6,191.4 151.8,190.7 L153.2,192.8 C152,193.6 150.8,194.3 149.5,195.1 L149.5,195.1 Z M46.4,193.7 C45.2,192.9 44,192.1 42.8,191.3 L44.3,189.2 C45.4,190 46.6,190.8 47.8,191.5 L46.4,193.7 L46.4,193.7 Z M156.8,190.3 L155.3,188.2 C156.4,187.4 157.6,186.5 158.7,185.6 L160.3,187.6 C159.1,188.6 157.9,189.5 156.8,190.3 L156.8,190.3 Z M39.3,188.8 C38.2,187.9 37,187 35.9,186.1 L37.6,184.1 C38.7,185 39.8,185.9 40.9,186.7 L39.3,188.8 L39.3,188.8 Z M163.6,184.9 L161.9,183 C163,182.1 164,181.1 165,180.2 L166.8,182.1 C165.7,183 164.7,184 163.6,184.9 L163.6,184.9 Z M32.7,183.2 C31.6,182.2 30.6,181.2 29.6,180.2 L31.4,178.4 C32.4,179.4 33.4,180.4 34.5,181.3 L32.7,183.2 L32.7,183.2 Z M169.9,178.9 L168,177.1 C169,176.1 170,175 170.9,174 L172.8,175.7 C171.9,176.8 170.9,177.9 169.9,178.9 L169.9,178.9 Z M26.5,177 C25.5,175.9 24.6,174.8 23.6,173.7 L25.6,172 C26.5,173.1 27.4,174.1 28.4,175.2 L26.5,177 L26.5,177 Z M175.6,172.4 L173.6,170.8 C174.5,169.7 175.4,168.6 176.2,167.5 L178.3,169 C177.4,170.2 176.5,171.3 175.6,172.4 L175.6,172.4 Z M20.9,170.4 C20,169.3 19.2,168.1 18.3,166.9 L20.4,165.4 C21.2,166.6 22,167.7 22.9,168.8 L20.9,170.4 L20.9,170.4 Z M180.8,165.5 L178.7,164.1 C179.5,162.9 180.3,161.7 181,160.5 L183.2,161.8 C182.4,163 181.6,164.3 180.8,165.5 L180.8,165.5 Z M16,163.3 C15.2,162.1 14.5,160.8 13.8,159.6 L16,158.3 C16.7,159.5 17.4,160.7 18.2,161.9 L16,163.3 L16,163.3 Z M185.3,158 L183,156.8 C183.7,155.6 184.3,154.3 185,153 L187.3,154.1 C186.7,155.5 186,156.8 185.3,158 L185.3,158 Z M11.7,155.8 C11,154.5 10.4,153.2 9.8,151.9 L12.1,150.8 C12.7,152.1 13.3,153.3 14,154.6 L11.7,155.8 L11.7,155.8 Z M189.2,150.2 L186.8,149.2 C187.4,147.9 187.9,146.6 188.4,145.3 L190.8,146.2 C190.3,147.6 189.8,148.9 189.2,150.2 L189.2,150.2 Z M8,147.9 C7.5,146.6 6.9,145.2 6.4,143.8 L8.8,142.9 C9.3,144.2 9.8,145.5 10.3,146.8 L8,147.9 L8,147.9 Z M192.3,142.1 L189.9,141.3 C190.4,140 190.8,138.6 191.2,137.3 L193.7,138 C193.2,139.4 192.8,140.8 192.3,142.1 L192.3,142.1 Z M5.1,139.7 C4.7,138.3 4.3,136.9 3.9,135.5 L6.4,134.8 C6.8,136.2 7.1,137.5 7.6,138.9 L5.1,139.7 L5.1,139.7 Z M194.7,133.8 L192.2,133.2 C192.5,131.8 192.8,130.5 193.1,129.1 L195.6,129.6 C195.4,131 195.1,132.4 194.7,133.8 L194.7,133.8 Z M2.9,131.4 C2.6,130 2.3,128.6 2.1,127.1 L4.6,126.7 C4.8,128.1 5.1,129.5 5.4,130.9 L2.9,131.4 L2.9,131.4 Z M196.4,125.3 L193.9,124.9 C194.1,123.5 194.3,122.1 194.4,120.7 L197,121 C196.8,122.4 196.6,123.9 196.4,125.3 L196.4,125.3 Z M1.4,122.8 C1.2,121.4 1.1,119.9 1,118.5 L3.6,118.3 C3.7,119.7 3.9,121.1 4,122.5 L1.4,122.8 L1.4,122.8 Z M197.3,116.6 L194.7,116.4 C194.8,115 194.8,113.6 194.9,112.2 L197.5,112.2 C197.4,113.8 197.4,115.2 197.3,116.6 L197.3,116.6 Z M0.8,114.1 C0.8,112.9 0.7,111.7 0.7,110.6 L0.7,109.8 L3.3,109.8 L3.3,110.6 C3.3,111.7 3.3,112.9 3.4,114.1 L0.8,114.1 L0.8,114.1 Z M194.9,108 C194.9,106.6 194.8,105.2 194.7,103.8 L197.3,103.6 C197.4,105 197.5,106.5 197.5,107.9 L194.9,108 L194.9,108 Z M3.4,105.6 L0.8,105.5 C0.9,104.1 1,102.6 1.1,101.2 L3.7,101.4 C3.6,102.8 3.5,104.2 3.4,105.6 L3.4,105.6 Z M194.3,99.6 C194.1,98.2 193.9,96.8 193.7,95.4 L196.2,95 C196.4,96.4 196.6,97.9 196.8,99.3 L194.3,99.6 L194.3,99.6 Z M4.2,97.2 L1.7,96.8 C1.9,95.4 2.1,93.9 2.4,92.5 L4.9,93 C4.6,94.4 4.4,95.8 4.2,97.2 L4.2,97.2 Z M193,91.3 C192.7,89.9 192.4,88.5 192.1,87.2 L194.6,86.6 C195,88 195.3,89.4 195.6,90.8 L193,91.3 L193,91.3 Z M5.7,88.9 L3.2,88.3 C3.5,86.9 3.9,85.5 4.3,84.1 L6.8,84.8 C6.4,86.1 6.1,87.5 5.7,88.9 L5.7,88.9 Z M190.9,83.1 C190.5,81.8 190.1,80.4 189.6,79.1 L192,78.3 C192.5,79.7 192.9,81.1 193.3,82.4 L190.9,83.1 L190.9,83.1 Z M8,80.7 L5.6,79.9 C6,78.5 6.5,77.2 7,75.8 L9.4,76.7 C8.9,78 8.5,79.4 8,80.7 L8,80.7 Z M188.1,75.1 C187.6,73.8 187,72.5 186.4,71.2 L188.7,70.1 C189.3,71.4 189.9,72.7 190.4,74.1 L188.1,75.1 L188.1,75.1 Z M11,72.8 L8.6,71.8 C9,70.8 9.4,69.9 9.9,69 L12.2,70.1 L11,72.8 L11,72.8 Z M184.6,67.4 C184,66.2 183.3,64.9 182.6,63.7 L184.8,62.4 C185.5,63.7 186.2,64.9 186.8,66.2 L184.6,67.4 L184.6,67.4 Z M180.5,60 C179.8,58.8 179,57.6 178.2,56.5 L180.3,55 C181.1,56.2 181.9,57.4 182.7,58.6 L180.5,60 L180.5,60 Z M175.7,53.1 C174.9,52 174,50.9 173.1,49.8 L175.1,48.2 C176,49.3 176.9,50.5 177.8,51.6 L175.7,53.1 L175.7,53.1 Z M170.4,46.5 C169.5,45.5 168.5,44.4 167.5,43.4 L169.3,41.6 C170.3,42.6 171.3,43.7 172.3,44.8 L170.4,46.5 L170.4,46.5 Z M164.4,40.5 C163.4,39.5 162.3,38.6 161.2,37.7 L162.9,35.7 C164,36.6 165.1,37.6 166.1,38.6 L164.4,40.5 L164.4,40.5 Z M158,35 C156.9,34.1 155.8,33.3 154.6,32.5 L156.1,30.4 C157.3,31.2 158.5,32.1 159.6,33 L158,35 L158,35 Z M151.1,30.1 C149.9,29.3 148.7,28.6 147.5,27.9 L148.8,25.7 C150,26.4 151.3,27.2 152.5,28 L151.1,30.1 L151.1,30.1 Z M143.8,25.8 C142.6,25.1 141.3,24.5 140,23.9 L141.1,21.6 C142.4,22.2 143.7,22.9 145,23.5 L143.8,25.8 L143.8,25.8 Z M136.2,22.2 C134.9,21.7 133.6,21.1 132.3,20.6 L133.2,18.2 C134.6,18.7 135.9,19.2 137.2,19.8 L136.2,22.2 L136.2,22.2 Z M128.2,19.3 C126.9,18.9 125.5,18.5 124.1,18.1 L124.8,15.6 C126.2,16 127.6,16.4 129,16.8 L128.2,19.3 L128.2,19.3 Z M120.1,17.1 C118.7,16.8 117.3,16.5 116,16.3 L116.4,13.8 C117.8,14.1 119.3,14.3 120.7,14.7 L120.1,17.1 L120.1,17.1 Z M111.7,15.6 C110.3,15.4 108.9,15.3 107.5,15.1 L107.7,12.5 C109.1,12.6 110.6,12.8 112,13 L111.7,15.6 L111.7,15.6 Z M103.3,14.9 C101.9,14.8 100.5,14.8 99.1,14.8 L99.1,12.2 C100.5,12.2 102,12.2 103.4,12.3 L103.3,14.9 L103.3,14.9 Z" id="Shape" fill="#E5E5E5"></path>
                    <circle id="Oval" fill="#DEDDDD" cx="11.1" cy="69.5" r="4.4"></circle>
                </g>
                <path d="M471.705105,155.768932 C473.205105,155.968932 474.605105,156.168932 476.005105,156.468932 C484.505105,158.468932 490.305105,166.168932 490.005105,175.168932 C489.805105,183.568932 483.305105,190.868932 474.905105,192.368932 C473.905105,192.568932 472.805105,192.668932 471.805105,192.668932 L401.905105,192.668932 C394.505105,192.668932 388.805105,186.768932 389.005105,179.368932 C389.205105,172.668932 394.805105,167.068932 401.505105,167.068932 C402.705105,167.068932 403.105105,166.768932 403.505105,165.668932 C406.405105,158.068932 413.605105,153.068932 421.805105,153.068932 C422.605105,153.068932 422.905105,152.768932 423.105105,151.968932 C425.805105,140.168932 436.805105,132.168932 448.805105,133.068932 C460.405105,133.868932 470.505105,143.168932 471.605105,155.468932 C471.605105,155.568932 471.705105,155.668932 471.705105,155.768932 L471.705105,155.768932 Z" id="Shape" fill="#BFBFC1"></path>
                <g id="Group" transform="translate(421.000000, 161.000000)" fill="#FFFFFF">
                    <path d="M6.3,0.5 L10.1,0.5 L15.7,16.4 L12.1,16.4 L11,13.1 L5.1,13.1 L4,16.4 L0.5,16.4 L6.3,0.5 L6.3,0.5 Z M6.1,10.4 L10.2,10.4 L8.2,4.1 L6.1,10.4 L6.1,10.4 Z" id="Shape"></path>
                    <path d="M30.6,9.5 C29.7,10.3 28.3,10.7 26.6,10.7 L23.3,10.7 L23.3,16.4 L20,16.4 L20,0.5 L26.8,0.5 C28.4,0.5 29.6,0.9 30.6,1.7 C31.5,2.5 32,3.8 32,5.5 C32,7.4 31.6,8.7 30.6,9.5 L30.6,9.5 Z M28.1,3.7 C27.7,3.3 27.1,3.2 26.3,3.2 L23.3,3.2 L23.3,7.9 L26.3,7.9 C27.1,7.9 27.6,7.7 28.1,7.3 C28.5,6.9 28.7,6.3 28.7,5.5 C28.7,4.7 28.5,4.1 28.1,3.7 L28.1,3.7 Z" id="Shape"></path>
                    <polygon id="Shape" points="39.9 16.4 36.6 16.4 36.6 0.5 39.9 0.5"></polygon>
                </g>
                <g id="Group" transform="translate(95.000000, 295.000000)" fill="#BFBFC1">
                    <path d="M10.5,6.6 C10.5,6.2 10.4,5.9 10.1,5.4 C9.6,4.7 8.9,4.4 8,4.4 C6.6,4.4 5.6,5.2 5,6.7 C4.7,7.6 4.5,8.8 4.3,10.5 C4.8,9.9 5.4,9.4 6.2,9.1 C6.9,8.8 7.7,8.7 8.6,8.7 C10.5,8.7 12.1,9.4 13.4,10.7 C14.6,12 15.3,13.7 15.3,15.7 C15.3,17.7 14.7,19.5 13.5,21.1 C12.3,22.7 10.4,23.4 7.8,23.4 C5.1,23.4 3,22.3 1.7,20 C0.7,18.2 0.2,15.9 0.2,13 C0.2,11.3 0.3,10 0.4,8.9 C0.7,7 1.1,5.5 1.9,4.3 C2.5,3.2 3.3,2.4 4.3,1.8 C5.3,1.2 6.5,0.8 7.9,0.8 C9.9,0.8 11.5,1.3 12.7,2.4 C13.9,3.4 14.6,4.8 14.7,6.5 L10.5,6.5 L10.5,6.6 Z M5.4,18.9 C6,19.6 6.8,20 7.8,20 C8.8,20 9.5,19.6 10,18.9 C10.5,18.2 10.8,17.3 10.8,16.1 C10.8,14.8 10.5,13.9 9.9,13.2 C9.3,12.5 8.5,12.2 7.6,12.2 C6.9,12.2 6.2,12.4 5.7,12.9 C4.9,13.6 4.4,14.6 4.4,16.1 C4.5,17.2 4.8,18.2 5.4,18.9 L5.4,18.9 Z" id="Shape"></path>
                    <path d="M31.3,3.9 C32.4,5.9 33,8.6 33,12.2 C33,15.8 32.4,18.6 31.3,20.5 C30.2,22.4 28.2,23.4 25.5,23.4 C22.8,23.4 20.8,22.4 19.7,20.5 C18.6,18.6 18,15.8 18,12.2 C18,8.6 18.6,5.8 19.7,3.9 C20.8,1.9 22.8,1 25.5,1 C28.2,1 30.2,2 31.3,3.9 L31.3,3.9 Z M22.9,18 C23.3,19.3 24.2,20 25.4,20 C26.6,20 27.5,19.3 27.9,18 C28.3,16.7 28.5,14.8 28.5,12.2 C28.5,9.6 28.3,7.6 27.9,6.4 C27.5,5.1 26.7,4.5 25.4,4.5 C24.1,4.5 23.3,5.1 22.9,6.4 C22.5,7.7 22.3,9.6 22.3,12.2 C22.3,14.8 22.5,16.7 22.9,18 L22.9,18 Z" id="Shape"></path>
                    <path d="M37.5,19.7 C37.6,20.2 37.7,20.5 37.9,20.7 C38.2,21.1 38.9,21.2 39.8,21.2 C40.3,21.2 40.8,21.1 41.1,21 C41.4,20.8 41.6,20.6 41.6,20.3 C41.6,20 41.5,19.8 41.2,19.6 C40.9,19.4 40,19.2 38.4,18.8 C37.2,18.5 36.4,18.1 35.9,17.7 C35.4,17.3 35.2,16.7 35.2,15.8 C35.2,14.8 35.6,14 36.3,13.3 C37.1,12.6 38.1,12.3 39.5,12.3 C40.8,12.3 41.8,12.6 42.7,13.1 C43.5,13.6 44,14.5 44.1,15.8 L41.4,15.8 C41.4,15.5 41.3,15.2 41.1,15 C40.8,14.6 40.3,14.5 39.6,14.5 C39,14.5 38.6,14.6 38.3,14.8 C38,15 37.9,15.2 37.9,15.4 C37.9,15.7 38,15.9 38.3,16.1 C38.6,16.2 39.5,16.5 41.1,16.8 C42.2,17.1 43,17.4 43.5,17.9 C44,18.4 44.3,19.1 44.3,19.8 C44.3,20.8 43.9,21.7 43.2,22.3 C42.4,22.9 41.3,23.3 39.7,23.3 C38.1,23.3 36.9,23 36.1,22.3 C35.3,21.6 34.9,20.7 34.9,19.7 L37.5,19.7 L37.5,19.7 Z" id="Shape"></path>
                </g>
                <g id="Group" transform="translate(55.000000, 290.000000)">
                    <circle id="Oval" fill="#BFBFC1" cx="17.6" cy="17.5" r="17.1"></circle>
                    <g transform="translate(14.000000, 5.000000)" id="Shape">
                        <polyline fill="#BFBFC1" points="1.3 1.7 1.3 13 11 20.7"></polyline>
                        <path d="M11,21.8 C10.8,21.8 10.5,21.7 10.3,21.6 L0.7,13.9 C0.4,13.7 0.3,13.4 0.3,13 L0.3,1.7 C0.3,1.1 0.8,0.6 1.4,0.6 C2,0.6 2.5,1.1 2.5,1.7 L2.5,12.5 L11.7,19.9 C12.2,20.3 12.3,21 11.9,21.4 C11.6,21.7 11.3,21.8 11,21.8 L11,21.8 Z" fill="#F4F2F1"></path>
                    </g>
                </g>
                <g id="Group" transform="translate(131.000000, 87.000000)" fill="#BFBFC1">
                    <path d="M7.6,3.4 L7.6,4.1 L6.3,4.3 C6.4,4.5 6.5,4.6 6.6,4.9 C6.7,5.1 6.7,5.4 6.7,5.7 C6.7,6.4 6.5,6.9 6,7.4 C5.5,7.8 4.9,8 4,8 C3.8,8 3.6,8 3.4,7.9 C2.9,8.1 2.7,8.4 2.7,8.8 C2.7,9 2.8,9.1 2.9,9.2 C3.1,9.3 3.3,9.3 3.7,9.3 L5,9.3 C5.8,9.3 6.4,9.5 6.8,9.8 C7.2,10.1 7.4,10.6 7.4,11.2 C7.4,12 7.1,12.6 6.5,13 C5.9,13.4 5,13.6 3.7,13.6 C2.8,13.6 2.1,13.4 1.6,13.1 C1.1,12.8 0.8,12.3 0.8,11.6 C0.8,11.2 0.9,10.8 1.2,10.5 C1.5,10.2 1.9,10 2.4,9.9 C2.2,9.8 2.1,9.7 1.9,9.5 C1.8,9.3 1.7,9.1 1.7,8.9 C1.7,8.6 1.8,8.4 1.9,8.2 C2,8 2.3,7.8 2.6,7.6 C2.2,7.4 1.9,7.2 1.7,6.8 C1.5,6.4 1.4,6 1.4,5.6 C1.4,4.8 1.6,4.2 2.1,3.8 C2.6,3.4 3.2,3.2 4.1,3.2 C4.5,3.2 4.8,3.2 5.1,3.3 L7.6,3.3 L7.6,3.4 Z M1.9,11.7 C1.9,12.1 2.1,12.4 2.4,12.6 C2.7,12.8 3.2,12.9 3.8,12.9 C4.7,12.9 5.4,12.8 5.8,12.5 C6.2,12.2 6.5,11.9 6.5,11.4 C6.5,11 6.4,10.7 6.1,10.6 C5.9,10.5 5.4,10.4 4.8,10.4 L3.5,10.4 C3,10.4 2.6,10.5 2.4,10.7 C2.1,10.9 1.9,11.2 1.9,11.7 L1.9,11.7 Z M2.5,5.7 C2.5,6.2 2.6,6.6 2.9,6.8 C3.2,7.1 3.6,7.2 4.1,7.2 C5.1,7.2 5.7,6.7 5.7,5.7 C5.7,4.6 5.2,4.1 4.1,4.1 C3.6,4.1 3.2,4.2 2.9,4.5 C2.6,4.7 2.5,5.1 2.5,5.7 L2.5,5.7 Z" id="Shape"></path>
                    <path d="M8.9,1.5 C8.9,1.3 9,1.1 9.1,1 C9.2,0.9 9.4,0.8 9.6,0.8 C9.8,0.8 9.9,0.9 10,1 C10.1,1.1 10.2,1.3 10.2,1.5 C10.2,1.7 10.1,1.9 10,2 C9.9,2.1 9.7,2.2 9.6,2.2 C9.4,2.2 9.3,2.1 9.1,2 C9,1.9 8.9,1.7 8.9,1.5 L8.9,1.5 Z M10.1,10.5 L9,10.5 L9,3.4 L10.1,3.4 L10.1,10.5 L10.1,10.5 Z" id="Shape"></path>
                    <path d="M15.6,4.2 L13.8,4.2 L13.8,10.5 L12.7,10.5 L12.7,4.2 L11.4,4.2 L11.4,3.7 L12.7,3.3 L12.7,3 C12.7,1.3 13.5,0.4 15,0.4 C15.4,0.4 15.8,0.5 16.3,0.6 L16,1.5 C15.6,1.4 15.2,1.3 14.9,1.3 C14.5,1.3 14.2,1.4 14,1.7 C13.8,2 13.7,2.4 13.7,3 L13.7,3.5 L15.5,3.5 L15.5,4.2 L15.6,4.2 Z" id="Shape"></path>
                    <polygon id="Shape" points="16.3 7.4 16.3 6.4 19.5 6.4 19.5 7.4"></polygon>
                    <path d="M26.9,3.4 L26.9,4.1 L25.6,4.3 C25.7,4.5 25.8,4.6 25.9,4.9 C26,5.1 26,5.4 26,5.7 C26,6.4 25.8,6.9 25.3,7.4 C24.8,7.8 24.2,8 23.3,8 C23.1,8 22.9,8 22.7,7.9 C22.2,8.1 22,8.4 22,8.8 C22,9 22.1,9.1 22.2,9.2 C22.4,9.3 22.6,9.3 23,9.3 L24.3,9.3 C25.1,9.3 25.7,9.5 26.1,9.8 C26.5,10.1 26.7,10.6 26.7,11.2 C26.7,12 26.4,12.6 25.8,13 C25.2,13.4 24.3,13.6 23,13.6 C22.1,13.6 21.4,13.4 20.9,13.1 C20.4,12.8 20.1,12.3 20.1,11.6 C20.1,11.2 20.2,10.8 20.5,10.5 C20.8,10.2 21.2,10 21.7,9.9 C21.5,9.8 21.4,9.7 21.2,9.5 C21.1,9.3 21,9.1 21,8.9 C21,8.6 21.1,8.4 21.2,8.2 C21.3,8 21.6,7.8 21.9,7.6 C21.5,7.4 21.2,7.2 21,6.8 C20.8,6.4 20.7,6 20.7,5.6 C20.7,4.8 20.9,4.2 21.4,3.8 C21.9,3.4 22.5,3.2 23.4,3.2 C23.8,3.2 24.1,3.2 24.4,3.3 L26.9,3.3 L26.9,3.4 Z M21.3,11.7 C21.3,12.1 21.5,12.4 21.8,12.6 C22.1,12.8 22.6,12.9 23.2,12.9 C24.1,12.9 24.8,12.8 25.2,12.5 C25.6,12.2 25.9,11.9 25.9,11.4 C25.9,11 25.8,10.7 25.5,10.6 C25.3,10.5 24.8,10.4 24.2,10.4 L22.9,10.4 C22.4,10.4 22,10.5 21.8,10.7 C21.4,10.9 21.3,11.2 21.3,11.7 L21.3,11.7 Z M21.9,5.7 C21.9,6.2 22,6.6 22.3,6.8 C22.6,7.1 23,7.2 23.5,7.2 C24.5,7.2 25.1,6.7 25.1,5.7 C25.1,4.6 24.6,4.1 23.5,4.1 C23,4.1 22.6,4.2 22.3,4.5 C22,4.7 21.9,5.1 21.9,5.7 L21.9,5.7 Z" id="Shape"></path>
                    <path d="M31.4,10.6 C30.4,10.6 29.5,10.3 28.9,9.6 C28.3,9 28,8.1 28,6.9 C28,5.8 28.3,4.9 28.8,4.2 C29.4,3.5 30.1,3.2 31.1,3.2 C32,3.2 32.7,3.5 33.2,4.1 C33.7,4.7 34,5.5 34,6.4 L34,7.1 L29.1,7.1 C29.1,7.9 29.3,8.6 29.7,9 C30.1,9.4 30.7,9.6 31.4,9.6 C32.2,9.6 32.9,9.4 33.7,9.1 L33.7,10.1 C33.3,10.3 33,10.4 32.6,10.5 C32.3,10.6 31.9,10.6 31.4,10.6 L31.4,10.6 Z M31.1,4.2 C30.5,4.2 30.1,4.4 29.7,4.8 C29.4,5.2 29.2,5.7 29.1,6.3 L32.8,6.3 C32.8,5.6 32.6,5.1 32.3,4.7 C32.1,4.3 31.7,4.2 31.1,4.2 L31.1,4.2 Z" id="Shape"></path>
                    <path d="M40.7,10.5 L40.7,5.9 C40.7,5.3 40.6,4.9 40.3,4.6 C40,4.3 39.6,4.2 39.1,4.2 C38.4,4.2 37.8,4.4 37.5,4.8 C37.2,5.2 37,5.9 37,6.8 L37,10.5 L35.9,10.5 L35.9,3.4 L36.8,3.4 L37,4.4 L37.1,4.4 C37.3,4.1 37.6,3.8 38,3.6 C38.4,3.4 38.8,3.3 39.3,3.3 C40.2,3.3 40.8,3.5 41.2,3.9 C41.6,4.3 41.8,5 41.8,5.9 L41.8,10.5 L40.7,10.5 L40.7,10.5 Z" id="Shape"></path>
                    <path d="M46.9,10.6 C45.9,10.6 45,10.3 44.4,9.6 C43.8,9 43.5,8.1 43.5,6.9 C43.5,5.8 43.8,4.9 44.3,4.2 C44.9,3.5 45.6,3.2 46.6,3.2 C47.5,3.2 48.2,3.5 48.7,4.1 C49.2,4.7 49.5,5.5 49.5,6.4 L49.5,7.1 L44.6,7.1 C44.6,7.9 44.8,8.6 45.2,9 C45.6,9.4 46.2,9.6 46.9,9.6 C47.7,9.6 48.4,9.4 49.2,9.1 L49.2,10.1 C48.8,10.3 48.5,10.4 48.1,10.5 C47.8,10.6 47.4,10.6 46.9,10.6 L46.9,10.6 Z M46.6,4.2 C46,4.2 45.6,4.4 45.2,4.8 C44.9,5.2 44.7,5.7 44.6,6.3 L48.3,6.3 C48.3,5.6 48.1,5.1 47.8,4.7 C47.6,4.3 47.2,4.2 46.6,4.2 L46.6,4.2 Z" id="Shape"></path>
                    <path d="M54.6,3.3 C54.9,3.3 55.2,3.3 55.4,3.4 L55.3,4.4 C55,4.3 54.7,4.3 54.5,4.3 C53.9,4.3 53.4,4.5 53,5 C52.6,5.5 52.4,6 52.4,6.7 L52.4,10.5 L51.3,10.5 L51.3,3.4 L52.2,3.4 L52.3,4.7 L52.4,4.7 C52.7,4.2 53,3.9 53.4,3.6 C53.8,3.4 54.2,3.3 54.6,3.3 L54.6,3.3 Z" id="Shape"></path>
                    <path d="M61.1,10.5 L60.9,9.5 L60.8,9.5 C60.4,9.9 60.1,10.2 59.7,10.4 C59.3,10.6 58.9,10.6 58.4,10.6 C57.7,10.6 57.1,10.4 56.7,10.1 C56.3,9.7 56.1,9.2 56.1,8.6 C56.1,7.2 57.2,6.4 59.5,6.3 L60.7,6.3 L60.7,5.9 C60.7,5.3 60.6,4.9 60.3,4.7 C60,4.5 59.7,4.3 59.2,4.3 C58.6,4.3 57.9,4.5 57.2,4.8 L56.9,4 C57.2,3.8 57.6,3.7 58,3.6 C58.4,3.5 58.8,3.4 59.3,3.4 C60.1,3.4 60.8,3.6 61.2,4 C61.6,4.4 61.8,5 61.8,5.8 L61.8,10.6 L61.1,10.6 L61.1,10.5 Z M58.7,9.7 C59.4,9.7 59.9,9.5 60.3,9.2 C60.7,8.8 60.9,8.3 60.9,7.7 L60.9,7 L59.8,7 C58.9,7 58.3,7.2 58,7.4 C57.6,7.6 57.4,8 57.4,8.5 C57.4,8.9 57.5,9.2 57.8,9.4 C58,9.6 58.3,9.7 58.7,9.7 L58.7,9.7 Z" id="Shape"></path>
                    <path d="M66.4,9.7 L66.9,9.7 C67.1,9.7 67.2,9.6 67.3,9.6 L67.3,10.4 C67.2,10.5 67,10.5 66.8,10.5 C66.6,10.5 66.4,10.6 66.2,10.6 C64.8,10.6 64.1,9.9 64.1,8.4 L64.1,4.2 L63.1,4.2 L63.1,3.7 L64.1,3.3 L64.6,1.8 L65.2,1.8 L65.2,3.4 L67.3,3.4 L67.3,4.2 L65.2,4.2 L65.2,8.4 C65.2,8.8 65.3,9.2 65.5,9.4 C65.7,9.6 66.1,9.7 66.4,9.7 L66.4,9.7 Z" id="Shape"></path>
                    <path d="M74.9,6.9 C74.9,8.1 74.6,9 74,9.6 C73.4,10.2 72.6,10.6 71.6,10.6 C71,10.6 70.4,10.5 69.9,10.2 C69.4,9.9 69,9.5 68.8,8.9 C68.5,8.3 68.4,7.7 68.4,6.9 C68.4,5.7 68.7,4.8 69.3,4.2 C69.9,3.6 70.7,3.2 71.7,3.2 C72.7,3.2 73.5,3.5 74.1,4.2 C74.6,4.9 74.9,5.8 74.9,6.9 L74.9,6.9 Z M69.5,6.9 C69.5,7.8 69.7,8.5 70,9 C70.4,9.5 70.9,9.7 71.6,9.7 C72.3,9.7 72.8,9.5 73.2,9 C73.6,8.5 73.7,7.8 73.7,6.9 C73.7,6 73.5,5.3 73.2,4.8 C72.8,4.3 72.3,4.1 71.6,4.1 C70.9,4.1 70.4,4.3 70,4.8 C69.7,5.3 69.5,6 69.5,6.9 L69.5,6.9 Z" id="Shape"></path>
                    <path d="M80.1,3.3 C80.4,3.3 80.7,3.3 80.9,3.4 L80.8,4.4 C80.5,4.3 80.2,4.3 80,4.3 C79.4,4.3 78.9,4.5 78.5,5 C78.1,5.5 77.9,6 77.9,6.7 L77.9,10.5 L76.8,10.5 L76.8,3.4 L77.7,3.4 L77.8,4.7 L77.9,4.7 C78.2,4.2 78.5,3.9 78.9,3.6 C79.2,3.4 79.6,3.3 80.1,3.3 L80.1,3.3 Z" id="Shape"></path>
                    <path d="M82.1,9.8 C82.1,9.5 82.2,9.3 82.3,9.1 C82.4,9 82.6,8.9 82.9,8.9 C83.1,8.9 83.3,9 83.5,9.1 C83.6,9.2 83.7,9.5 83.7,9.8 C83.7,10.1 83.6,10.3 83.5,10.4 C83.4,10.6 83.2,10.6 82.9,10.6 C82.7,10.6 82.5,10.5 82.4,10.4 C82.1,10.3 82.1,10.1 82.1,9.8 L82.1,9.8 Z" id="Shape"></path>
                    <path d="M89,10.6 C88.5,10.6 88.1,10.5 87.7,10.3 C87.3,10.1 87,9.9 86.7,9.5 L86.6,9.5 C86.7,9.9 86.7,10.3 86.7,10.7 L86.7,13.6 L85.6,13.6 L85.6,3.3 L86.5,3.3 L86.6,4.3 L86.7,4.3 C87,3.9 87.3,3.6 87.7,3.5 C88.1,3.4 88.5,3.2 89,3.2 C89.9,3.2 90.7,3.5 91.2,4.2 C91.7,4.8 92,5.7 92,6.9 C92,8.1 91.7,9 91.2,9.6 C90.7,10.3 90,10.6 89,10.6 L89,10.6 Z M88.9,4.2 C88.2,4.2 87.7,4.4 87.3,4.8 C87,5.2 86.8,5.8 86.8,6.7 L86.8,6.9 C86.8,7.9 87,8.6 87.3,9 C87.6,9.4 88.2,9.6 88.9,9.6 C89.5,9.6 90,9.4 90.3,8.9 C90.6,8.4 90.8,7.7 90.8,6.9 C90.8,6 90.6,5.3 90.3,4.9 C90,4.4 89.5,4.2 88.9,4.2 L88.9,4.2 Z" id="Shape"></path>
                    <path d="M98.7,10.5 L98.7,5.9 C98.7,5.3 98.6,4.9 98.3,4.6 C98,4.3 97.6,4.2 97.1,4.2 C96.4,4.2 95.8,4.4 95.5,4.8 C95.2,5.2 95,5.9 95,6.8 L95,10.5 L93.9,10.5 L93.9,0.4 L95,0.4 L95,3.4 C95,3.8 95,4.1 94.9,4.3 L95,4.3 C95.2,4 95.5,3.7 95.9,3.5 C96.3,3.3 96.7,3.2 97.2,3.2 C98.1,3.2 98.7,3.4 99.1,3.8 C99.5,4.2 99.8,4.9 99.8,5.8 L99.8,10.4 L98.7,10.4 L98.7,10.5 Z" id="Shape"></path>
                    <path d="M105.3,10.6 C104.8,10.6 104.4,10.5 104,10.3 C103.6,10.1 103.3,9.9 103,9.5 L103,9.5 C103.1,9.9 103.1,10.3 103.1,10.7 L103.1,13.6 L102,13.6 L102,3.3 L102.9,3.3 L103,4.3 L103.1,4.3 C103.4,3.9 103.7,3.6 104.1,3.5 C104.5,3.4 104.9,3.2 105.4,3.2 C106.3,3.2 107.1,3.5 107.6,4.2 C108.1,4.8 108.4,5.7 108.4,6.9 C108.4,8.1 108.1,9 107.6,9.6 C106.9,10.3 106.2,10.6 105.3,10.6 L105.3,10.6 Z M105.1,4.2 C104.4,4.2 103.9,4.4 103.5,4.8 C103.2,5.2 103,5.8 103,6.7 L103,6.9 C103,7.9 103.2,8.6 103.5,9 C103.8,9.4 104.4,9.6 105.1,9.6 C105.7,9.6 106.2,9.4 106.5,8.9 C106.8,8.4 107,7.7 107,6.9 C107,6 106.8,5.3 106.5,4.9 C106.3,4.4 105.8,4.2 105.1,4.2 L105.1,4.2 Z" id="Shape"></path>
                </g>
                <path d="M249.3,161.6 C248.6,161.6 248,161 248,160.3 C248,159.6 248.6,159 249.3,159 L380.295009,159.425976 C380.995009,159.425976 381.595009,160.025976 381.595009,160.725976 C381.595009,161.425976 381.095009,162.025976 380.295009,162.025976 L249.3,161.6 Z" id="Shape" fill="#E5E5E5"></path>
                <circle id="Oval" fill="#DEDDDD" cx="381.5" cy="160.5" r="5.5"></circle>
                <path d="M232.2,172.36875 C232.2,172.86875 232.5,172.96875 232.9,172.66875 L247.9,160.36875 C248.3,160.06875 248.3,159.56875 247.9,159.26875 L232.7,147.16875 C232.3,146.86875 232,146.96875 232,147.46875 L232.2,172.36875 L232.2,172.36875 Z" id="Shape" fill="#DEDDDD" transform="translate(240.100000, 159.918750) rotate(-180.000000) translate(-240.100000, -159.918750) "></path>
            </g>
            <polyline id="Path-2" stroke="#E5E5E5" stroke-width="3" points="325 117 351.152344 117.274952 351.03125 224.876953 381.900391 225.050781"></polyline>
            <polyline id="Path-2-Copy" stroke="#E5E5E5" stroke-width="3" points="738 206 764.152344 206.274952 764.03125 313.876953 794.900391 314.050781"></polyline>
        </g>
    </g>
</svg>