<?xml version="1.0" standalone="no"?>
<!DOCTYPE svg PUBLIC "-//W3C//DTD SVG 20010904//EN"
 "http://www.w3.org/TR/2001/REC-SVG-20010904/DTD/svg10.dtd">
<svg version="1.0" xmlns="http://www.w3.org/2000/svg"
 width="824.000000pt" height="824.000000pt" viewBox="0 0 824.000000 824.000000"
 preserveAspectRatio="xMidYMid meet">
<metadata>
Created by potrace 1.11, written by Peter Selinger 2001-2013
</metadata>
<g transform="translate(0.000000,824.000000) scale(0.100000,-0.100000)"
fill="#000000" stroke="none">
<path d="M0 4171 l0 -2919 645 0 645 0 0 1662 0 1661 1003 -2 c551 -1 1029 -3
1062 -3 l60 0 0 -1657 0 -1658 2282 -1 2283 -2 -3 645 -2 645 -1635 1 -1635 2
-1 486 -1 487 161 0 c89 -1 166 0 171 2 6 1 15 1 20 0 28 -5 774 -2 783 4 6 3
13 3 15 -1 4 -7 275 -9 302 -3 6 1 15 1 20 0 14 -2 768 -3 780 0 6 1 15 1 20
0 28 -5 774 -2 783 4 6 3 13 3 15 -1 3 -5 49 -6 104 -4 54 1 141 4 193 4 52 1
97 5 100 9 3 3 5 525 5 1160 l0 1153 -642 0 c-566 0 -643 2 -644 15 0 8 -1
288 -1 623 l-1 607 -1132 0 -1132 0 0 -614 c0 -337 -3 -617 -6 -622 -4 -7
-3279 -12 -3319 -5 -5 0 -8 280 -8 621 l0 620 -645 0 -645 0 0 -2919z m6851
1629 l36 0 0 -494 0 -495 -1091 2 -1091 2 -1 485 c-1 267 2 490 6 495 6 8
1557 12 2141 5z"/>
</g>
</svg>
