<?xml version="1.0" encoding="UTF-8" standalone="no"?>
<svg width="843px" height="1135px" viewBox="0 0 843 1135" version="1.1" xmlns="http://www.w3.org/2000/svg" xmlns:xlink="http://www.w3.org/1999/xlink" xmlns:sketch="http://www.bohemiancoding.com/sketch/ns">
    <!-- Generator: Sketch 3.5.1 (25234) - http://www.bohemiancoding.com/sketch -->
    <title>icon-tablet</title>
    <desc>Created with Sketch.</desc>
    <defs></defs>
    <g id="Page-1" stroke="none" stroke-width="1" fill="none" fill-rule="evenodd" sketch:type="MSPage">
        <g id="icon-tablet" sketch:type="MSLayerGroup" transform="translate(0.190361, 0.000000)">
            <path d="M0,53.9982319 C0,24.1758319 24.1788102,0 54.0029384,0 L788.481613,0 C818.306612,0 842.484551,24.1739773 842.484551,53.9982319 L842.484551,1080.63822 C842.484551,1110.46062 818.305741,1134.63645 788.481613,1134.63645 L54.0029384,1134.63645 C24.1779391,1134.63645 0,1110.46247 0,1080.63822 L0,53.9982319 Z M427.529474,56.6764205 C427.529474,46.2629781 435.971807,37.8212151 446.391068,37.8212151 C456.808039,37.8212151 465.252663,46.2619592 465.252663,56.6764205 L465.252663,56.7872247 C465.252663,67.2006671 456.81033,75.6424301 446.391068,75.6424301 C435.974097,75.6424301 427.529474,67.201686 427.529474,56.7872247 L427.529474,56.6764205 Z M389.806285,56.4364405 C389.806285,53.1182288 392.488385,50.4282868 395.798867,50.4282868 L396.388099,50.4282868 C399.697711,50.4282868 402.380681,53.1173566 402.380681,56.4364405 L402.380681,57.0272047 C402.380681,60.3454164 399.698581,63.0353584 396.388099,63.0353584 L395.798867,63.0353584 C392.489255,63.0353584 389.806285,60.3462886 389.806285,57.0272047 L389.806285,56.4364405 Z M50.2975851,113.463645 L792.186966,113.463645 L792.186966,1021.17281 L50.2975851,1021.17281 L50.2975851,113.463645 Z" id="main-body" fill="#D8D8D8" sketch:type="MSShapeGroup"></path>
            <rect id="home-button" fill="#CACACA" sketch:type="MSShapeGroup" x="389.806285" y="1046.38695" width="62.8719814" height="63.0353584" rx="100"></rect>
        </g>
    </g>
</svg>