<?xml version="1.0" encoding="UTF-8" standalone="no"?>
<svg width="426px" height="886px" viewBox="0 0 426 886" version="1.1" xmlns="http://www.w3.org/2000/svg" xmlns:xlink="http://www.w3.org/1999/xlink" xmlns:sketch="http://www.bohemiancoding.com/sketch/ns">
    <!-- Generator: Sketch 3.5.1 (25234) - http://www.bohemiancoding.com/sketch -->
    <title>icon-phone</title>
    <desc>Created with Sketch.</desc>
    <defs></defs>
    <g id="Page-1" stroke="none" stroke-width="1" fill="none" fill-rule="evenodd" sketch:type="MSPage">
        <g id="icon-phone" sketch:type="MSLayerGroup">
            <rect id="mic" stroke="#979797" stroke-width="2" sketch:type="MSShapeGroup" x="175.937107" y="75.0241935" width="80.3773585" height="16.0766129" rx="10"></rect>
            <g id="camera" transform="translate(208.981132, 43.764113)"></g>
            <path d="M289.356081,5.35887097 L78.3583872,5.35887097 C38.0416576,5.35887097 5.35849057,38.0423068 5.35849057,78.3624716 L5.35849057,128.612903 L1.99018448,128.612903 C0.891035944,128.612903 0,129.509224 0,130.622315 L0,167.688169 C0,168.797937 0.904875377,169.697581 1.99018448,169.697581 L5.35849057,169.697581 L5.35849057,205.423387 L1.99018448,205.423387 C0.891035944,205.423387 0,206.314883 0,207.415428 L0,230.225701 C0,231.325875 0.904875377,232.217742 1.99018448,232.217742 L5.35849057,232.217742 L5.35849057,270.622984 L1.99018448,270.622984 C0.891035944,270.622984 0,271.51448 0,272.615025 L0,295.425298 C0,296.525472 0.904875377,297.417339 1.99018448,297.417339 L5.35849057,297.417339 L5.35849057,812.996399 C5.35849057,853.315175 38.0373347,886 78.3583872,886 L353.000103,886 C393.316833,886 426,853.316564 426,812.996399 L426,78.3624716 C426,39.4651506 395.584749,7.67299236 357.235114,5.47964934 L357.235114,1.99043809 C357.235114,0.891289545 356.339507,0.000253601136 355.240384,0.000253601136 L291.350811,0.000253601136 C290.249152,0.000253601136 289.356081,0.905128979 289.356081,1.99043809 L289.356081,5.35887097 Z M216.527644,58.8582088 C220.695468,58.8582088 224.074156,55.4792803 224.074156,51.3111608 C224.074156,47.1430414 220.695468,43.7641129 216.527644,43.7641129 C212.359821,43.7641129 208.981132,47.1430414 208.981132,51.3111608 C208.981132,55.4792803 212.359821,58.8582088 216.527644,58.8582088 Z M37.509434,133.078629 L37.509434,759.173387 L392.955975,759.173387 L392.955975,133.078629 L37.509434,133.078629 Z" id="iphone-body" fill="#D8D8D8" sketch:type="MSShapeGroup"></path>
            <path d="M226.842767,851.167339 C243.119537,851.167339 256.314465,837.971473 256.314465,821.693548 C256.314465,805.415623 243.119537,792.219758 226.842767,792.219758 C210.565998,792.219758 197.371069,805.415623 197.371069,821.693548 C197.371069,837.971473 210.565998,851.167339 226.842767,851.167339 Z" id="home-button" fill="#CACACA" sketch:type="MSShapeGroup"></path>
        </g>
    </g>
</svg>