<?xml version="1.0" encoding="UTF-8" standalone="no"?>
<svg width="466px" height="342px" viewBox="0 0 466 342" version="1.1" xmlns="http://www.w3.org/2000/svg" xmlns:xlink="http://www.w3.org/1999/xlink" xmlns:sketch="http://www.bohemiancoding.com/sketch/ns">
    <!-- Generator: Sketch 3.3.3 (12081) - http://www.bohemiancoding.com/sketch -->
    <title>robot-peek-right</title>
    <desc>Created with Sketch.</desc>
    <defs></defs>
    <g id="Page-1" stroke="none" stroke-width="1" fill="none" fill-rule="evenodd" sketch:type="MSPage">
        <g id="robot-peek-right" sketch:type="MSLayerGroup" transform="translate(-19.000000, -5.000000)">
            <g id="Page-1" sketch:type="MSShapeGroup">
                <g id="robot-peek-right-+-Group">
                    <g id="robot-peek-right">
                        <path d="M397.56489,225.683145 C444.96489,230.683145 481.16489,256.483145 478.26489,283.283145 C475.46489,309.983145 434.66489,327.683145 387.26489,322.583145 C339.86489,317.583145 335.76489,299.183145 338.66489,272.383145 C341.46489,245.583145 350.16489,220.683145 397.56489,225.683145 Z" id="Shape" fill="#EA592C" transform="translate(408.191272, 274.248870) rotate(-66.000000) translate(-408.191272, -274.248870) "></path>
                        <path d="M64.8105354,248.910894 C44.3105354,257.010894 26.5105354,260.610894 18.4105354,240.210894 C10.3105354,219.810894 20.3105354,196.510894 40.7105354,188.410894 C61.1105354,180.310894 84.4105354,190.310894 92.5105354,210.710894 C100.610535,231.110894 85.3105354,240.810894 64.8105354,248.910894 L64.8105354,248.910894 L64.8105354,248.910894 Z" id="Shape" fill="#CE3E27" transform="translate(55.158821, 220.467475) rotate(-60.000000) translate(-55.158821, -220.467475) "></path>
                        <circle id="Oval" fill="#EA592C" transform="translate(198.323343, 197.986087) rotate(-60.000000) translate(-198.323343, -197.986087) " cx="198.323343" cy="197.986087" r="144.9"></circle>
                        <path d="M208.800608,153.245024 C225.000608,143.245024 244.100608,140.045024 262.600608,144.345024 C281.100608,148.645024 296.900608,159.945024 306.900608,176.145024 C311.100608,182.945024 314.100608,190.245024 315.900608,197.945024 C322.600608,227.545024 309.800608,258.245024 284.000608,274.245024 C267.800608,284.245024 248.700608,287.445024 230.200608,283.145024 C211.700608,278.845024 195.900608,267.545024 185.900608,251.345024 C181.700608,244.545024 178.700608,237.245024 176.900608,229.545024 C170.100608,199.945024 183.000608,169.245024 208.800608,153.245024 L208.800608,153.245024 L208.800608,153.245024 Z M278.200608,194.045024 C272.900608,185.545024 264.700608,179.645024 254.900608,177.345024 C245.200608,175.045024 235.100608,176.745024 226.600608,182.045024 C213.000608,190.445024 206.300608,206.545024 209.800608,222.145024 C210.700608,226.145024 212.300608,230.045024 214.500608,233.645024 C219.800608,242.145024 228.000608,248.045024 237.800608,250.345024 C247.500608,252.645024 257.600608,250.945024 266.100608,245.645024 C279.700608,237.245024 286.400608,221.145024 282.900608,205.545024 C282.000608,201.445024 280.400608,197.545024 278.200608,194.045024 L278.200608,194.045024 L278.200608,194.045024 Z" id="Shape" fill="#CE3E27" transform="translate(246.382594, 213.745024) rotate(-60.000000) translate(-246.382594, -213.745024) "></path>
                        <circle id="Oval" fill="#FFFFFF" transform="translate(246.391601, 213.729423) rotate(-60.000000) translate(-246.391601, -213.729423) " cx="246.391601" cy="213.729423" r="54.4"></circle>
                        <circle id="Oval" fill="#FFF200" transform="translate(253.040192, 193.134232) rotate(-60.000000) translate(-253.040192, -193.134232) " cx="253.040192" cy="193.134232" r="18.1"></circle>
                        <path d="M234.291601,154.229423 C250.191601,151.029423 266.391601,154.129423 279.891601,163.129423 C293.391601,172.129423 302.591601,185.729423 305.891601,201.629423 C307.291601,208.329423 307.491601,215.129423 306.591601,221.829423 C303.091601,247.429423 283.791601,268.029423 258.491601,273.229423 C242.591601,276.429423 226.391601,273.329423 212.891601,264.329423 C199.391601,255.329423 190.191601,241.729423 186.891601,225.829423 C185.491601,219.129423 185.291601,212.329423 186.191601,205.629423 C189.691601,180.029423 208.991601,159.429423 234.291601,154.229423 L234.291601,154.229423 L234.291601,154.229423 Z M293.391601,204.229423 C290.791601,191.629423 283.491601,180.829423 272.891601,173.729423 C262.191601,166.629423 249.391601,164.129423 236.791601,166.729423 C216.791601,170.829423 201.491601,187.129423 198.791601,207.329423 C198.091601,212.629423 198.291601,218.029423 199.291601,223.329423 C201.891601,235.929423 209.191601,246.729423 219.791601,253.829423 C230.491601,260.929423 243.291601,263.429423 255.891601,260.829423 C275.891601,256.729423 291.191601,240.429423 293.891601,220.229423 C294.691601,214.929423 294.491601,209.529423 293.391601,204.229423 L293.391601,204.229423 L293.391601,204.229423 Z" id="Shape" fill="#414042" transform="translate(246.391601, 213.729423) rotate(-60.000000) translate(-246.391601, -213.729423) "></path>
                        <path d="M165.515767,218.243509 C164.615767,224.943509 164.815767,231.743509 166.215767,238.543509 L178.615767,236.043509 C176.015767,223.443509 178.515767,210.643509 185.615767,199.943509 C192.715767,189.243509 203.515767,181.943509 216.115767,179.443509 C228.715767,176.843509 241.515767,179.343509 252.215767,186.443509 C262.915767,193.543509 270.215767,204.343509 272.715767,216.943509 L285.115767,214.443509 C281.915767,198.543509 272.615767,184.843509 259.115767,175.943509 C245.615767,166.943509 229.415767,163.843509 213.515767,167.043509 C197.615767,170.243509 183.915767,179.543509 175.015767,193.043509 C169.915767,200.743509 166.715767,209.343509 165.515767,218.243509 L165.515767,218.243509 L165.515767,218.243509 Z" id="Shape" fill="#6D6E71" transform="translate(225.042962, 202.180669) rotate(-60.000000) translate(-225.042962, -202.180669) "></path>
                        <path d="M93.8072504,167.244508 C105.90725,159.744508 120.10725,157.444508 134.00725,160.644508 C147.80725,163.844508 159.60725,172.344508 167.10725,184.344508 C170.20725,189.444508 172.50725,194.844508 173.80725,200.644508 C178.80725,222.744508 169.20725,245.644508 150.00725,257.544508 C137.90725,265.044508 123.70725,267.344508 109.90725,264.144508 C96.1072504,260.944508 84.3072504,252.444508 76.8072504,240.444508 C73.7072504,235.344508 71.4072504,229.944508 70.1072504,224.144508 C65.0072504,202.144508 74.6072504,179.244508 93.8072504,167.244508 L93.8072504,167.244508 L93.8072504,167.244508 Z M145.60725,197.744508 C141.70725,191.444508 135.50725,186.944508 128.20725,185.244508 C120.90725,183.544508 113.40725,184.744508 107.10725,188.744508 C97.0072504,195.044508 91.9072504,207.044508 94.6072504,218.644508 C95.3072504,221.644508 96.5072504,224.544508 98.1072504,227.244508 C102.00725,233.544508 108.20725,238.044508 115.50725,239.744508 C122.80725,241.444508 130.30725,240.244508 136.60725,236.244508 C146.70725,229.944508 151.80725,217.944508 149.10725,206.344508 C148.50725,203.244508 147.30725,200.344508 145.60725,197.744508 L145.60725,197.744508 L145.60725,197.744508 Z" id="Shape" fill="#CE3E27" transform="translate(121.935041, 212.394508) rotate(-60.000000) translate(-121.935041, -212.394508) "></path>
                        <circle id="Oval" fill="#FFFFFF" transform="translate(121.964447, 212.443575) rotate(-60.000000) translate(-121.964447, -212.443575) " cx="121.964447" cy="212.443575" r="40.5"></circle>
                        <circle id="Oval" fill="#FFF200" transform="translate(122.086244, 198.160820) rotate(-60.000000) translate(-122.086244, -198.160820) " cx="122.086244" cy="198.16082" r="13.5"></circle>
                        <path d="M117.307748,167.418575 C129.307748,166.218575 141.107748,169.718575 150.507748,177.318575 C159.907748,184.918575 165.707748,195.818575 167.007748,207.818575 C167.507748,212.918575 167.207748,217.918575 166.007748,222.918575 C161.607748,241.618575 145.707748,255.618575 126.607748,257.518575 C114.607748,258.718575 102.807748,255.218575 93.4077481,247.618575 C84.0077481,239.918575 78.2077481,229.118575 77.0077481,217.118575 C76.5077481,212.018575 76.8077481,207.018575 78.0077481,202.018575 C82.3077481,183.318575 98.2077481,169.318575 117.307748,167.418575 L117.307748,167.418575 L117.307748,167.418575 Z M157.607748,208.718575 C156.607748,199.218575 152.007748,190.618575 144.607748,184.618575 C137.207748,178.618575 127.807748,175.818575 118.307748,176.818575 C103.107748,178.418575 90.6077481,189.418575 87.1077481,204.218575 C86.2077481,208.118575 85.9077481,212.118575 86.3077481,216.118575 C87.3077481,225.618575 91.9077481,234.218575 99.3077481,240.218575 C106.707748,246.218575 116.107748,249.018575 125.607748,248.018575 C140.807748,246.418575 153.307748,235.418575 156.807748,220.618575 C157.807748,216.718575 158.007748,212.718575 157.607748,208.718575 L157.607748,208.718575 L157.607748,208.718575 Z" id="Shape" fill="#414042" transform="translate(122.007748, 212.468575) rotate(-60.000000) translate(-122.007748, -212.468575) "></path>
                        <path d="M60.3785383,212.388143 C59.1785383,217.288143 58.8785383,222.388143 59.3785383,227.488143 L68.7785383,226.488143 C67.7785383,216.988143 70.5785383,207.688143 76.5785383,200.188143 C82.5785383,192.788143 91.1785383,188.088143 100.678538,187.188143 C110.178538,186.188143 119.478538,188.988143 126.978538,194.988143 C134.378538,200.988143 139.078538,209.588143 139.978538,219.088143 L149.378538,218.088143 C148.178538,206.088143 142.278538,195.188143 132.878538,187.588143 C123.478538,179.988143 111.678538,176.488143 99.6785383,177.688143 C87.6785383,178.888143 76.7785383,184.788143 69.1785383,194.188143 C64.9785383,199.588143 61.9785383,205.788143 60.3785383,212.388143 L60.3785383,212.388143 L60.3785383,212.388143 Z" id="Shape" fill="#6D6E71" transform="translate(104.262834, 202.472618) rotate(-60.000000) translate(-104.262834, -202.472618) "></path>
                        <path d="M332.103626,166.107858 C314.903626,179.907858 303.003626,193.607858 316.803626,210.807858 C330.603626,228.007858 355.703626,230.707858 372.903626,216.907858 C390.103626,203.107858 392.803626,178.007858 379.003626,160.807858 C365.303626,143.707858 349.303626,152.307858 332.103626,166.107858 L332.103626,166.107858 L332.103626,166.107858 Z" id="Shape" fill="#CE3E27" transform="translate(349.291073, 188.513407) rotate(-60.000000) translate(-349.291073, -188.513407) "></path>
                        <path d="M170.863906,84.1983271 L233.363906,26.8983271 L151.663906,49.4983271 L170.863906,84.1983271 L170.863906,84.1983271 Z" id="Shape" fill="#CE3E27" transform="translate(192.513906, 55.548327) rotate(-60.000000) translate(-192.513906, -55.548327) "></path>
                        <path d="M180.740011,74.7830323 C171.140011,80.0830323 167.740011,92.1830323 173.040011,101.683033 C178.340011,111.183033 190.440011,114.683033 199.940011,109.383033" id="Shape" fill="#CE3E27" transform="translate(185.241364, 93.321325) rotate(-60.000000) translate(-185.241364, -93.321325) "></path>
                        <path d="M235.598691,29.8286099 L174.298691,86.8286099 C165.098691,91.9286099 140.698691,79.6286099 147.898691,80.0286099 C172.098691,81.5286099 235.598691,29.8286099 235.598691,29.8286099 L235.598691,29.8286099 L235.598691,29.8286099 Z" id="Shape" fill="#B1341F" transform="translate(191.093599, 58.948849) rotate(-60.000000) translate(-191.093599, -58.948849) "></path>
                    </g>
                    <g id="Group" transform="translate(437.916752, 228.954805) rotate(5.000000) translate(-437.916752, -228.954805) translate(391.416752, 178.454805)">
                        <path d="M15.6635761,12.6642824 C10.5593181,17.7509434 10.5593181,25.9980502 15.6635761,31.0847112 C20.7678342,36.1713721 29.0434716,36.1713721 34.1477296,31.0847112 C39.2519877,25.9980502 39.2519877,17.7509434 34.1477296,12.6642824 C29.0434716,7.5776215 20.7678342,7.5776215 15.6635761,12.6642824 L15.6635761,12.6642824 L15.6635761,12.6642824 Z" id="Oval" fill="#414042"></path>
                        <path d="M48.0853776,5.1624143 C41.9108719,11.3156331 41.9108719,21.2919721 48.0853776,27.445191 C54.2598833,33.5984099 64.270735,33.5984099 70.4452407,27.445191 C76.6197464,21.2919721 76.6197464,11.3156331 70.4452407,5.1624143 C64.270735,-0.99080462 54.2598833,-0.99080462 48.0853776,5.1624143 L48.0853776,5.1624143 L48.0853776,5.1624143 Z" id="Oval" fill="#58595B"></path>
                        <path d="M75.0662791,35.0213351 C70.9911053,39.0824595 70.9911053,45.6668432 75.0662791,49.7279677 C79.1414528,53.7890922 85.748615,53.7890922 89.823789,49.7279677 C93.898962,45.6668432 93.898962,39.0824595 89.823789,35.0213351 C85.748615,30.9602106 79.1414528,30.9602106 75.0662791,35.0213351 L75.0662791,35.0213351 L75.0662791,35.0213351 Z" id="Oval" fill="#414042"></path>
                        <path d="M12.6822611,31.233263 C-3.289127,47.1495892 -3.289127,72.9550526 12.6822611,88.8713788 C28.6536491,104.787705 54.5483855,104.787705 70.5197736,88.8713788 C86.491162,72.9550526 86.491162,47.1495892 70.5197736,31.233263 C54.5483855,15.3169369 28.6536491,15.3169369 12.6822611,31.233263 L12.6822611,31.233263 L12.6822611,31.233263 Z" id="Oval" fill="#58595B"></path>
                    </g>
                </g>
            </g>
        </g>
    </g>
</svg>