<?xml version="1.0" encoding="utf-8"?>
<!-- Generator: Adobe Illustrator 19.0.1, SVG Export Plug-In . SVG Version: 6.00 Build 0)  -->
<svg version="1.1" id="Layer_1" xmlns:sketch="http://www.bohemiancoding.com/sketch/ns"
	 xmlns="http://www.w3.org/2000/svg" xmlns:xlink="http://www.w3.org/1999/xlink" x="0px" y="0px" viewBox="-72 182.6 466 385.4"
	 style="enable-background:new -72 182.6 466 385.4;" xml:space="preserve">
<style type="text/css">
	.st0{fill:#EA592C;}
	.st1{fill:#CE3E27;}
	.st2{fill:#FFFFFF;}
	.st3{fill:#FFF200;}
	.st4{fill:#414042;}
	.st5{fill:#6D6E71;}
	.st6{fill:#B1341F;}
	.st7{fill:#F37448;}
	.st8{fill:#CF633D;}
</style>
<title>robot-peek-right</title>
<desc>Created with Sketch.</desc>
<g id="Page-1_1_" sketch:type="MSPage">
	<g id="robot-peek-right_1_" transform="translate(-19.000000, -5.000000)" sketch:type="MSLayerGroup">
		<g id="Page-1" sketch:type="MSShapeGroup">
			<g id="robot-peek-right-_x2B_-Group">
				<g id="robot-peek-right">
					<path id="Shape" class="st0" d="M287.5,490.2c23.8-41.3,62.1-63.8,85.4-50.3c23.3,13.4,22.8,57.9-1.1,99.1
						c-23.8,41.3-42.3,37.5-65.6,24C282.9,549.5,263.7,531.5,287.5,490.2z"/>
					<path id="Shape_1_" class="st1" d="M12.6,452.3c-3.2,21.8-9,39-30.7,35.8C-39.8,485-55,464.7-51.8,443
						c3.2-21.7,23.5-36.9,45.2-33.7C15.1,412.4,15.9,430.5,12.6,452.3L12.6,452.3L12.6,452.3z"/>
					<circle id="Oval" class="st0" cx="126.3" cy="424" r="144.9"/>
					<path id="Shape_2_" class="st1" d="M103.2,442c-0.6-19,6.2-37.2,19.2-51c13-13.9,30.7-21.9,49.7-22.5c8-0.2,15.8,0.8,23.4,3.1
						c29,9,49.2,35.4,50.1,65.8c0.6,19-6.2,37.2-19.2,51c-13,13.9-30.7,21.9-49.7,22.5c-8,0.2-15.8-0.8-23.4-3.1
						C124.3,498.9,104.2,472.4,103.2,442L103.2,442L103.2,442z M173.2,402.3c-10,0.3-19.2,4.5-26.1,11.8
						c-6.8,7.3-10.4,16.8-10.1,26.9c0.5,16,11.1,29.8,26.3,34.6c3.9,1.2,8.1,1.8,12.3,1.7c10-0.3,19.2-4.5,26.1-11.8
						c6.8-7.3,10.4-16.8,10.1-26.9c-0.5-16-11.1-29.8-26.3-34.6C181.5,402.7,177.4,402.2,173.2,402.3L173.2,402.3L173.2,402.3z"/>
					<circle id="Oval_1_" class="st2" cx="174.4" cy="439.7" r="54.4"/>
					<circle id="Oval_2_" class="st3" cx="181" cy="419.1" r="18.1"/>
					<path id="Shape_3_" class="st4" d="M116.8,420.5c5.2-15.4,16-27.8,30.5-35c14.5-7.2,30.9-8.4,46.3-3.3
						c6.5,2.1,12.5,5.4,17.8,9.5c20.4,15.8,28.6,42.8,20.5,67.4c-5.2,15.4-16,27.8-30.5,35c-14.5,7.2-30.9,8.4-46.3,3.3
						c-6.5-2.1-12.5-5.4-17.8-9.5C116.9,472,108.7,445,116.8,420.5L116.8,420.5L116.8,420.5z M189.7,394.3
						c-12.2-4-25.2-3.1-36.7,2.5c-11.5,5.7-20.1,15.6-24.1,27.8c-6.4,19.4,0,40.8,16.2,53.2c4.2,3.3,9,5.8,14.1,7.6
						c12.2,4,25.2,3.1,36.7-2.5c11.5-5.7,20.1-15.6,24.1-27.8c6.4-19.4,0-40.8-16.2-53.2C199.6,398.5,194.8,396,189.7,394.3
						L189.7,394.3L189.7,394.3z"/>
					<path id="Shape_4_" class="st5" d="M137.2,487.8c5.4,4.1,11.3,7.4,17.9,9.5l4-12c-12.2-4-22-12.6-27.8-24.1
						c-5.7-11.5-6.6-24.5-2.5-36.7c4-12.2,12.6-22,24.1-27.8c11.5-5.7,24.5-6.6,36.7-2.5l4-12c-15.4-5.2-31.9-4-46.3,3.3
						c-14.5,7.2-25.3,19.7-30.5,35c-5.2,15.4-4,31.9,3.3,46.3C124.2,475.2,130.1,482.3,137.2,487.8L137.2,487.8L137.2,487.8z"/>
					<path id="Shape_5_" class="st1" d="M-3.2,440.2c-0.4-14.2,4.7-27.7,14.4-38.1c9.7-10.4,22.9-16.3,37.1-16.8
						c6-0.1,11.8,0.6,17.5,2.3c21.6,6.7,36.7,26.5,37.4,49.1c0.4,14.2-4.7,27.7-14.3,38C79.1,485,65.8,491,51.7,491.5
						c-6,0.1-11.8-0.6-17.5-2.3C12.6,482.6-2.4,462.8-3.2,440.2L-3.2,440.2L-3.2,440.2z M49.1,410.6c-7.4,0.2-14.4,3.3-19.5,8.8
						s-7.8,12.6-7.5,20c0.4,11.9,8.2,22.3,19.6,25.8c2.9,0.9,6.1,1.3,9.2,1.3c7.4-0.2,14.4-3.3,19.5-8.8s7.8-12.6,7.5-20
						c-0.4-11.9-8.2-22.3-19.6-25.8C55.3,410.8,52.2,410.4,49.1,410.6L49.1,410.6L49.1,410.6z"/>
					<circle id="Oval_3_" class="st2" cx="50" cy="438.4" r="40.5"/>
					<circle id="Oval_4_" class="st3" cx="50.1" cy="424.2" r="13.5"/>
					<path id="Shape_6_" class="st4" d="M8.6,420c5-11,13.9-19.5,25.2-23.8s23.6-3.9,34.7,1c4.7,2.1,8.8,4.9,12.6,8.4
						c14,13.2,18.2,33.9,10.3,51.4c-5,11-13.9,19.5-25.2,23.8c-11.4,4.3-23.6,3.9-34.6-1c-4.7-2.1-8.8-4.9-12.6-8.4
						C4.9,458.3,0.7,437.5,8.6,420L8.6,420L8.6,420z M64.6,405.8c-8.7-3.9-18.5-4.2-27.4-0.8s-16,10.1-19.9,18.9
						c-6.2,14-2.9,30.3,8.1,40.7c2.9,2.7,6.2,5,9.9,6.6c8.7,3.9,18.5,4.2,27.4,0.8c8.9-3.4,16-10.1,19.9-18.9
						c6.2-14,2.9-30.3-8.1-40.7C71.6,409.6,68.2,407.4,64.6,405.8L64.6,405.8L64.6,405.8z"/>
					<path id="Shape_7_" class="st5" d="M18.9,471.4c3.6,3.5,7.9,6.3,12.6,8.4l3.8-8.6c-8.7-3.9-15.4-11-18.9-19.9
						c-3.4-8.9-3.2-18.7,0.8-27.4c3.9-8.7,11-15.4,19.9-18.9c8.9-3.4,18.7-3.2,27.4,0.8l3.8-8.6c-11-5-23.4-5.3-34.7-1
						c-11.3,4.3-20.2,12.8-25.2,23.8c-5,11-5.3,23.4-1,34.7C10.1,461.1,14,466.7,18.9,471.4L18.9,471.4L18.9,471.4z"/>
					<path id="Shape_8_" class="st1" d="M249.3,418.2c3.4,21.8,9.3,39,31.1,35.6c21.8-3.4,36.7-23.7,33.3-45.5s-23.7-36.7-45.5-33.3
						C246.5,378.2,245.9,396.4,249.3,418.2L249.3,418.2L249.3,418.2z"/>
					<path id="Shape_9_" class="st1" d="M134.5,314.6l-18.4-82.8l-21.3,82.1L134.5,314.6L134.5,314.6z"/>
					<path id="Shape_10_" class="st1" d="M94.9,314c-0.2,11,8.6,20,19.4,20.1s20-8.6,20.1-19.4"/>
					<path id="Shape_11_" class="st6" d="M116.1,231.8l18.7,81.6c-0.2,10.5-23,25.5-19.1,19.5C129.2,312.7,116.1,231.8,116.1,231.8
						L116.1,231.8L116.1,231.8z"/>
				</g>
			</g>
		</g>
	</g>
</g>
<g id="Page-1_2_" sketch:type="MSPage">
	<g id="robot-peek-right-antenna" transform="translate(-7.000000, -6.000000)" sketch:type="MSLayerGroup">
		<circle id="Oval_9_" sketch:type="MSShapeGroup" class="st7" cx="101.7" cy="206.3" r="17.7">
		</circle>
		<path id="Shape_12_" sketch:type="MSShapeGroup" class="st8" d="M107.6,215.2c3-9.7,0-19.8-6.9-26.5c2-0.1,4.1,0.1,6.2,0.7
			c9.3,2.8,14.6,12.8,11.6,22.1c-2.2,7.2-8.6,11.9-15.7,12.3C105,221.4,106.6,218.4,107.6,215.2L107.6,215.2z"/>
	</g>
</g>
</svg>
