<?xml version="1.0" encoding="utf-8"?>
<!-- Generator: Adobe Illustrator 18.0.0, SVG Export Plug-In . SVG Version: 6.00 Build 0)  -->
<!DOCTYPE svg PUBLIC "-//W3C//DTD SVG 1.1//EN" "http://www.w3.org/Graphics/SVG/1.1/DTD/svg11.dtd">
<svg version="1.1" id="Layer_1" xmlns="http://www.w3.org/2000/svg" xmlns:xlink="http://www.w3.org/1999/xlink" x="0px" y="0px"
	 viewBox="0 0 2052 966.1" enable-background="new 0 0 2052 966.1" xml:space="preserve">
<g>
	<defs>
		<circle id="SVGID_1_" cx="249.9" cy="666.1" r="154.5"/>
	</defs>
	<clipPath id="SVGID_2_">
		<use xlink:href="#SVGID_1_"  overflow="visible"/>
	</clipPath>
	<g clip-path="url(#SVGID_2_)">
		<rect x="104" y="418.5" fill="#3CA42C" width="307.6" height="419.3"/>
		<rect x="-1.8" y="418.5" fill="#5ED22E" width="307.6" height="419.3"/>
	</g>
</g>
<g>
	<defs>
		<circle id="SVGID_3_" cx="616.4" cy="244.5" r="154.5"/>
	</defs>
	<clipPath id="SVGID_4_">
		<use xlink:href="#SVGID_3_"  overflow="visible"/>
	</clipPath>
	<g clip-path="url(#SVGID_4_)">
		<rect x="470.5" y="-3" fill="#155297" width="307.6" height="419.3"/>
		<rect x="364.7" y="-3" fill="#2178D9" width="307.6" height="419.3"/>
	</g>
</g>
<g>
	<defs>
		<circle id="SVGID_5_" cx="966" cy="244.5" r="154.5"/>
	</defs>
	<clipPath id="SVGID_6_">
		<use xlink:href="#SVGID_5_"  overflow="visible"/>
	</clipPath>
	<g clip-path="url(#SVGID_6_)">
		<rect x="820" y="-3" fill="#D8C22D" width="307.6" height="419.3"/>
		<rect x="714.3" y="-3" fill="#F4E033" width="307.6" height="419.3"/>
	</g>
</g>
<g>
	<defs>
		<circle id="SVGID_7_" cx="614.4" cy="666.1" r="154.5"/>
	</defs>
	<clipPath id="SVGID_8_">
		<use xlink:href="#SVGID_7_"  overflow="visible"/>
	</clipPath>
	<g clip-path="url(#SVGID_8_)">
		<rect x="468.5" y="418.5" fill="#AD3014" width="307.6" height="419.3"/>
		<rect x="362.7" y="418.5" fill="#F0531E" width="307.6" height="419.3"/>
	</g>
</g>
<g>
	<defs>
		<circle id="SVGID_9_" cx="979" cy="666.1" r="154.5"/>
	</defs>
	<clipPath id="SVGID_10_">
		<use xlink:href="#SVGID_9_"  overflow="visible"/>
	</clipPath>
	<g clip-path="url(#SVGID_10_)">
		<rect x="833" y="418.5" fill="#2BA7A1" width="307.6" height="419.3"/>
		<rect x="727.3" y="418.5" fill="#3EE6D3" width="307.6" height="419.3"/>
	</g>
</g>
<g>
	<defs>
		<circle id="SVGID_11_" cx="1345.5" cy="244.5" r="154.5"/>
	</defs>
	<clipPath id="SVGID_12_">
		<use xlink:href="#SVGID_11_"  overflow="visible"/>
	</clipPath>
	<g clip-path="url(#SVGID_12_)">
		<rect x="1199.6" y="-3" fill="#292A30" width="307.6" height="419.3"/>
		<rect x="1093.8" y="-3" fill="#4B4D5C" width="307.6" height="419.3"/>
	</g>
</g>
<g>
	<defs>
		<circle id="SVGID_13_" cx="1352.5" cy="666.1" r="154.5"/>
	</defs>
	<clipPath id="SVGID_14_">
		<use xlink:href="#SVGID_13_"  overflow="visible"/>
	</clipPath>
	<g clip-path="url(#SVGID_14_)">
		<rect x="1206.6" y="418.5" fill="#9B0B12" width="307.6" height="419.3"/>
		<rect x="1100.8" y="418.5" fill="#D42026" width="307.6" height="419.3"/>
	</g>
</g>
<g>
	<defs>
		<circle id="SVGID_15_" cx="1733.5" cy="666.1" r="154.5"/>
	</defs>
	<clipPath id="SVGID_16_">
		<use xlink:href="#SVGID_15_"  overflow="visible"/>
	</clipPath>
	<g clip-path="url(#SVGID_16_)">
		<rect x="1587.6" y="418.5" fill="#49486E" width="307.6" height="419.3"/>
		<rect x="1481.8" y="418.5" fill="#6847C6" width="307.6" height="419.3"/>
	</g>
</g>
</svg>
