<?xml version="1.0" encoding="UTF-8" standalone="no"?>
<svg width="19px" height="19px" viewBox="0 0 19 19" version="1.1" xmlns="http://www.w3.org/2000/svg" xmlns:xlink="http://www.w3.org/1999/xlink">
    <!-- Generator: Sketch 3.8.3 (29802) - http://www.bohemiancoding.com/sketch -->
    <title>dollar-icon</title>
    <desc>Created with Sketch.</desc>
    <defs></defs>
    <g id="Welcome" stroke="none" stroke-width="1" fill="none" fill-rule="evenodd">
        <g id="Desktop-3" transform="translate(-784.000000, -597.000000)">
            <g id="Ingredients" transform="translate(674.000000, 588.000000)">
                <g id="dollar-icon" transform="translate(111.000000, 10.000000)">
                    <g id="Oval-10-+-Path-26" stroke="#979797">
                        <circle id="Oval-10" cx="8.5" cy="8.5" r="8.5"></circle>
                    </g>
                    <path d="M6.09337017,10.7359116 C6.00423528,10.6062609 5.95966851,10.4847151 5.95966851,10.3712707 C5.95966851,10.2335168 6.00828681,10.1058938 6.10552486,9.98839779 C6.20276292,9.87090181 6.34456629,9.8121547 6.53093923,9.8121547 C6.62817728,9.8121547 6.72743964,9.8445669 6.82872928,9.90939227 C6.93001892,9.97421764 7.03738433,10.0552481 7.15082873,10.1524862 C7.25616996,10.2416211 7.37366418,10.3388577 7.50331492,10.4441989 C7.63296566,10.5495401 7.7545114,10.618416 7.8679558,10.6508287 C7.8679558,10.286186 7.86998156,9.93775488 7.87403315,9.60552486 C7.87808473,9.27329484 7.8801105,8.9248637 7.8801105,8.56022099 L7.79502762,8.52375691 C7.62486103,8.45082836 7.43443936,8.35966906 7.22375691,8.25027624 C7.01307445,8.14088343 6.81252397,8.00920887 6.62209945,7.85524862 C6.43167492,7.70128836 6.27163969,7.52302127 6.14198895,7.32044199 C6.01233821,7.11786271 5.94751381,6.88287427 5.94751381,6.61546961 C5.94751381,6.39668399 5.99208059,6.1860047 6.08121547,5.98342541 C6.17035035,5.78084613 6.29797339,5.59650175 6.4640884,5.43038674 C6.63020341,5.26427173 6.83277965,5.12246836 7.0718232,5.00497238 C7.31086676,4.88747639 7.58029316,4.80442013 7.8801105,4.7558011 L7.8801105,4.37900552 C7.8801105,4.24125161 7.88618778,4.10755129 7.89834254,3.97790055 C7.9104973,3.84824981 7.93885797,3.73480712 7.98342541,3.63756906 C8.02799286,3.54033101 8.08876573,3.46335203 8.16574586,3.40662983 C8.24272598,3.34990764 8.35009139,3.32154696 8.4878453,3.32154696 C8.74714678,3.32154696 8.91123354,3.41878356 8.9801105,3.61325967 C9.04898745,3.80773578 9.08342541,4.0386727 9.08342541,4.30607735 C9.08342541,4.35469638 9.08139965,4.39926315 9.07734807,4.43977901 C9.07329648,4.48029486 9.07127072,4.52081011 9.07127072,4.56132597 L9.07127072,4.7679558 C9.19281829,4.79226531 9.34880199,4.83278056 9.53922652,4.88950276 C9.72965104,4.94622496 9.91602119,5.02117817 10.0983425,5.11436464 C10.2806639,5.20755111 10.4366476,5.31289076 10.5662983,5.43038674 C10.6959491,5.54788272 10.7607735,5.67550576 10.7607735,5.81325967 C10.7607735,5.95101358 10.7060779,6.0685078 10.5966851,6.16574586 C10.4872923,6.26298391 10.3434631,6.31160221 10.1651934,6.31160221 C10.0031299,6.31160221 9.8329659,6.27513849 9.65469613,6.20220994 C9.47642636,6.1292814 9.3184169,6.06040548 9.18066298,5.99558011 L9.05911602,5.94696133 C9.05101285,6.09281841 9.04898709,6.24677635 9.05303867,6.40883978 C9.05709026,6.5709032 9.05911602,6.72080962 9.05911602,6.85856354 L9.05911602,7.89171271 C9.31031433,7.98895076 9.5655604,8.09226465 9.82486188,8.20165746 C10.0841634,8.31105027 10.317126,8.44069907 10.5237569,8.59060773 C10.7303878,8.7405164 10.8985261,8.9187835 11.0281768,9.12541436 C11.1578275,9.33204523 11.2226519,9.58121401 11.2226519,9.87292818 C11.2226519,10.2132614 11.1578275,10.4988939 11.0281768,10.7298343 C10.8985261,10.9607746 10.7303878,11.1552478 10.5237569,11.3132597 C10.317126,11.4712715 10.0841634,11.5968688 9.82486188,11.6900552 C9.5655604,11.7832417 9.30626281,11.8541434 9.04696133,11.9027624 L9.04696133,12.3099448 C9.04696133,12.4436471 9.05101285,12.5793732 9.05911602,12.7171271 C9.01860017,12.8791905 8.93959543,12.9987105 8.82209945,13.0756906 C8.70460346,13.1526707 8.58508348,13.1911602 8.46353591,13.1911602 C8.31767883,13.1911602 8.20423613,13.1607738 8.12320442,13.1 C8.04217271,13.0392262 7.9834256,12.9581957 7.94696133,12.8569061 C7.91049706,12.7556164 7.88821367,12.6421737 7.8801105,12.5165746 C7.87200733,12.3909754 7.8679558,12.2633524 7.8679558,12.1337017 C7.8679558,12.0931858 7.86593004,12.048619 7.86187845,12 C7.85782687,11.951381 7.85174958,11.8946596 7.84364641,11.8298343 C7.5924481,11.7569057 7.37974304,11.6839783 7.20552486,11.6110497 C7.03130668,11.5381212 6.8793745,11.4570907 6.74972376,11.3679558 C6.62007302,11.2788209 6.50460456,11.1815843 6.40331492,11.0762431 C6.30202528,10.9709019 6.19871139,10.8574592 6.09337017,10.7359116 L6.09337017,10.7359116 Z M9.89779006,9.65414365 C9.75193297,9.54069925 9.61620689,9.43738536 9.49060773,9.3441989 C9.36500858,9.25101243 9.22117945,9.15580159 9.05911602,9.05856354 C9.05911602,9.20442062 9.05709026,9.34824975 9.05303867,9.49005525 C9.04898709,9.63186075 9.04696133,9.77163835 9.04696133,9.90939227 L9.04696133,10.7966851 C9.23333427,10.7480661 9.47642576,10.6386749 9.77624309,10.4685083 C9.92210018,10.3388575 9.99502762,10.1848996 9.99502762,10.0066298 C9.99502762,9.94990764 9.98895034,9.89318629 9.97679558,9.83646409 C9.96464082,9.77974189 9.93830591,9.71896902 9.89779006,9.65414365 L9.89779006,9.65414365 Z M7.8801105,5.91049724 C7.75045976,5.95101309 7.6187852,6.00773444 7.48508287,6.08066298 C7.35138055,6.15359152 7.25211819,6.2791888 7.18729282,6.45745856 C7.19539599,6.6438315 7.26629767,6.81602131 7.4,6.97403315 C7.53370233,7.13204499 7.69373756,7.26777107 7.8801105,7.38121547 L7.8801105,5.91049724 Z" id="$" fill="#979797"></path>
                </g>
            </g>
        </g>
    </g>
</svg>