<?xml version="1.0" encoding="UTF-8" standalone="no"?>
<svg width="41px" height="41px" viewBox="0 0 41 41" version="1.1" xmlns="http://www.w3.org/2000/svg" xmlns:xlink="http://www.w3.org/1999/xlink">
    <!-- Generator: Sketch 3.6.1 (26313) - http://www.bohemiancoding.com/sketch -->
    <title>h-logo</title>
    <desc>Created with Sketch.</desc>
    <defs></defs>
    <g id="Welcome" stroke="none" stroke-width="1" fill="none" fill-rule="evenodd">
        <g id="Desktop-2" transform="translate(-5.000000, -7.000000)">
            <g id="h-logo" transform="translate(5.000000, 7.000000)">
                <path d="M13.3930622,31 L13.3930622,7.76740799 C13.3930622,7.76740797 16.2185831,6.48177083 16.2185831,6.48177083 L16.2185831,17.7382813 C17.0287723,16.4318511 18.0060484,15.4090025 19.1504407,14.6697049 C20.294833,13.9304072 21.4392081,13.5607639 22.5836004,13.5607639 C23.5457001,13.5607639 24.4242359,13.8063488 25.2192341,14.297526 C26.0142323,14.7887033 26.5686972,15.3836771 26.8826456,16.0824653 C27.1358297,16.6192156 27.3079923,17.1888714 27.3991386,17.7914497 C27.4902849,18.3940279 27.5358574,19.6371434 27.5358574,21.5208333 L27.5358574,31 L24.7103365,31 L24.7103365,21.171441 C24.7103365,19.5409351 24.6318506,18.4649187 24.4748765,17.9433594 C24.3179023,17.4218001 24.0292767,16.9939253 23.6089911,16.6597222 C23.1887054,16.3255192 22.730449,16.1584201 22.2342081,16.1584201 C21.2417263,16.1584201 20.175837,16.6293356 19.0365084,17.5711806 C17.8971798,18.5130255 16.9578807,19.6928459 16.2185831,21.1106771 L16.2185831,31 L13.3930622,31 Z" id="h" fill="#FFFFFF"></path>
                <path d="M20.5,40.0555556 C31.6041097,40.0555556 40.6057692,31.1758698 40.6057692,20.2222222 C40.6057692,9.26857468 31.6041097,0.388888889 20.5,0.388888889 C9.39589027,0.388888889 0.394230769,9.26857468 0.394230769,20.2222222 C0.394230769,31.1758698 9.39589027,40.0555556 20.5,40.0555556 L20.5,40.0555556 Z M20.5,37.7222222 C10.7022561,37.7222222 2.75961538,29.8872053 2.75961538,20.2222222 C2.75961538,10.5572391 10.7022561,2.72222222 20.5,2.72222222 C30.2977439,2.72222222 38.2403846,10.5572391 38.2403846,20.2222222 C38.2403846,29.8872053 30.2977439,37.7222222 20.5,37.7222222 L20.5,37.7222222 Z" id="Oval-5" fill="#F3F3F3"></path>
            </g>
        </g>
    </g>
</svg>