<?xml version="1.0" encoding="UTF-8" standalone="no"?>
<svg width="205px" height="146px" viewBox="0 0 205 146" version="1.1" xmlns="http://www.w3.org/2000/svg" xmlns:xlink="http://www.w3.org/1999/xlink">
    <!-- Generator: Sketch 3.8.2 (29753) - http://www.bohemiancoding.com/sketch -->
    <title>Shape</title>
    <desc>Created with Sketch.</desc>
    <defs></defs>
    <g id="Page-1" stroke="none" stroke-width="1" fill="none" fill-rule="evenodd">
        <g id="he-logo" fill="#FFFFFF">
            <path d="M172.1,31.1 L172.1,0 L115.5,0 L115.5,31.1 L85.3,31.1 L32.2,31.1 L32.2,0 L0,0 L0,31.1 L0,145.8 L32.2,145.8 L32.2,62.9 L85.3,62.9 L85.3,117.8 L85.3,145.8 L115.5,145.8 L117.5,145.8 L199.4,145.8 L199.4,113.6 L117.5,113.6 L117.5,89.2 L199.4,89.2 L199.4,89 L204.3,89 L204.3,31.1 L172.1,31.1 L172.1,31.1 Z M172.1,56.9 L117.5,56.9 L117.5,32.2 L172.1,32.2 L172.1,56.9 L172.1,56.9 Z" id="Shape"></path>
        </g>
    </g>
</svg>