<?xml version="1.0" encoding="UTF-8" standalone="no"?>
<svg width="1853px" height="1511px" viewBox="0 0 1853 1511" version="1.1" xmlns="http://www.w3.org/2000/svg" xmlns:xlink="http://www.w3.org/1999/xlink" xmlns:sketch="http://www.bohemiancoding.com/sketch/ns">
    <!-- Generator: Sketch 3.5.1 (25234) - http://www.bohemiancoding.com/sketch -->
    <title>icon-desktop</title>
    <desc>Created with Sketch.</desc>
    <defs>
        <path id="path-1" d="M73.1536165,193.047088 C82.6740284,156.748975 90.2624389,0 90.2624389,0 L479.733834,0 C479.733834,0 487.807774,156.130135 499.20064,193.047088 C510.593507,229.964042 542.049258,249.37337 561.090082,263.623276 L8.90619177,263.623276 C27.9470156,249.37337 63.6332046,229.345201 73.1536165,193.047088 Z"></path>
    </defs>
    <g id="Page-1" stroke="none" stroke-width="1" fill="none" fill-rule="evenodd" sketch:type="MSPage">
        <g id="icon-desktop" sketch:type="MSLayerGroup" transform="translate(0.285391, 0.099649)">
            <g id="::-stand" transform="translate(641.245807, 1211.242081)">
                <rect id="Rectangle-80" fill="#CACACA" sketch:type="MSShapeGroup" x="0" y="284.998137" width="569.996273" height="14.2499068"></rect>
                <path d="M6.71977949,267.358716 C7.5056942,265.295689 9.93357795,263.623276 12.1456561,263.623276 L557.850617,263.623276 C560.061331,263.623276 562.492422,265.300526 563.276494,267.358716 L569.996273,284.998137 L-4.52016419e-16,284.998137 L6.71977949,267.358716 Z" id="Rectangle-77" fill="#CACACA" sketch:type="MSShapeGroup"></path>
                <mask id="mask-2" sketch:name="Mask" fill="white">
                    <use xlink:href="#path-1"></use>
                </mask>
                <use id="Mask" fill="#D8D8D8" sketch:type="MSShapeGroup" xlink:href="#path-1"></use>
                <rect id="Rectangle-123" fill="#CACACA" sketch:type="MSShapeGroup" mask="url(#mask-2)" x="42.7497205" y="0" width="484.496832" height="14.2499068"></rect>
            </g>
            <g id="::-base" fill="#D8D8D8" sketch:type="MSShapeGroup">
                <path d="M0,37.9978253 C0,17.0122058 17.0112947,0 38.0019723,0 L1814.48592,0 C1835.47383,0 1852.48789,17.0067027 1852.48789,37.9978253 L1852.48789,1173.24426 C1852.48789,1194.22987 1835.47659,1211.24208 1814.48592,1211.24208 L38.0019723,1211.24208 C17.0140625,1211.24208 0,1194.23538 0,1173.24426 L0,37.9978253 Z M961.868711,48.7516635 C961.868711,45.4368819 964.54901,42.7497205 967.870654,42.7497205 L970.116675,42.7497205 C973.431457,42.7497205 976.118618,45.430019 976.118618,48.7516635 L976.118618,50.9976843 C976.118618,54.3124659 973.43832,56.9996273 970.116675,56.9996273 L967.870654,56.9996273 C964.555873,56.9996273 961.868711,54.3193289 961.868711,50.9976843 L961.868711,48.7516635 Z M911.994037,49.8746739 C911.994037,42.0046677 918.372207,35.6247671 926.243944,35.6247671 C934.11395,35.6247671 940.493851,42.0029373 940.493851,49.8746739 C940.493851,57.7446801 934.115681,64.1245807 926.243944,64.1245807 C918.373938,64.1245807 911.994037,57.7464105 911.994037,49.8746739 Z M876.36927,48.7516635 C876.36927,45.4368819 879.049569,42.7497205 882.371213,42.7497205 L884.617234,42.7497205 C887.932016,42.7497205 890.619177,45.430019 890.619177,48.7516635 L890.619177,50.9976843 C890.619177,54.3124659 887.938879,56.9996273 884.617234,56.9996273 L882.371213,56.9996273 C879.056432,56.9996273 876.36927,54.3193289 876.36927,50.9976843 L876.36927,48.7516635 Z M99.7493478,99.7493478 L1752.73854,99.7493478 L1752.73854,1111.49273 L99.7493478,1111.49273 L99.7493478,99.7493478 Z" id="dark-bezel"></path>
            </g>
            <g id="::-screen" transform="translate(611.749348, 1025.749348)">
                <g id="::-contents" transform="translate(0.996646, 0.243944)"></g>
            </g>
        </g>
    </g>
</svg>