<?xml version="1.0" encoding="UTF-8" standalone="no"?>
<svg width="15px" height="14px" viewBox="0 0 15 14" version="1.1" xmlns="http://www.w3.org/2000/svg" xmlns:xlink="http://www.w3.org/1999/xlink" xmlns:sketch="http://www.bohemiancoding.com/sketch/ns">
    <!-- Generator: Sketch 3.2.2 (9983) - http://www.bohemiancoding.com/sketch -->
    <title>menu</title>
    <desc>Created with Sketch.</desc>
    <defs></defs>
    <g id="Welcome" stroke="none" stroke-width="1" fill="none" fill-rule="evenodd" sketch:type="MSPage">
        <g id="Desktop-3" sketch:type="MSArtboardGroup" transform="translate(-976.000000, -373.000000)" fill="#E4E4E4">
            <g id="Group" sketch:type="MSLayerGroup" transform="translate(966.000000, 362.000000)">
                <g id="menu" transform="translate(10.000000, 11.000000)" sketch:type="MSShapeGroup">
                    <rect id="Rectangle-10" x="11" y="10" width="4" height="4" rx="1"></rect>
                    <rect id="Rectangle-11" x="5.75" y="5" width="4" height="4" rx="1"></rect>
                    <rect id="Rectangle-12" x="0.75" y="5" width="4" height="4" rx="1"></rect>
                    <rect id="Rectangle-13" x="10.75" y="5" width="4" height="4" rx="1"></rect>
                    <rect id="Rectangle-14" x="10.75" y="0" width="4" height="4" rx="1"></rect>
                    <rect id="Rectangle-15" x="5.75" y="0" width="4" height="4" rx="1"></rect>
                    <path d="M5.75,12.0998535 L5.75,11.003965 C5.75,10.4494904 6.19335318,10 6.7593689,10 L8.7406311,10 C9.29809015,10 9.75,10.4433532 9.75,11.0093689 L9.75,12.9906311 C9.75,13.5480902 9.30664682,14 8.7406311,14 L6.7593689,14 C6.20190985,14 5.75,13.5498521 5.75,12.9960242 L5.75,12.0998535 Z" id="Rectangle-16"></path>
                    <rect id="Rectangle-17" x="0.75" y="0" width="4" height="4" rx="1"></rect>
                    <rect id="Rectangle-18" x="0.75" y="10" width="4" height="4" rx="1"></rect>
                </g>
            </g>
        </g>
    </g>
</svg>